<?xml version="1.0" encoding="UTF-8"?>
<!DOCTYPE svg PUBLIC "-//W3C//DTD SVG 1.1//EN" "http://www.w3.org/Graphics/SVG/1.1/DTD/svg11.dtd">
<!-- Creator: CorelDRAW -->
<svg xmlns="http://www.w3.org/2000/svg" xml:space="preserve" width="827px" height="160px" style="shape-rendering:geometricPrecision; text-rendering:geometricPrecision; image-rendering:optimizeQuality; fill-rule:evenodd; clip-rule:evenodd"
viewBox="0 0 827.001 160.186"
 xmlns:xlink="http://www.w3.org/1999/xlink">
 <defs>
  <style type="text/css">
   <![CDATA[
    .fil2 {fill:#838281}
    .fil1 {fill:white}
    .fil4 {fill:#605D5C;fill-rule:nonzero}
    .fil0 {fill:#838281;fill-rule:nonzero}
    .fil3 {fill:#BA1A20;fill-rule:nonzero}
   ]]>
  </style>
 </defs>
 <g id="Слой_x0020_1">
  <metadata id="CorelCorpID_0Corel-Layer"/>
  <g id="_115022904">
   <path id="_115024800" class="fil0" d="M644.489 1.57277l0.613996 -0.613996 0.613996 -0.613996 0.344782 -0.344782 0.487654 0 1.84199 0 0.557319 0c0.119257,0.148776 0.238514,0.297552 0.35777,0.446328l4.91078 6.14114 0.132245 0.164126 0.0661226 0.199549 0.491196 1.47477 0.902101 0.644695 0 -2.98024 0 -1.50665 1.46296 0.366036 2.4548 0.613996 0.312902 0.0779302 0.234971 0.234971 1.22799 1.22799 0.191283 0.191283 0.088557 0.269213 0.613996 1.84199 0.229068 0.686022 -0.508908 0.510089 -0.613996 0.613996 0 0.00472304 -0.613996 0.613996 -0.00236152 -0.00236152 -0.0909186 0.0909186 0.0909186 0.0909186 0.00236152 -0.00236152 0.613996 0.613996 0.613996 0.613996 0 0.00472304 0.439243 0.440424 0.0224345 0.00826532 0.00354228 -0.127522 0.32589 -0.32589 0.613996 -0.613996 0.340059 -0.340059 0.492377 0 0.121618 0 0.272756 -0.273936 0.345963 -0.344782 0.487654 0 4.91078 0 0.487654 0 0.344782 0.344782 1.22799 1.22799 0 0.00472304 0.613996 0.615176 0.112172 0.112172 0.0814725 0.145234 0.211356 0.379024c0.0625803,-0.0271575 0.113353,-0.0507727 0.159403,-0.0720264 0.409724,-0.196006 0.628165,-0.299913 1.67314,-0.299913 0.415628,0 0.708456,0.158222 1.12881,0.386109l-0.00118076 0.00236152c0.510089,0.275117 1.3626,0.736795 2.65317,0.844244l0.426255 0.0354228 0.309359 0.309359 0.269213 0.269213 0.126341 0 0.491196 0 0.34124 0.340059 0.194825 0.194825 3.6946 -0.57503 1.34843 -0.210175 0.00354228 1.36968 0.00236152 0.939885 0.306998 -0.706095 0.540788 -1.2457 1.15124 0.707276 4.44556 2.7311 0.635249 0.389651 -0.0826532 0.741518 -0.178295 1.59285 2.0557 2.0557 0.00236152 -0.00118076 0.425074 0.425074 1.56569 0.521896 0.276298 0.0920993 0.188922 0.188922 0.613996 0.613996 0.340059 0.340059 0 0.115715 0.541969 -0.541969 -0.0909186 -0.0909186 -0.34124 -0.34124 0 -0.491196 0 -1.22917 0 -0.491196 0.34124 -0.34124 0.272756 -0.272756 0 -0.736795 0 -1.62709 1.54089 0.513631 1.84199 0.613996 0.269213 0.0897378 0.194825 0.196006 0.613996 0.613996 0.531342 0.531342 1.69085 1.12763 1.1536 0.577392 0.759229 0.379024 -0.119257 0.834798 -0.60573 4.23421 0 0.161764 0.259767 -0.207814 0.409724 0 0.740337 0 0.269213 -0.269213 0.227887 -0.226706 0.301094 -0.0802917c0.961139,-0.257406 1.09102,-0.406182 1.1843,-0.51245 0.412085,-0.472304 0.662407,-0.758048 2.18913,-0.758048 1.02726,0 1.74398,0.20191 2.28123,0.737975l0.00236152 -0.00236152c0.534885,0.534885 0.735614,1.25161 0.735614,2.28477l0 2.45598 0 1.37441 -1.36142 -0.214898 -0.728529 -0.115715 0.0956416 0.193645 1.16659 2.36034 0.482931 0.482931 0.344782 0.344782 0 0.487654 0 1.84199 0 0.625803 -0.524258 0.349505 -1.74516 1.16423 -0.144053 0.144053c0.615176,-0.272756 1.15242,-0.520715 1.50665,-0.684841 0.430978,-0.198368 0.690745,-0.318805 0.957597,-0.318805l3.68279 0 1.89984 0 -0.850148 1.70148 -0.644695 1.28939 1.9211 1.92228 1.97187 0 1.84199 0 0.662407 0 0.344782 0.57385 1.61882 2.69922 1.42636 0.475847 0.269213 0.0897378 0.194825 0.194825 0.613996 0.613996 0.344782 0.345963 0 0.48175 0 3.33329 0.965862 1.44879 1.14534 1.14652 0.229068 0.229068 0.079111 0.312902 0.585657 2.34617 0.550234 1.09929 0.128703 0.258587 0 0.265671 0 0.741518 0.269213 0.269213 0.344782 0.344782 0 0.487654 0 1.84199 0 0.623442 -0.524258 0.351867c-0.133426,0.088557 -0.353047,0.226706 -0.637611,0.405001 -1.04733,0.657684 -3.14082,1.40747 -3.14082,1.69085l0.00472304 0c0,0.892655 0.583296,2.06751 1.37677,3.21285 0.939885,1.35787 2.13836,2.61657 3.06644,3.37698 0.846605,-0.468762 1.91283,-1.01191 2.97434,-1.01191l0 0.00472304c0.755687,0 1.74044,0.673034 3.02983,1.55506 1.90811,1.3071 4.62976,3.16916 6.89092,3.3569l0.426255 0.0354228 0.309359 0.309359 0.611634 0.612815 0.00236152 -0.00236152 0.613996 0.613996 0.106268 0.106268 0.0861955 0.15586 0.334155 0.598646 3.55645 0.0271575 0.309359 0 7.57576 -4.08071 0.487654 -0.487654 0.344782 -0.344782 0.487654 0 0.740337 0 0.269213 -0.269213 0.344782 -0.344782 0.487654 0 0.740337 0 0.269213 -0.269213 0.349505 -0.349505 0.482931 0 1.27876 0 0 -0.0507727 0 -0.487654 0.344782 -0.344782 0.613996 -0.613996 0.00236152 0.00236152 0.265671 -0.266852 0 -2.58823 0 -0.662407 0.57503 -0.344782 2.94364 -1.76642 0.165306 -0.165306 0 -0.132245 0 -0.613996 0.00472304 0 0 -1.22799 0 -0.35777 0.198368 -0.29519c0.0767494,-0.114534 0.173572,-0.27984 0.268033,-0.438062 0.629345,-1.06505 1.13707,-1.92346 3.16208,-1.92346l0.613996 0 0 -0.00472304c0.749783,0 1.46414,0.166487 2.01084,0.531342 0.624622,0.415628 1.00837,1.03198 1.00837,1.87387l-0.00472304 0c0,1.29648 -0.153499,1.75579 -0.369578,2.39812 -0.0425074,0.126341 -0.088557,0.260948 -0.136968,0.425074 0.59038,0.711999 1.58812,1.61882 2.70512,2.32964 0.943428,0.601007 1.93999,1.03907 2.76888,1.03907 0.781664,0 1.66841,-0.65178 2.39222,-1.18548l0.113353 -0.083834 0 -2.46661 0 -0.623442 0.524258 -0.350686c3.05817,-2.04862 5.50116,-3.12311 8.39403,-3.71585 2.82792,-0.579753 6.02188,-0.677757 10.6552,-0.781664l0.451051 -0.00944608 0.340059 0.29519 2.32374 2.01556c1.04615,-0.631707 1.85616,-1.07685 3.66154,-1.07685 0.702553,0 1.76524,0.97767 2.81257,1.94235 0.31054,0.284563 0.618719,0.567946 0.88557,0.805279 0.652961,-0.566765 1.06032,-0.905643 2.44181,-0.905643 0.945789,0 2.11828,0.950512 3.17743,2.1419 1.47831,1.66369 2.91176,4.05827 2.91176,4.56246l-0.00472304 0c0,0.595103 -1.18194,2.22337 -2.49259,3.34628 -0.974127,0.835979 -2.08758,1.51137 -2.97788,1.51137l0 0.00472304 -1.84199 0c-1.33662,0 -2.1053,-0.258587 -2.64845,-0.550234 0.0897378,0.309359 0.136968,0.691926 0.136968,1.215 0,1.40629 -0.630526,1.68258 -1.51964,2.07223 -0.500642,0.219621 -1.21854,0.533704 -1.73336,2.39812 -0.116895,0.422712 -0.41917,1.25161 -0.741518,2.13836 -0.37194,1.019 -0.774579,2.12419 -0.883209,2.48668 0.00118076,-0.00118076 0.00354228,-0.00118076 0.0059038,0.00354228 0.335336,0.750964 1.10991,2.48078 1.18666,5.19889l2.28595 2.63782 0.596284 0.687203 -0.518354 0.747421c-0.74506,1.07567 -2.04035,2.43001 -3.4183,3.49977 -1.20674,0.937524 -2.51738,1.68731 -3.66744,1.91519 -0.891474,0.175933 -1.7676,0.135787 -2.64136,0.0956416 -0.873763,-0.0413266 -1.7428,-0.0814725 -2.43827,0.15586 -0.740337,0.253864 -0.920993,0.670672 -1.05442,0.97767 -0.40382,0.935162 -0.686022,1.58694 -2.18323,1.32363l0.00118076 -0.00236152 -11.6836 -1.87387 -2.57052 2.31901 -0.340059 0.306998 -0.464039 -0.00826532c-3.54228,-0.0613996 -4.32395,0.677757 -4.92141,1.24334 -0.643515,0.608092 -1.16777,1.10401 -2.53509,1.10401 -0.717902,0 -1.13707,-0.606911 -1.81365,-1.58812 -1.81837,-2.63782 -6.52724,-9.46616 -13.5351,-9.46616 -2.17968,0 -4.12794,0.634068 -5.75621,1.62945 1.99785,2.2033 0.539608,6.87675 -3.41594,5.4622 -0.255044,-0.0920993 1.50665,6.85786 -5.90262,4.41486 -5.54957,-0.626984 -13.502,1.80302 -13.809,6.23324 -0.270394,3.89297 -1.06032,4.96156 -1.78059,5.62278 -1.33426,1.64952 -5.23313,2.55753 -7.57222,3.04518 -0.794652,0.134607 -0.955235,1.18076 -1.522,1.62473 -1.25987,0.984754 -3.43837,1.35197 -5.01941,0.259767 -0.545511,-0.376663 -1.01663,-1.84317 -1.64008,-1.88095 -1.72155,-0.103907 -3.92603,1.41219 -6.20135,2.06869 -3.0499,0.879667 -4.67699,1.52554 -7.91346,3.52221 -1.15124,0.710818 -1.98014,1.16659 -2.68269,1.5527 -1.75225,0.963501 -2.6638,1.46414 -4.8423,3.94256 -0.867859,0.987116 -1.19021,2.08522 -1.50665,3.16326 -0.475847,1.62355 -0.943428,3.21403 -2.75944,4.68408 0.0507727,0.141691 0.0944608,0.230248 0.129884,0.305817 0.206633,0.427435 0.31054,0.644695 0.31054,1.68849 0,2.12655 -1.67432,2.4241 -3.48088,2.4241l0 0.00472304c-0.0802917,0 -0.379024,-0.00708456 -0.684841,-0.0141691 -0.722625,1.30356 -1.34961,2.17024 -2.37569,2.77715 -1.03198,0.611634 -2.33673,0.850148 -4.42313,0.887932 -0.559681,0.938705 -0.814725,1.68258 -1.02372,2.29186 -0.629345,1.83726 -0.955235,2.79014 -4.69234,3.92485 -0.41917,0.126341 -1.84671,0.805279 -3.35808,1.52318 -2.12301,1.00955 -4.40069,2.09231 -5.08199,2.09231l-0.613996 0c-1.64834,0 -2.33554,-0.377843 -3.02157,-0.756868 -0.428616,-0.236152 -0.856051,-0.471123 -1.8904,-0.471123l0 0.00472304c-1.48422,0 -2.23282,0.270394 -2.98142,0.539608 -0.952874,0.344782 -1.90457,0.688383 -3.77253,0.688383l0 -0.00472304 -1.22799 0 0 0.00472304c-2.26116,0 -2.62837,-0.948151 -3.14791,-2.28949 -0.024796,-0.0673034 -0.0519535,-0.135787 -0.079111,-0.205452 -3.53638,-0.246779 -3.89179,-1.65779 -4.36409,-3.5352 -0.23261,-0.924536 -0.511269,-2.02737 -1.85379,-3.08179 -0.168849,0.0495919 -0.308179,0.0956416 -0.436881,0.13933 -0.649418,0.218441 -1.11464,0.374301 -2.39694,0.374301 -1.30474,0 -4.15274,-1.82782 -6.65359,-3.88824 -2.61302,-2.15253 -4.96156,-4.70179 -4.96156,-5.88609 0,-2.88696 5.35357,-4.05709 8.12718,-4.66164 0.32589,-1.47123 0.981212,-1.89984 1.62591,-2.32256 0.348324,-0.227887 0.689564,-0.452231 0.689564,-2.2281l0 -1.21028 -0.211356 -11.6683 -0.0129884 -0.756868 0.680118 -0.324709 1.62355 -6.05966 2.64254 -0.0129884 -1.89512 -4.00278c0,-4.34874 -1.93291,-6.15294 -3.80087,-9.23473 -1.98368,-3.27425 -4.75492,-5.81643 -7.73989,-7.56868l-0.700191 0.939885 -0.342421 0.459316 -0.572669 0.0153499 -0.739156 0.0495919c-0.761591,1.19847 -1.63299,2.47605 -3.72176,2.47605 -1.90102,0 -5.1186,-2.63073 -8.38104,-6.00653 -4.16336,-4.3086 -8.58413,-9.92547 -10.1451,-12.4924l-6.08092 -0.680118 -5.44921 0.136968 -0.0271575 0.00472304c-0.41917,0 -1.41809,0.665949 -2.41702,1.33308 -1.30238,0.86904 -2.60476,1.7369 -3.72294,1.7369l0 -0.00472304 -0.613996 0 0 0.00472304c-1.01309,0 -2.6945,-0.345963 -4.39479,-0.799375 -2.1667,-0.578573 -4.42903,-1.34843 -5.32051,-1.77586l-0.826532 -0.396736 0.183018 -0.896197 0.312902 -1.53499 -0.798194 -0.330613 -0.734433 -0.304636 0.0129884 -0.798194c0.0059038,-0.425074 0.0602188,-0.843063 0.15586,-1.25633 0.788748,-3.38406 4.57663,-7.10582 8.99976,-9.93728 4.20587,-2.69213 9.05761,-4.63094 12.4606,-4.72422 -0.10863,-0.422712 -0.177114,-0.912728 -0.177114,-1.75933 0,-1.10401 1.63299,-2.59885 3.7808,-4.0689 3.05817,-2.09231 7.31717,-4.41723 8.57823,-4.98635 0.221983,-0.100365 0.451051,-0.20191 0.732072,-0.32589 1.68376,-0.742698 5.19653,-2.29422 5.55548,-2.6449 1.13117,-1.10519 1.02962,-2.13245 0.945789,-2.98024 -0.173572,-1.76051 -0.308179,-3.11721 2.77006,-3.93902l1.44289 -0.386109 0.0330613 1.49839c0.024796,1.10401 0.224345,1.94117 0.643515,2.46071 0.360132,0.445147 0.965862,0.68366 1.86796,0.68366 2.01438,0 5.97701,-3.30731 8.99858,-5.82823 1.27876,-1.06741 2.39812,-2.00139 3.24119,-2.56697l0.556138 -0.37194 0.603369 0.289286c0.256225,0.122799 0.387289,0.192464 0.499462,0.251502 0.350686,0.185379 0.469943,0.24796 1.44997,0.24796l0 -0.00472304 2.09703 -0.0200729c1.97541,-0.537246 1.41809,-3.07706 4.19052,-3.64619 3.37225,0 1.19139,-0.97767 2.66262,-1.62945l-2.56343 0.23261 -1.83372 0.166487 0.618719 -1.72981 1.83963 -5.14221 -0.281021 -0.0059038 -0.915089 -0.0200729 -0.206633 -0.886751c-0.100365,-0.428616 -0.191283,-0.701372 -0.271575,-0.938705 -0.218441,-0.650599 -0.374301,-1.11464 -0.374301,-2.39812 0,-1.07803 0.773398,-1.77704 1.51846,-2.28241 -0.288106,-0.623442 -0.650599,-1.42164 -0.93162,-2.07814 -0.335336,-0.782844 -0.586838,-1.47477 -0.586838,-1.78059l0.00354228 0c0,-1.2032 0.413266,-1.41927 0.965862,-1.70856 0.0519535,-0.0271575 0.122799,-0.0637611 0.212537,-0.924536l-0.223164 -0.224345 -0.344782 -0.344782 0 -0.482931 0 -1.35433 -0.269213 -0.269213 -0.511269 -0.511269 0.230248 -0.689564 0.613996 -1.84199 0.0920993 -0.276298 0.188922 -0.188922z"/>
   <polygon id="_115024728" class="fil1" points="729.046,106.846 729.063,99.949 727.622,96.9275 727.569,85.6441 727.304,80.026 736.909,92.9081 734.401,93.4466 738.476,98.6266 "/>
   <polygon id="_115024656" class="fil1" points="655.734,115.311 657.352,117.451 661.369,117.45 722.987,117.319 727.886,113.257 727.886,112.33 720.477,113.966 719.62,113.966 657.851,114.086 "/>
   <polygon id="_115024584" class="fil1" points="697.217,65.9785 683.722,106.423 687.844,103.867 699.496,67.4486 697.185,65.6101 "/>
   <path id="_115024512" class="fil1" d="M688.781 57.6223c-1.34134,-2.10293 -5.58736,-2.26116 -7.68675,-2.11238 -0.0259767,0.00236152 -0.00118076,0.029519 0,0l0.204272 -9.33982c0.00118076,-0.0425074 -0.0106268,0.0059038 0.024796,-0.00118076 2.93537,-0.635249 6.62171,-0.0366036 7.65723,2.33318l-0.199549 9.12019z"/>
   <path id="_115024440" class="fil1" d="M688.542 68.5691c-0.871401,-0.761591 -5.17645,-1.38267 -7.7021,-1.42636 -0.00944608,0 -0.00118076,0.0106268 0,0l0.23261 -10.6268c0.00472304,-0.218441 -0.185379,0.0342421 0.00708456,-0.00118076 2.96961,-0.54315 6.60872,-0.0649418 7.68793,1.77232l-0.225525 10.2821z"/>
   <path id="_115024368" class="fil1" d="M688.29 80.0485c-0.851328,-0.462858 -4.42903,-0.856051 -7.71391,-0.937524l0 0 0.246779 -11.2267c0,-0.0118076 -0.0106268,0 0,0 3.40531,0.0779302 6.83778,0.847786 7.69856,1.63535l-0.231429 10.5288z"/>
   <path id="_115024296" class="fil1" d="M688.013 92.7546c-0.968224,-0.468762 -4.47744,-0.748602 -7.71745,-0.794652 -0.0779302,-0.00118076 -0.00236152,0.088557 0,0l0.268033 -12.2504c0.303455,0 -1.88449,-0.0330613 0,0 1.88567,0.0330613 6.82834,0.460497 7.71509,0.941066l-0.265671 12.104z"/>
   <path id="_115024224" class="fil1" d="M687.774 103.642l0.226706 -10.3576c-0.890293,-0.358951 -5.78927,-0.582115 -7.71863,-0.616357 -0.203091,-0.00354228 0.00118076,-0.161764 0,0l-0.144053 10.6044 0 0 6.35958 0.309359 1.2764 0.0602188z"/>
   <path id="_115024152" class="fil1" d="M680.56 52.5438c-1.00483,-1.50075 -4.45147,-2.28713 -7.67731,-2.34735 -2.30839,-0.0413266 -4.5908,0.57503 -5.54013,0.766314l0.174753 -8.1933c0.173572,-0.291648 0.392013,-0.595103 0.66713,-0.905643 2.43473,-2.73936 10.8335,-3.13492 12.594,0.700191l-0.218441 9.97979z"/>
   <path id="_115024080" class="fil1" d="M680.298 64.5215c-1.00128,-0.833617 -5.41733,-1.51019 -8.31374,-1.56097 -2.89522,-0.0507727 -3.50568,0.0649418 -4.90252,0.253864 0.029519,-1.38621 -0.231429,-9.31502 0.390832,-10.0152 2.31429,-2.60476 11.1653,-3.02157 13.0722,0.0720264l-0.246779 11.2503z"/>
   <path id="_115024008" class="fil1" d="M680.022 77.0824c-0.97767,-0.507727 -4.10196,-0.926897 -7.86741,-1.02018l-0.00118076 -0.00118076 -0.0153499 0.00118076c-0.142872,-0.00354228 0.547873,0.00826532 -0.433339,-0.00944608 -0.981212,-0.0165306 -3.5045,0.0177114 -4.90016,0.127522l0.219621 -10.3151c1.32717,-1.39684 3.79378,-1.91756 5.10207,-2.10057 3.90359,0.0897378 7.16131,0.933982 8.14725,1.79712l-0.251502 11.5207z"/>
   <path id="_115023936" class="fil1" d="M679.718 90.9847c-1.59993,-0.739156 -8.70929,-1.0497 -13.2115,-0.789929l0.251502 -11.8123c1.0615,-0.933982 2.6449,-1.42518 3.87526,-1.67904 0.345963,0 -1.10283,-0.0283383 1.05796,0.00944608 2.16197,0.0377843 7.30064,0.500642 8.31728,1.02726l-0.290467 13.2446z"/>
   <path id="_115023864" class="fil1" d="M679.457 102.897l0.24796 -11.3318c-1.02254,-0.393193 -6.05022,-0.632888 -8.26296,-0.671853 -2.21275,-0.0377843 -0.937524,-0.0141691 -1.39212,-0.0177114 -1.19257,0.276298 -2.62483,0.772217 -3.59305,1.65425l-0.211356 9.90304 1.07449 0.208995 3.8233 0.0673034 1.84789 0.0318805 1.46178 -0.00118076 3.53992 0.0909186 1.46414 0.0661226z"/>
   <path id="_115023792" class="fil1" d="M666.595 47.4689c-1.20201,-1.63181 -8.87696,-2.55517 -12.7239,-2.62601 -2.75353,-0.0507727 -5.47401,0.615176 -6.60636,0.821809l0.125161 -9.2855c0.0779302,-0.498281 0.375482,-0.848967 0.703733,-1.18548 2.89759,-2.97197 16.631,-2.73582 18.7399,1.43344l-0.238514 10.8417z"/>
   <path id="_115023720" class="fil1" d="M666.309 60.4809c-1.19611,-0.906824 -10.027,-1.71092 -13.4807,-1.77232 -3.45372,-0.0602188 -4.18107,0.0637611 -5.84713,0.265671 0.0212537,-0.987116 0.129884,-5.11033 0.244417,-7.99257 0.059038,-1.50901 -0.054315,-2.62601 0.199549,-2.88696 1.03317,-1.06032 1.60465,-1.9636 5.8424,-2.45126 6.10453,-0.701372 11.8844,0.51245 13.3095,2.61538l-0.268033 12.2221z"/>
   <path id="_115023648" class="fil1" d="M666.009 74.1282c-1.16777,-0.553777 -8.45661,-1.07685 -12.9482,-1.18548l-0.00118076 -0.00118076 -0.0177114 0.00118076c-0.17121,-0.00472304 0.652961,0.0106268 -0.517173,-0.0106268 -1.17013,-0.0200729 -4.17871,0.0129884 -5.84358,0.128703l0.238514 -11.2054c1.57986,-1.5161 4.51995,-2.07696 6.07974,-2.27296 4.65574,0.103907 12.1052,1.08984 13.2847,2.02973l-0.275117 12.5161z"/>
   <path id="_115023576" class="fil1" d="M665.677 89.2324c-1.90929,-0.806459 -13.9519,-1.21973 -19.3208,-0.944608l0.273936 -12.8337c1.26341,-1.01427 3.15145,-1.54443 4.61677,-1.81719 0.413266,0.00118076 -1.31537,-0.0330613 1.26223,0.0118076 2.57878,0.0460497 12.2705,0.619899 13.4843,1.19375l-0.316444 14.3899z"/>
   <path id="_115023504" class="fil1" d="M655.752 115.334l2.67915 -0.577392 7.18257 -12.5893 0.0495919 -12.3059c-1.21973,-0.428616 -10.0707,-0.874944 -12.7097,-0.920993 -2.10293,-0.0366036 -4.83994,0.382566 -6.65004,1.88331l-0.101545 10.7036 19.1956 0.43452 -0.0106268 0.526619 -15.8836 -0.0673034c-3.08769,-0.0980031 -3.10304,0.0519535 -2.99559,0.665949l9.24417 12.2468z"/>
   <polygon id="_115023432" class="fil1" points="697.217,65.9785 658.436,107.489 662.097,107.871 699.336,67.4037 "/>
   <polygon id="_115023360" class="fil1" points="697.185,65.609 675.752,103.774 679.086,103.534 699.494,67.4486 "/>
   <path id="_115023288" class="fil1" d="M670.328 115.481l1.74162 0.00826532 7.25459 -12.3637 -11.5856 0.172391c-2.1785,-0.0814725 -5.7078,-0.545511 -5.63577,0.0720264l8.22518 12.1111z"/>
   <polygon id="_115023216" class="fil2" points="662.525,102.097 690.73,71.7076 690.647,73.01 663.472,102.099 "/>
   <polygon id="_115023144" class="fil2" points="675.393,102.916 688.391,80.1241 689,80.1831 676.232,102.917 "/>
   <polygon id="_115023072" class="fil2" points="683.921,103.758 688.522,89.6115 689.074,90.3801 684.611,103.757 "/>
   <polygon id="_115023000" class="fil1" points="679.98,116.012 681.542,116.053 687.844,103.867 676.628,103.882 672.78,103.857 "/>
   <polygon id="_115022928" class="fil1" points="722.826,66.8806 723.868,73.252 721.441,70.5457 706.499,70.8267 699.072,77.06 698.64,77.3044 706.336,69.3968 721.485,69.8951 723.868,73.252 722.826,66.8806 707.252,66.504 702.528,69.6413 699.323,67.3246 693.604,75.5651 695.049,83.0724 695.751,86.2971 695.75,93.9685 699.03,95.2059 698.729,92.1702 721.454,89.7402 723.883,93.3734 721.37,90.9422 701.356,92.4512 698.729,92.1702 699.03,95.2059 703.039,96.7031 708.041,96.879 708.434,101.662 711.548,101.691 713.888,96.8861 720.517,97.2073 723.107,99.3433 723.088,111.804 720.358,114.064 727.886,113.257 727.9,74.1175 "/>
  </g>
  <path class="fil3" d="M0 26.8977l0 -11.7214 72.233 0 0 11.7214 -27.7892 0 0 59.0038 -16.6499 0 0 -59.0038 -27.7939 0zm73.0749 59.0038l36.502 -70.7252 17.6736 0 36.4973 70.7252 -18.826 0 -7.30064 -14.8528 -38.4196 0 -7.29946 14.8528 -18.8272 0zm45.3365 -54.4579l-13.574 27.886 27.1504 0 -13.5764 -27.886zm86.7162 37.5848l24.718 -53.8521 18.6997 0 -34.3235 70.7252 -18.1849 0 -34.3235 -70.7252 18.6973 0 24.7169 53.8521zm104.891 16.8731l-18.7009 -26.4715 -14.7264 0 0 26.4715 -16.6475 0 0 -70.7252 33.6824 0c9.22056,0 16.84,2.02028 22.8583,6.06202 6.02188,4.04292 9.03046,9.39767 9.03046,16.0654 0,5.05011 -1.47241,9.09304 -4.41841,12.1229 -2.94718,3.03219 -7.10936,5.5909 -12.4865,7.68085l20.4897 28.794 -19.0811 0zm-33.4273 -59.0038l0 20.8133 17.2911 0c4.6947,0 8.36687,-0.910366 11.0141,-2.72874 2.64608,-1.81837 3.96854,-4.37826 3.96854,-7.67849 0,-3.30141 -1.32245,-5.86011 -3.96854,-7.67849 -2.64727,-1.81955 -6.31943,-2.72756 -11.0141,-2.72756l-17.2911 0zm68.9021 59.0038l0 -70.7252 16.6475 0 0 70.7252 -16.6475 0zm65.4413 0l-29.5828 0 0 -70.7252 29.5828 0c13.0639,0 23.7144,3.08179 31.9561,9.24536 8.23817,6.16357 12.3578,14.8693 12.3578,26.1172 0,11.2491 -4.11967,19.9549 -12.3578,26.1172 -8.24171,6.16239 -18.8922,9.24536 -31.9561,9.24536zm0.767494 -11.7214c8.02681,0 14.5175,-2.00257 19.466,-6.01007 4.95447,-4.0075 7.43053,-9.88533 7.43053,-17.6311 0,-7.74579 -2.47605,-13.6236 -7.43053,-17.6311 -4.94857,-4.0075 -11.4392,-6.01007 -19.466,-6.01007l-13.7027 0 0 47.2824 13.7027 0zm51.2285 11.7214l36.502 -70.7252 17.6736 0 36.4985 70.7252 -18.8272 0 -7.29828 -14.8528 -38.4208 0 -7.29828 14.8528 -18.8296 0zm45.3377 -54.4579l-13.5728 27.886 27.1504 0 -13.5776 -27.886z"/>
  <path class="fil2" d="M372.218 103.967l181.386 0 0 41.0397 -181.386 0 0 -41.0397zm11.4522 5.86484l17.7173 0c2.9519,0 5.22014,0.702553 6.79528,2.10057 1.58222,1.39802 2.37451,3.1302 2.37451,5.18944 0,1.73218 -0.564404,3.21875 -1.68967,4.46091 -0.756868,0.824171 -1.85497,1.47949 -3.30141,1.95652 2.19503,0.505366 3.81504,1.37795 4.85529,2.60594 1.03317,1.23389 1.55388,2.78187 1.55388,4.64393 0,1.52082 -0.369578,2.8846 -1.10401,4.09842 -0.742698,1.21382 -1.74753,2.16906 -3.03101,2.87869 -0.79111,0.435701 -1.9884,0.756868 -3.59305,0.954055 -2.13245,0.265671 -3.54464,0.402639 -4.24365,0.402639l-16.3335 0 0 -29.2911zm9.54645 11.4912l4.11377 0c1.47595,0 2.50321,-0.245598 3.08769,-0.72971 0.577392,-0.491196 0.861955,-1.19375 0.861955,-2.10766 0,-0.852509 -0.284563,-1.52082 -0.861955,-1.99785 -0.584476,-0.484112 -1.59048,-0.722625 -3.02393,-0.722625l-4.17753 0 0 5.55784zm0 11.5053l4.82695 0c1.63299,0 2.78187,-0.272756 3.44428,-0.825352 0.670672,-0.552596 1.00483,-1.29529 1.00483,-2.23046 0,-0.865498 -0.328251,-1.56097 -0.990658,-2.0864 -0.663587,-0.525438 -1.81837,-0.79111 -3.4797,-0.79111l-4.8057 0 0 5.93332zm23.6931 -22.9965l25.3545 0 0 6.25331 -15.8718 0 0 4.6581 14.7229 0 0 5.97465 -14.7229 0 0 5.7692 16.3346 0 0 6.63587 -25.8173 0 0 -29.2911zm28.7621 0l28.7633 0 0 7.2357 -9.65508 0 0 22.0554 -9.46025 0 0 -22.0554 -9.64799 0 0 -7.2357zm30.3881 14.6627c0,-4.7809 1.39802,-8.50502 4.17871,-11.1641 2.78778,-2.66734 6.66657,-3.99687 11.6364,-3.99687 5.09852,0 9.02573,1.30946 11.7852,3.92839 2.75235,2.61184 4.13502,6.28165 4.13502,10.9941 0,3.42302 -0.60573,6.23324 -1.81129,8.42237 -1.20438,2.18913 -2.94364,3.89415 -5.21896,5.11505 -2.28123,1.22091 -5.11151,1.82782 -8.5121,1.82782 -3.45136,0 -6.31117,-0.525438 -8.57704,-1.57632 -2.25998,-1.05678 -4.0937,-2.72047 -5.50471,-4.99816 -1.40511,-2.27769 -2.1112,-5.12922 -2.1112,-8.55225zm9.46852 0.0401459c0,2.96017 0.570307,5.08081 1.71801,6.37729 1.14888,1.28939 2.71693,1.93645 4.69234,1.93645 2.03209,0 3.60722,-0.634068 4.7195,-1.89512 1.11228,-1.26932 1.67668,-3.53992 1.67668,-6.81417 0,-2.7618 -0.585657,-4.77382 -1.74753,-6.04904 -1.16187,-1.26814 -2.737,-1.90221 -4.73485,-1.90221 -1.90339,0 -3.43601,0.641153 -4.5908,1.93645 -1.15596,1.28939 -1.73336,3.43011 -1.73336,6.41035zm27.4232 -14.7028l8.84154 0 11.5278 16.2036 0 -16.2036 8.92065 0 0 29.2911 -8.92065 0 -11.4711 -16.0808 0 16.0808 -8.89821 0 0 -29.2911z"/>
  <polygon class="fil4" points="27.7349,119.652 27.7349,105.074 39.1883,105.074 39.1883,119.652 36.9861,119.652 36.9861,106.865 29.9382,106.865 29.9382,119.652 "/>
  <path id="1" class="fil4" d="M42.799 119.652l0 -14.5789 5.39726 0c1.65897,0 2.98732,0.406182 3.98625,1.21854 0.997743,0.812363 1.4972,1.93291 1.4972,3.36281 0,1.4299 -0.499462,2.55162 -1.4972,3.36399 -0.998923,0.812363 -2.32728,1.21854 -3.98625,1.21854l-3.19396 0 0 5.41497 -2.2033 0zm2.2033 -12.7876l0 5.58146 3.15027 0c1.01191,0 1.81955,-0.236152 2.42174,-0.708456 0.602188,-0.472304 0.902101,-1.16659 0.902101,-2.08286 0,-0.91627 -0.299913,-1.61056 -0.902101,-2.08286 -0.602188,-0.471123 -1.40983,-0.707276 -2.42174,-0.707276l-3.15027 0z"/>
  <path id="12" class="fil4" d="M68.3141 106.813c1.32954,1.38149 1.9943,3.23174 1.9943,5.54957 0,2.31901 -0.664768,4.16927 -1.9943,5.55076 -1.32836,1.38149 -3.07116,2.07223 -5.23077,2.07223 -2.15843,0 -3.90123,-0.690745 -5.22959,-2.07223 -1.32836,-1.38149 -1.99312,-3.23174 -1.99312,-5.55076 0,-2.31783 0.664768,-4.16808 1.99312,-5.54957 1.32836,-1.38149 3.07116,-2.07342 5.22959,-2.07342 2.15961,0 3.90241,0.691926 5.23077,2.07342zm-1.64126 9.85109c0.897378,-1.02136 1.34371,-2.4548 1.34371,-4.30151 0,-1.84671 -0.446328,-3.28015 -1.34371,-4.30033 -0.895017,-1.02018 -2.09113,-1.53145 -3.58951,-1.53145 -1.4972,0 -2.6945,0.511269 -3.58951,1.53145 -0.895017,1.02018 -1.34371,2.45362 -1.34371,4.30033 0,1.84671 0.448689,3.28015 1.34371,4.30151 0.895017,1.02018 2.09231,1.53027 3.58951,1.53027 1.49839,0 2.6945,-0.510089 3.58951,-1.53027z"/>
  <polygon id="123" class="fil4" points="85.4162,105.074 85.4162,119.652 83.2129,119.652 83.2129,108.073 75.7694,119.652 73.3016,119.652 73.3016,105.074 75.5049,105.074 75.5049,116.653 82.9484,105.074 "/>
  <path id="1234" class="fil4" d="M90.745 109.134l-1.84907 -0.436881c0.190102,-1.22209 0.736795,-2.18677 1.64126,-2.89522 0.902101,-0.708456 1.96951,-1.06268 3.2034,-1.06268 1.43935,0 2.61302,0.337698 3.52339,1.01073 0.910366,0.673034 1.36614,1.60702 1.36614,2.80076 0,0.708456 -0.20191,1.35079 -0.60573,1.927 -0.402639,0.576211 -0.929259,1.01073 -1.57395,1.3012 0.851328,0.250321 1.52672,0.688383 2.02619,1.31301 0.498281,0.624622 0.747421,1.37441 0.747421,2.24935 0,1.34607 -0.477027,2.45716 -1.4299,3.33211 -0.955235,0.874944 -2.21747,1.31183 -3.78906,1.31183 -1.62945,0 -2.9212,-0.443966 -3.87644,-1.33308 -0.954055,-0.887932 -1.55624,-2.02028 -1.80538,-3.39469l2.00375 -0.479389c0.160583,1.0001 0.546692,1.83372 1.15596,2.49967 0.609272,0.66713 1.4358,1.0001 2.47842,1.0001 0.924536,0 1.6814,-0.250321 2.26824,-0.749783 0.588019,-0.500642 0.880847,-1.18076 0.880847,-2.04154 0,-0.887932 -0.319986,-1.55506 -0.957597,-1.99903 -0.638791,-0.443966 -1.46414,-0.66713 -2.47842,-0.66713l-0.440424 0 0 -1.74871 0.396736 0c0.851328,0 1.54562,-0.218441 2.08168,-0.656503 0.534885,-0.436881 0.804098,-1.01663 0.804098,-1.73926 0,-0.638791 -0.246779,-1.16895 -0.737975,-1.59285 -0.492377,-0.423893 -1.15596,-0.635249 -1.9943,-0.635249 -0.762771,0 -1.41219,0.243237 -1.94944,0.728529 -0.534885,0.486473 -0.898559,1.13943 -1.08984,1.9577z"/>
  <path id="12345" class="fil4" d="M102.483 119.652l0 -14.5789 6.4316 0c1.26223,0 2.3568,0.332974 3.28133,0.998923 0.925716,0.66713 1.38739,1.56923 1.38739,2.70748 0,1.40274 -0.652961,2.47842 -1.95888,3.2282 0.778121,0.27866 1.40156,0.715541 1.87151,1.31301 0.469943,0.596284 0.703733,1.31891 0.703733,2.16551 0,1.25043 -0.498281,2.25643 -1.4972,3.02039 -0.998923,0.763952 -2.18677,1.14534 -3.56826,1.14534l-6.65122 0zm2.2033 -6.54023l0 4.74902 4.44793 0c0.83834,0 1.52318,-0.204272 2.06043,-0.613996 0.536065,-0.409724 0.802917,-0.996562 0.802917,-1.76051 0,-0.763952 -0.266852,-1.34961 -0.802917,-1.75933 -0.537246,-0.409724 -1.22209,-0.615176 -2.06043,-0.615176l-4.44793 0zm0 -6.2474l0 4.45619 4.16218 0c0.734433,0 1.34016,-0.193645 1.81719,-0.582115 0.477027,-0.389651 0.716722,-0.937524 0.716722,-1.64598 0,-0.694287 -0.257406,-1.23862 -0.772217,-1.63535 -0.51245,-0.395555 -1.13707,-0.592742 -1.87151,-0.592742l-4.05237 0z"/>
  <path id="123456" class="fil4" d="M128.945 106.813c1.32954,1.38149 1.9943,3.23174 1.9943,5.54957 0,2.31901 -0.664768,4.16927 -1.9943,5.55076 -1.32836,1.38149 -3.07116,2.07223 -5.23077,2.07223 -2.15843,0 -3.90123,-0.690745 -5.22959,-2.07223 -1.32836,-1.38149 -1.99312,-3.23174 -1.99312,-5.55076 0,-2.31783 0.664768,-4.16808 1.99312,-5.54957 1.32836,-1.38149 3.07116,-2.07342 5.22959,-2.07342 2.15961,0 3.90241,0.691926 5.23077,2.07342zm-1.64126 9.85109c0.897378,-1.02136 1.34371,-2.4548 1.34371,-4.30151 0,-1.84671 -0.446328,-3.28015 -1.34371,-4.30033 -0.895017,-1.02018 -2.09113,-1.53145 -3.58951,-1.53145 -1.4972,0 -2.6945,0.511269 -3.58951,1.53145 -0.895017,1.02018 -1.34371,2.45362 -1.34371,4.30033 0,1.84671 0.448689,3.28015 1.34371,4.30151 0.895017,1.02018 2.09231,1.53027 3.58951,1.53027 1.49839,0 2.6945,-0.510089 3.58951,-1.53027z"/>
  <path id="1234567" class="fil4" d="M136.357 110.03l0 -4.95683 9.82275 0 0 12.7876 1.84907 0 0 4.08189 -2.2033 0 0 -2.29068 -10.5702 0 0 2.29068 -2.20212 0 0 -4.08189 1.32127 0c0.675395,-1.09693 1.17486,-2.25289 1.4972,-3.46789 0.322348,-1.215 0.485293,-2.6697 0.485293,-4.36291zm2.20212 0c0,2.99913 -0.595103,5.60979 -1.78413,7.8308l7.20146 0 0 -10.9964 -5.41733 0 0 3.16562z"/>
  <path id="12345678" class="fil4" d="M161.771 114.717l2.02619 0.436881c-0.381386,1.49957 -1.12408,2.68033 -2.22455,3.5411 -1.10165,0.860774 -2.48904,1.29057 -4.16336,1.29057 -2.15725,0 -3.9095,-0.694287 -5.25202,-2.08286 -1.34371,-1.38857 -2.01438,-3.23528 -2.01438,-5.54013 0,-2.29068 0.681299,-4.13384 2.04744,-5.5295 1.36614,-1.39566 3.1054,-2.09349 5.21896,-2.09349 1.66015,0 3.05109,0.400278 4.17399,1.19847 1.12408,0.798194 1.83254,1.91283 2.12537,3.34273l-2.136 0.374301c-0.27866,-0.998923 -0.781664,-1.76996 -1.50901,-2.31193 -0.726168,-0.540788 -1.61174,-0.812363 -2.65435,-0.812363 -1.4972,0 -2.7004,0.514812 -3.61077,1.54207 -0.910366,1.02726 -1.36614,2.45716 -1.36614,4.2897 0,1.83372 0.455774,3.26362 1.36614,4.29088 0.910366,1.02726 2.11356,1.54089 3.61077,1.54089 1.16069,0 2.10766,-0.304636 2.84209,-0.91627 0.734433,-0.610453 1.2398,-1.46414 1.51964,-2.56107z"/>
  <polygon id="123456789" class="fil4" points="165.206,106.865 165.206,105.074 177.099,105.074 177.099,106.865 172.254,106.865 172.254,119.652 170.052,119.652 170.052,106.865 "/>
  <path id="12345678910" class="fil4" d="M179.564 119.652l0 -14.5789 6.4316 0c1.26223,0 2.3568,0.332974 3.28133,0.998923 0.925716,0.66713 1.38739,1.56923 1.38739,2.70748 0,1.40274 -0.652961,2.47842 -1.95888,3.2282 0.778121,0.27866 1.40156,0.715541 1.87151,1.31301 0.469943,0.596284 0.703733,1.31891 0.703733,2.16551 0,1.25043 -0.498281,2.25643 -1.4972,3.02039 -0.998923,0.763952 -2.18677,1.14534 -3.56826,1.14534l-6.65122 0zm2.2033 -6.54023l0 4.74902 4.44793 0c0.83834,0 1.52318,-0.204272 2.06043,-0.613996 0.536065,-0.409724 0.802917,-0.996562 0.802917,-1.76051 0,-0.763952 -0.266852,-1.34961 -0.802917,-1.75933 -0.537246,-0.409724 -1.22209,-0.615176 -2.06043,-0.615176l-4.44793 0zm0 -6.2474l0 4.45619 4.16218 0c0.734433,0 1.34016,-0.193645 1.81719,-0.582115 0.477027,-0.389651 0.716722,-0.937524 0.716722,-1.64598 0,-0.694287 -0.257406,-1.23862 -0.772217,-1.63535 -0.51245,-0.395555 -1.13707,-0.592742 -1.87151,-0.592742l-4.05237 0z"/>
  <path id="1234567891011" class="fil4" d="M206.026 106.813c1.32954,1.38149 1.9943,3.23174 1.9943,5.54957 0,2.31901 -0.664768,4.16927 -1.9943,5.55076 -1.32836,1.38149 -3.07116,2.07223 -5.23077,2.07223 -2.15843,0 -3.90123,-0.690745 -5.22959,-2.07223 -1.32836,-1.38149 -1.99312,-3.23174 -1.99312,-5.55076 0,-2.31783 0.664768,-4.16808 1.99312,-5.54957 1.32836,-1.38149 3.07116,-2.07342 5.22959,-2.07342 2.15961,0 3.90241,0.691926 5.23077,2.07342zm-1.64126 9.85109c0.897378,-1.02136 1.34371,-2.4548 1.34371,-4.30151 0,-1.84671 -0.446328,-3.28015 -1.34371,-4.30033 -0.895017,-1.02018 -2.09113,-1.53145 -3.58951,-1.53145 -1.4972,0 -2.6945,0.511269 -3.58951,1.53145 -0.895017,1.02018 -1.34371,2.45362 -1.34371,4.30033 0,1.84671 0.448689,3.28015 1.34371,4.30151 0.895017,1.02018 2.09231,1.53027 3.58951,1.53027 1.49839,0 2.6945,-0.510089 3.58951,-1.53027z"/>
  <polygon id="123456789101112" class="fil4" points="228.48,105.074 228.48,119.652 226.276,119.652 226.276,108.073 218.833,119.652 216.365,119.652 216.365,105.074 218.568,105.074 218.568,116.653 226.012,105.074 "/>
  <path id="12345678910111213" class="fil4" d="M239.866 110.03l0 -4.95683 9.82275 0 0 12.7876 1.84907 0 0 4.08189 -2.2033 0 0 -2.29068 -10.5702 0 0 2.29068 -2.20212 0 0 -4.08189 1.32127 0c0.675395,-1.09693 1.17486,-2.25289 1.4972,-3.46789 0.322348,-1.215 0.485293,-2.6697 0.485293,-4.36291zm2.20212 0c0,2.99913 -0.595103,5.60979 -1.78413,7.8308l7.20146 0 0 -10.9964 -5.41733 0 0 3.16562z"/>
  <path id="1234567891011121314" class="fil4" d="M266.106 106.813c1.32954,1.38149 1.9943,3.23174 1.9943,5.54957 0,2.31901 -0.664768,4.16927 -1.9943,5.55076 -1.32836,1.38149 -3.07116,2.07223 -5.23077,2.07223 -2.15843,0 -3.90123,-0.690745 -5.22959,-2.07223 -1.32836,-1.38149 -1.99312,-3.23174 -1.99312,-5.55076 0,-2.31783 0.664768,-4.16808 1.99312,-5.54957 1.32836,-1.38149 3.07116,-2.07342 5.22959,-2.07342 2.15961,0 3.90241,0.691926 5.23077,2.07342zm-1.64126 9.85109c0.897378,-1.02136 1.34371,-2.4548 1.34371,-4.30151 0,-1.84671 -0.446328,-3.28015 -1.34371,-4.30033 -0.895017,-1.02018 -2.09113,-1.53145 -3.58951,-1.53145 -1.4972,0 -2.6945,0.511269 -3.58951,1.53145 -0.895017,1.02018 -1.34371,2.45362 -1.34371,4.30033 0,1.84671 0.448689,3.28015 1.34371,4.30151 0.895017,1.02018 2.09231,1.53027 3.58951,1.53027 1.49839,0 2.6945,-0.510089 3.58951,-1.53027z"/>
  <path id="123456789101112131415" class="fil4" d="M282.106 114.717l2.02619 0.436881c-0.381386,1.49957 -1.12408,2.68033 -2.22455,3.5411 -1.10165,0.860774 -2.48904,1.29057 -4.16336,1.29057 -2.15725,0 -3.9095,-0.694287 -5.25202,-2.08286 -1.34371,-1.38857 -2.01438,-3.23528 -2.01438,-5.54013 0,-2.29068 0.681299,-4.13384 2.04744,-5.5295 1.36614,-1.39566 3.1054,-2.09349 5.21896,-2.09349 1.66015,0 3.05109,0.400278 4.17399,1.19847 1.12408,0.798194 1.83254,1.91283 2.12537,3.34273l-2.136 0.374301c-0.27866,-0.998923 -0.781664,-1.76996 -1.50901,-2.31193 -0.726168,-0.540788 -1.61174,-0.812363 -2.65435,-0.812363 -1.4972,0 -2.7004,0.514812 -3.61077,1.54207 -0.910366,1.02726 -1.36614,2.45716 -1.36614,4.2897 0,1.83372 0.455774,3.26362 1.36614,4.29088 0.910366,1.02726 2.11356,1.54089 3.61077,1.54089 1.16069,0 2.10766,-0.304636 2.84209,-0.91627 0.734433,-0.610453 1.2398,-1.46414 1.51964,-2.56107z"/>
  <polygon id="12345678910111213141516" class="fil4" points="285.541,106.865 285.541,105.074 297.434,105.074 297.434,106.865 292.589,106.865 292.589,119.652 290.387,119.652 290.387,106.865 "/>
  <path id="1234567891011121314151617" class="fil4" d="M298.313 119.652l6.21198 -14.5789 2.33318 0 6.21198 14.5789 -2.29068 0 -1.38739 -3.37461 -7.39983 0 -1.38739 3.37461 -2.29186 0zm7.37857 -12.372l-2.97316 7.20736 5.94749 0 -2.97434 -7.20736z"/>
  <path id="123456789101112131415161718" class="fil4" d="M315.095 119.652l0 -14.5789 6.4316 0c1.26223,0 2.3568,0.332974 3.28133,0.998923 0.925716,0.66713 1.38739,1.56923 1.38739,2.70748 0,1.40274 -0.652961,2.47842 -1.95888,3.2282 0.778121,0.27866 1.40156,0.715541 1.87151,1.31301 0.469943,0.596284 0.703733,1.31891 0.703733,2.16551 0,1.25043 -0.498281,2.25643 -1.4972,3.02039 -0.998923,0.763952 -2.18677,1.14534 -3.56826,1.14534l-6.65122 0zm2.2033 -6.54023l0 4.74902 4.44793 0c0.83834,0 1.52318,-0.204272 2.06043,-0.613996 0.536065,-0.409724 0.802917,-0.996562 0.802917,-1.76051 0,-0.763952 -0.266852,-1.34961 -0.802917,-1.75933 -0.537246,-0.409724 -1.22209,-0.615176 -2.06043,-0.615176l-4.44793 0zm0 -6.2474l0 4.45619 4.16218 0c0.734433,0 1.34016,-0.193645 1.81719,-0.582115 0.477027,-0.389651 0.716722,-0.937524 0.716722,-1.64598 0,-0.694287 -0.257406,-1.23862 -0.772217,-1.63535 -0.51245,-0.395555 -1.13707,-0.592742 -1.87151,-0.592742l-4.05237 0z"/>
  <polygon id="12345678910111213141516171819" class="fil4" points="329.719,119.652 329.719,105.074 331.922,105.074 331.922,111.384 337.561,105.074 340.226,105.074 333.992,111.967 340.798,119.652 338.001,119.652 331.922,112.8 331.922,119.652 "/>
  <path id="1234567891011121314151617181920" class="fil4" d="M341.237 119.652l6.21198 -14.5789 2.33318 0 6.21198 14.5789 -2.29068 0 -1.38739 -3.37461 -7.39983 0 -1.38739 3.37461 -2.29186 0zm7.37857 -12.372l-2.97316 7.20736 5.94749 0 -2.97434 -7.20736z"/>
  <path id="123456789101112131415161718192021" class="fil4" d="M29.9382 137.356l0 4.74902 4.44793 0c0.83834,0 1.52318,-0.204272 2.06043,-0.613996 0.536065,-0.409724 0.802917,-0.996562 0.802917,-1.76051 0,-0.763952 -0.266852,-1.34961 -0.802917,-1.75933 -0.537246,-0.409724 -1.22209,-0.615176 -2.06043,-0.615176l-4.44793 0zm4.44793 -1.79121c1.38149,0 2.56934,0.382566 3.56826,1.14652 0.998923,0.762771 1.4972,1.76996 1.4972,3.0192 0,1.25043 -0.498281,2.25643 -1.4972,3.02039 -0.998923,0.763952 -2.18677,1.14534 -3.56826,1.14534l-6.65122 0 0 -14.5789 10.3966 0 0 1.79121 -8.1933 0 0 4.45619 4.44793 0z"/>
  <polygon id="12345678910111213141516171819202122" class="fil4" points="42.3586,143.896 42.3586,129.317 52.094,129.317 52.094,131.108 44.5619,131.108 44.5619,135.648 51.5213,135.648 51.5213,137.439 44.5619,137.439 44.5619,142.105 52.2699,142.105 52.2699,143.896 "/>
  <polygon id="1234567891011121314151617181920212223" class="fil4" points="54.165,131.108 54.165,129.317 66.0577,129.317 66.0577,131.108 61.213,131.108 61.213,143.896 59.0109,143.896 59.0109,131.108 "/>
  <path id="123456789101112131415161718192021222324" class="fil4" d="M80.3602 131.056c1.32954,1.38149 1.9943,3.23174 1.9943,5.54957 0,2.31901 -0.664768,4.16927 -1.9943,5.55076 -1.32836,1.38149 -3.07116,2.07223 -5.23077,2.07223 -2.15843,0 -3.90123,-0.690745 -5.22959,-2.07223 -1.32836,-1.38149 -1.99312,-3.23174 -1.99312,-5.55076 0,-2.31783 0.664768,-4.16808 1.99312,-5.54957 1.32836,-1.38149 3.07116,-2.07342 5.22959,-2.07342 2.15961,0 3.90241,0.691926 5.23077,2.07342zm-1.64126 9.85109c0.897378,-1.02136 1.34371,-2.4548 1.34371,-4.30151 0,-1.84671 -0.446328,-3.28015 -1.34371,-4.30033 -0.895017,-1.02018 -2.09113,-1.53145 -3.58951,-1.53145 -1.4972,0 -2.6945,0.511269 -3.58951,1.53145 -0.895017,1.02018 -1.34371,2.45362 -1.34371,4.30033 0,1.84671 0.448689,3.28015 1.34371,4.30151 0.895017,1.02018 2.09231,1.53027 3.58951,1.53027 1.49839,0 2.6945,-0.510089 3.58951,-1.53027z"/>
  <polygon id="12345678910111213141516171819202122232425" class="fil4" points="85.3489,143.896 85.3489,129.317 87.5522,129.317 87.5522,135.648 94.6002,135.648 94.6002,129.317 96.8023,129.317 96.8023,143.896 94.6002,143.896 94.6002,137.439 87.5522,137.439 87.5522,143.896 "/>
  <polygon id="1234567891011121314151617181920212223242526" class="fil4" points="100.413,143.896 100.413,129.317 102.616,129.317 102.616,135.648 109.664,135.648 109.664,129.317 111.866,129.317 111.866,143.896 109.664,143.896 109.664,137.439 102.616,137.439 102.616,143.896 "/>
  <path id="123456789101112131415161718192021222324252627" class="fil4" d="M117.681 137.356l0 4.74902 4.44793 0c0.83834,0 1.52318,-0.204272 2.06043,-0.613996 0.536065,-0.409724 0.802917,-0.996562 0.802917,-1.76051 0,-0.763952 -0.266852,-1.34961 -0.802917,-1.75933 -0.537246,-0.409724 -1.22209,-0.615176 -2.06043,-0.615176l-4.44793 0zm-2.2033 -8.03862l2.2033 0 0 6.2474 4.44793 0c1.38149,0 2.56934,0.382566 3.56826,1.14652 0.998923,0.762771 1.4972,1.76996 1.4972,3.0192 0,1.25043 -0.498281,2.25643 -1.4972,3.02039 -0.998923,0.763952 -2.18677,1.14534 -3.56826,1.14534l-6.65122 0 0 -14.5789zm13.3686 14.5789l0 -14.5789 2.2033 0 0 14.5789 -2.2033 0z"/>
  <polygon id="12345678910111213141516171819202122232425262728" class="fil4" points="136.357,129.317 139.682,134.44 143.008,129.317 145.453,129.317 140.893,136.19 146.025,143.896 143.559,143.896 139.682,138.023 135.806,143.896 133.339,143.896 138.471,136.19 133.912,129.317 "/>
  <path id="1234567891011121314151617181920212223242526272829" class="fil4" d="M164.679 138.96l2.02619 0.436881c-0.381386,1.49957 -1.12408,2.68033 -2.22455,3.5411 -1.10165,0.860774 -2.48904,1.29057 -4.16336,1.29057 -2.15725,0 -3.9095,-0.694287 -5.25202,-2.08286 -1.34371,-1.38857 -2.01438,-3.23528 -2.01438,-5.54013 0,-2.29068 0.681299,-4.13384 2.04744,-5.5295 1.36614,-1.39566 3.1054,-2.09349 5.21896,-2.09349 1.66015,0 3.05109,0.400278 4.17399,1.19847 1.12408,0.798194 1.83254,1.91283 2.12537,3.34273l-2.136 0.374301c-0.27866,-0.998923 -0.781664,-1.76996 -1.50901,-2.31193 -0.726168,-0.540788 -1.61174,-0.812363 -2.65435,-0.812363 -1.4972,0 -2.7004,0.514812 -3.61077,1.54207 -0.910366,1.02726 -1.36614,2.45716 -1.36614,4.2897 0,1.83372 0.455774,3.26362 1.36614,4.29088 0.910366,1.02726 2.11356,1.54089 3.61077,1.54089 1.16069,0 2.10766,-0.304636 2.84209,-0.91627 0.734433,-0.610453 1.2398,-1.46414 1.51964,-2.56107z"/>
  <polygon id="123456789101112131415161718192021222324252627282930" class="fil4" points="169.258,143.896 169.258,129.317 171.726,129.317 176.858,142.001 181.989,129.317 184.455,129.317 184.455,143.896 182.253,143.896 182.253,133.44 178.026,143.896 175.69,143.896 171.462,133.44 171.462,143.896 "/>
  <polygon id="12345678910111213141516171819202122232425262728293031" class="fil4" points="188.067,143.896 188.067,129.317 197.802,129.317 197.802,131.108 190.27,131.108 190.27,135.648 197.23,135.648 197.23,137.439 190.27,137.439 190.27,142.105 197.978,142.105 197.978,143.896 "/>
  <path id="1234567891011121314151617181920212223242526272829303132" class="fil4" d="M212.03 138.96l2.02619 0.436881c-0.381386,1.49957 -1.12408,2.68033 -2.22455,3.5411 -1.10165,0.860774 -2.48904,1.29057 -4.16336,1.29057 -2.15725,0 -3.9095,-0.694287 -5.25202,-2.08286 -1.34371,-1.38857 -2.01438,-3.23528 -2.01438,-5.54013 0,-2.29068 0.681299,-4.13384 2.04744,-5.5295 1.36614,-1.39566 3.1054,-2.09349 5.21896,-2.09349 1.66015,0 3.05109,0.400278 4.17399,1.19847 1.12408,0.798194 1.83254,1.91283 2.12537,3.34273l-2.136 0.374301c-0.27866,-0.998923 -0.781664,-1.76996 -1.50901,-2.31193 -0.726168,-0.540788 -1.61174,-0.812363 -2.65435,-0.812363 -1.4972,0 -2.7004,0.514812 -3.61077,1.54207 -0.910366,1.02726 -1.36614,2.45716 -1.36614,4.2897 0,1.83372 0.455774,3.26362 1.36614,4.29088 0.910366,1.02726 2.11356,1.54089 3.61077,1.54089 1.16069,0 2.10766,-0.304636 2.84209,-0.91627 0.734433,-0.610453 1.2398,-1.46414 1.51964,-2.56107z"/>
  <polygon id="123456789101112131415161718192021222324252627282930313233" class="fil4" points="216.609,143.896 216.609,129.317 226.345,129.317 226.345,131.108 218.813,131.108 218.813,135.648 225.772,135.648 225.772,137.439 218.813,137.439 218.813,142.105 226.521,142.105 226.521,143.896 "/>
  <path id="12345678910111213141516171819202122232425262728293031323334" class="fil4" d="M241.675 143.896l0 -14.5789 -2.46779 0 -7.44351 11.5797 0 -11.5797 -2.2033 0 0 14.5789 2.46779 0 7.44351 -11.5797 0 11.5797 2.2033 0zm-4.12912 -16.631c-0.464039,0.423893 -1.10519,0.635249 -1.92818,0.635249 -0.821809,0 -1.46414,-0.211356 -1.927,-0.635249 -0.462858,-0.422712 -0.694287,-1.0308 -0.694287,-1.82191l1.58576 0c0,0.77694 0.344782,1.16659 1.03553,1.16659 0.690745,0 1.03553,-0.389651 1.03553,-1.16659l1.58458 0c0,0.79111 -0.230248,1.3992 -0.691926,1.82191z"/>
 </g>
</svg>
