<?xml version="1.0" encoding="UTF-8"?>
<!DOCTYPE svg PUBLIC "-//W3C//DTD SVG 1.1//EN" "http://www.w3.org/Graphics/SVG/1.1/DTD/svg11.dtd">
<!-- Creator: CorelDRAW -->
<svg xmlns="http://www.w3.org/2000/svg" xml:space="preserve" width="513px" height="110px" style="shape-rendering:geometricPrecision; text-rendering:geometricPrecision; image-rendering:optimizeQuality; fill-rule:evenodd; clip-rule:evenodd"
viewBox="0 0 513 115.714"
 xmlns:xlink="http://www.w3.org/1999/xlink">
 <defs>
  <style type="text/css">
   <![CDATA[
    .fil8 {fill:#72706F}
    .fil1 {fill:#838281}
    .fil5 {fill:#969594}
    .fil4 {fill:white}
    .fil6 {fill:black;fill-rule:nonzero}
    .fil2 {fill:#1F1A17;fill-rule:nonzero}
    .fil7 {fill:#838281;fill-rule:nonzero}
    .fil3 {fill:#969594;fill-rule:nonzero}
    .fil0 {fill:#BA1A20;fill-rule:nonzero}
   ]]>
  </style>
 </defs>
 <g id="Слой_x0020_1">
  <metadata id="CorelCorpID_0Corel-Layer"/>
  <polygon class="fil0" points="832.266,-200.141 832.266,-207.529 888.289,-207.529 888.289,-200.141 865.464,-200.141 865.464,-147.396 855.091,-147.396 855.091,-200.141 "/>
  <path id="_1" class="fil0" d="M875.841 -147.396l29.2583 -60.1331 10.9976 0 29.2581 60.1331 -10.7902 0 -6.53638 -13.9167 -34.8605 0 -6.53666 13.9167 -10.7902 0 -0.000144642 0zm34.7566 -51.0274l-14.0061 29.7231 28.013 0 -14.0068 -29.7231z"/>
  <polygon id="_12" class="fil0" points="960.502,-147.396 932.385,-207.529 943.487,-207.529 966.001,-157.017 988.514,-207.529 999.617,-207.529 971.499,-147.396 "/>
  <path id="_123" class="fil0" d="M1051.08 -147.396l-15.7705 -23.3661 -15.2515 0 0 23.3661 -10.375 0 0 -60.1331 25.9379 0c7.33191,0 13.3839,1.66049 18.1563,4.9822 4.77247,3.32171 7.15906,7.78883 7.15906,13.4011 0,4.12331 -1.29686,7.63117 -3.89044,10.5234 -2.5943,2.89197 -6.13904,5.0253 -10.6347,6.39969l16.8076 24.8265 -12.1389 0 0.000144642 0.000144642zm-31.0218 -52.7452l0 21.9915 15.7705 0c4.35749,0 7.90237,-0.944947 10.6342,-2.83498 2.73229,-1.89004 4.09829,-4.61003 4.09829,-8.16099 0,-3.55053 -1.366,-6.27096 -4.09829,-8.16099 -2.732,-1.89004 -6.27674,-2.8347 -10.6342,-2.8347l-15.7705 0 0 0.000144642z"/>
  <polygon id="_1234" class="fil0" points="1077.74,-147.396 1077.74,-207.529 1088.12,-207.529 1088.12,-147.396 "/>
  <path id="_12345" class="fil0" d="M1105.13 -147.396l0 -60.1331 22.099 0c10.3753,0 18.8657,2.66286 25.4709,7.98902 6.60551,5.32601 9.90856,12.6853 9.90856,22.0773 0,9.39233 -3.30305,16.7513 -9.90856,22.0776 -6.60522,5.32601 -15.0956,7.98902 -25.4709,7.98902l-22.099 0 0 0.000144642zm22.0988 -52.7452l-11.724 0 0 45.3576 11.724 0c7.60846,0 13.6089,-1.90421 18.001,-5.71264 4.3922,-3.80843 6.58816,-9.46393 6.58816,-16.9662 0,-7.50229 -2.1961,-13.1578 -6.58816,-16.9662 -4.3922,-3.80814 -10.3927,-5.71235 -18.001,-5.71235l0 -0.000144642z"/>
  <path id="_123456" class="fil0" d="M1169.25 -147.396l29.2583 -60.1331 10.9976 0 29.2581 60.1331 -10.7902 0 -6.53638 -13.9167 -34.8605 0 -6.53666 13.9167 -10.7902 0 -0.000144642 0zm34.7568 -51.0274l-14.0061 29.7231 28.013 0 -14.0068 -29.7231z"/>
  <path class="fil1" d="M645.473 -272.811l130.795 0 0 31.931 -130.795 0 0 -31.931zm7.58951 6.38045l12.9497 0c2.15748,0 3.81465,0.459672 4.96629,1.37511 1.15685,0.91515 1.73542,2.049 1.73542,3.39735 0,1.13385 -0.411507,2.10729 -1.23481,2.91974 -0.552822,0.539949 -1.35515,0.968668 -2.41335,1.28124 1.60524,0.330507 2.78827,0.901554 3.54923,1.70533 0.755466,0.808115 1.13587,1.82148 1.13587,3.04038 0,0.995571 -0.27077,1.8883 -0.807392,2.68311 -0.542263,0.794519 -1.2769,1.41952 -2.21505,1.88396 -0.578279,0.285668 -1.45409,0.495544 -2.62627,0.624998 -1.55852,0.174149 -2.58996,0.263393 -3.10069,0.263393l-11.9389 0 0 -19.1745 0 -0.000144642zm6.97768 7.5224l3.00711 0c1.0786,0 1.829,-0.160697 2.25642,-0.477608 0.422066,-0.321395 0.630061,-0.781356 0.630061,-1.3796 0,-0.557884 -0.20814,-0.995571 -0.630061,-1.308 -0.427417,-0.316911 -1.1622,-0.473124 -2.20999,-0.473124l-3.05354 0 0 3.63833zm0 7.53151l3.52811 0c1.19315,0 2.03208,-0.178633 2.51677,-0.540238 0.489758,-0.361605 0.735216,-0.848036 0.735216,-1.45987 0,-0.566708 -0.239961,-1.02233 -0.724657,-1.366 -0.484406,-0.34367 -1.32868,-0.517963 -2.5431,-0.517963l-3.5122 0 0 3.88407 -0.000144642 0zm17.317 -15.0539l18.5308 0 0 4.0938 -11.6003 0 0 3.0492 10.7614 0 0 3.91083 -10.7614 0 0 3.7766 11.9392 0 0 4.34404 -18.8697 0 0 -19.1745zm21.0221 0l21.0218 0 0 4.73645 -7.05593 0 0 14.438 -6.91534 0 0 -14.438 -7.05058 0 0 -4.73645zm22.2105 9.59845c0,-3.12948 1.02132,-5.56727 3.05354,-7.30819 2.03772,-1.74554 4.87241,-2.61643 8.50466,-2.61643 3.72612,0 6.59741,0.857149 8.61416,2.57159 2.01168,1.70967 3.02244,4.11174 3.02244,7.19667 0,2.24108 -0.442605,4.08035 -1.32362,5.51332 -0.880581,1.43311 -2.15227,2.54932 -3.81421,3.34846 -1.66801,0.798858 -3.73668,1.19619 -6.2225,1.19619 -2.52241,0 -4.61177,-0.34367 -6.26922,-1.03115 -1.65167,-0.692112 -2.9912,-1.78112 -4.02307,-3.27253 -1.02638,-1.49112 -1.54217,-3.357 -1.54217,-5.59808l0 0.000144642zm6.9204 0.0267588c0,1.93748 0.416858,3.32576 1.25578,4.17423 0.839213,0.843697 1.98521,1.26808 3.42917,1.26808 1.48533,0 2.63668,-0.415267 3.44957,-1.24117 0.813178,-0.83039 1.22468,-2.31702 1.22468,-4.45989 0,-1.80803 -0.427417,-3.12514 -1.2769,-3.96001 -0.849483,-0.83039 -2.00083,-1.24566 -3.45998,-1.24566 -1.39146,0 -2.512,0.419607 -3.35627,1.26808 -0.843986,0.843697 -1.26605,2.24557 -1.26605,4.19664l0 -0.000289284zm20.0422 -9.62521l6.46174 0 8.4267 10.6075 0 -10.6075 6.51902 0 0 19.1745 -6.51902 0 -8.38505 -10.5272 0 10.5272 -6.50354 0 0 -19.1745 0.000144642 0z"/>
  <polygon class="fil2" points="855.285,-120.256 855.285,-128.816 863.261,-128.816 863.261,-120.256 861.729,-120.256 861.729,-127.765 856.82,-127.765 856.82,-120.256 "/>
  <path id="_1_0" class="fil2" d="M865.776 -120.256l0 -8.56093 3.75766 0c1.15583,0 2.08082,0.238659 2.7764,0.715544 0.69515,0.476885 1.04301,1.13544 1.04301,1.97509 0,0.839936 -0.34772,1.4982 -1.04301,1.97509 -0.695584,0.476885 -1.62057,0.715544 -2.7764,0.715544l-2.22387 0 0 3.17967 -1.53378 0zm1.53378 -7.50909l0 3.27759 2.19306 0c0.705709,0 1.26837,-0.138567 1.68725,-0.415846 0.419317,-0.277279 0.629048,-0.684736 0.629048,-1.22295 0,-0.537924 -0.209876,-0.94567 -0.629048,-1.22295 -0.418883,-0.277279 -0.981541,-0.415846 -1.68725,-0.415846l-2.19306 0z"/>
  <path id="_12_1" class="fil2" d="M883.545 -127.795c0.925275,0.811153 1.38827,1.89785 1.38827,3.25936 0,1.36152 -0.462999,2.44792 -1.38827,3.25908 -0.925275,0.811442 -2.1394,1.21687 -3.64267,1.21687 -1.50327,0 -2.7171,-0.405432 -3.64267,-1.21687 -0.925275,-0.811153 -1.38827,-1.89741 -1.38827,-3.25908 0,-1.36152 0.462999,-2.44821 1.38827,-3.25936 0.925709,-0.811153 2.1394,-1.21687 3.64267,-1.21687 1.50327,0 2.71739,0.405721 3.64267,1.21687zm-1.14267 5.78453c0.623697,-0.599252 0.935545,-1.44092 0.935545,-2.52516 0,-1.08467 -0.311848,-1.9262 -0.935545,-2.5256 -0.623697,-0.599252 -1.45712,-0.89895 -2.50014,-0.89895 -1.0433,0 -1.87644,0.299698 -2.50014,0.89895 -0.623986,0.599252 -0.935545,1.44092 -0.935545,2.5256 0,1.08424 0.311559,1.92591 0.935545,2.52516 0.623697,0.599252 1.45683,0.89895 2.50014,0.89895 1.04301,0 1.87644,-0.299698 2.50014,-0.89895z"/>
  <polygon id="_123_2" class="fil2" points="895.457,-128.816 895.457,-120.256 893.922,-120.256 893.922,-127.055 888.738,-120.256 887.021,-120.256 887.021,-128.816 888.555,-128.816 888.555,-122.017 893.739,-128.816 "/>
  <path id="_1234_3" class="fil2" d="M899.169 -126.431l-1.28833 -0.256884c0.132926,-0.71728 0.513913,-1.28399 1.14267,-1.69983 0.629048,-0.415846 1.3728,-0.623697 2.23168,-0.623697 1.00222,0 1.82047,0.197581 2.45429,0.593177 0.633822,0.395596 0.950732,0.943645 0.950732,1.64487 0,0.415846 -0.140737,0.792783 -0.421632,1.1311 -0.281329,0.338607 -0.647129,0.593177 -1.09682,0.764289 0.593177,0.146812 1.0637,0.403696 1.41113,0.770508 0.34772,0.367102 0.521579,0.807392 0.521579,1.32087 0,0.790758 -0.332532,1.44324 -0.996873,1.95672 -0.665064,0.513913 -1.54391,0.770508 -2.63813,0.770508 -1.13515,0 -2.03511,-0.260645 -2.69945,-0.782658 -0.665064,-0.521579 -1.08424,-1.18635 -1.25781,-1.99331l1.39551 -0.281329c0.112532,0.587102 0.380987,1.07614 0.805656,1.46768 0.424091,0.391112 0.999187,0.587102 1.72529,0.587102 0.643946,0 1.17073,-0.146812 1.57993,-0.44029 0.408758,-0.293479 0.613138,-0.693125 0.613138,-1.1985 0,-0.522013 -0.222026,-0.913125 -0.666655,-1.17406 -0.445064,-0.260934 -1.02031,-0.391546 -1.72558,-0.391546l-0.306786 0 0 -1.02696 0.276266 0c0.592888,0 1.07585,-0.128442 1.44902,-0.385326 0.373177,-0.256884 0.559909,-0.597227 0.559909,-1.02132 0,-0.374912 -0.171545,-0.686761 -0.513913,-0.935545 -0.342368,-0.248784 -0.805367,-0.372887 -1.38799,-0.372887 -0.531849,0 -0.984289,0.142762 -1.35747,0.427707 -0.373177,0.285379 -0.626011,0.66868 -0.759226,1.14976l-0.000144642 -0.000144642z"/>
  <path id="_12345_4" class="fil2" d="M907.342 -120.256l0 -8.56093 4.47855 0c0.879568,0 1.64125,0.195845 2.2852,0.587102 0.64438,0.391546 0.966354,0.921225 0.966354,1.59005 0,0.823303 -0.454899,1.4551 -1.36499,1.89539 0.541974,0.163012 0.976479,0.419896 1.30366,0.770508 0.32747,0.350757 0.491204,0.774848 0.491204,1.27213 0,0.733769 -0.34772,1.32492 -1.0433,1.77346 -0.69486,0.44839 -1.52351,0.672441 -2.48481,0.672441l-4.63173 0 -0.000144642 -0.000144642zm1.53378 -3.83996l0 2.78827 3.09809 0c0.583052,0 1.06124,-0.120342 1.43442,-0.360593 0.373177,-0.240684 0.559909,-0.585077 0.559909,-1.03347 0,-0.44839 -0.186733,-0.792783 -0.559909,-1.03347 -0.373177,-0.240684 -0.851508,-0.360593 -1.43442,-0.360593l-3.09809 0 0 -0.000144642zm0 -3.66914l0 2.61744 2.89877 0c0.511454,0 0.933086,-0.114267 1.26562,-0.342657 0.331809,-0.228101 0.498292,-0.550074 0.498292,-0.966064 0,-0.407746 -0.178922,-0.727694 -0.536622,-0.959845 -0.357989,-0.232584 -0.792783,-0.348732 -1.30366,-0.348732l-2.8224 0 0 -0.000144642z"/>
  <path id="_123456_5" class="fil2" d="M925.772 -127.795c0.925275,0.811153 1.38827,1.89785 1.38827,3.25936 0,1.36152 -0.462999,2.44792 -1.38827,3.25908 -0.925275,0.811442 -2.1394,1.21687 -3.64267,1.21687 -1.50327,0 -2.7171,-0.405432 -3.64267,-1.21687 -0.925275,-0.811153 -1.38827,-1.89741 -1.38827,-3.25908 0,-1.36152 0.462999,-2.44821 1.38827,-3.25936 0.925709,-0.811153 2.1394,-1.21687 3.64267,-1.21687 1.50327,0 2.71739,0.405721 3.64267,1.21687zm-1.14267 5.78453c0.623697,-0.599252 0.935545,-1.44092 0.935545,-2.52516 0,-1.08467 -0.311848,-1.9262 -0.935545,-2.5256 -0.623697,-0.599252 -1.45712,-0.89895 -2.50014,-0.89895 -1.0433,0 -1.87644,0.299698 -2.50014,0.89895 -0.623986,0.599252 -0.935545,1.44092 -0.935545,2.5256 0,1.08424 0.311559,1.92591 0.935545,2.52516 0.623697,0.599252 1.45683,0.89895 2.50014,0.89895 1.04301,0 1.87644,-0.299698 2.50014,-0.89895z"/>
  <path id="_1234567" class="fil2" d="M930.933 -125.906l0 -2.91092 6.8407 0 0 7.50909 1.28804 0 0 2.39701 -1.53378 0 0 -1.34532 -7.36199 0 0 1.34532 -1.53407 0 0 -2.39701 0.920213 0c0.47081,-0.643946 0.818529,-1.3229 1.0433,-2.03613 0.225063,-0.713519 0.337595,-1.56763 0.337595,-2.56219l0 0.000144642zm1.53378 0c0,1.76087 -0.414544,3.29364 -1.24262,4.59817l5.01575 0 0 -6.4574 -3.77328 0 0 1.85908 0.000144642 0.000144642z"/>
  <path id="_12345678" class="fil2" d="M948.634 -123.154l1.41142 0.256884c-0.266141,0.880292 -0.782658,1.57342 -1.54941,2.0788 -0.767037,0.505669 -1.73339,0.758214 -2.89906,0.758214 -1.50298,0 -2.72216,-0.407457 -3.658,-1.22295 -0.935545,-0.815203 -1.40361,-1.89944 -1.40361,-3.25286 0,-1.34532 0.475872,-2.42753 1.4266,-3.24721 0.951166,-0.819253 2.16254,-1.22902 3.63486,-1.22902 1.15555,0 2.1245,0.234609 2.90658,0.703394 0.782658,0.468785 1.27589,1.123 1.48027,1.96294l-1.48764 0.220001c-0.194544,-0.587102 -0.544288,-1.03954 -1.05039,-1.35747 -0.506392,-0.317923 -1.12228,-0.476885 -1.84867,-0.476885 -1.04258,0 -1.88121,0.301723 -2.51504,0.905025 -0.634545,0.603302 -0.951166,1.44324 -0.951166,2.51938 0,1.07614 0.316621,1.91578 0.951166,2.51909 0.633822,0.603302 1.47246,0.905025 2.51504,0.905025 0.807681,0 1.46768,-0.179356 1.97914,-0.537924 0.510731,-0.359002 0.863658,-0.860331 1.05791,-1.50428l0 -0.000144642z"/>
  <polygon id="_123456789" class="fil2" points="951.026,-127.765 951.026,-128.816 959.308,-128.816 959.308,-127.765 955.933,-127.765 955.933,-120.256 954.401,-120.256 954.401,-127.765 "/>
  <path id="_12345678910" class="fil2" d="M961.028 -120.256l0 -8.56093 4.47855 0c0.879568,0 1.64125,0.195845 2.2852,0.587102 0.64438,0.391546 0.966354,0.921225 0.966354,1.59005 0,0.823303 -0.454899,1.4551 -1.36499,1.89539 0.541974,0.163012 0.976479,0.419896 1.30366,0.770508 0.32747,0.350757 0.491204,0.774848 0.491204,1.27213 0,0.733769 -0.34772,1.32492 -1.0433,1.77346 -0.69486,0.44839 -1.52351,0.672441 -2.48481,0.672441l-4.63173 0 -0.000144642 -0.000144642zm1.53378 -3.83996l0 2.78827 3.09809 0c0.583052,0 1.06124,-0.120342 1.43442,-0.360593 0.373177,-0.240684 0.559909,-0.585077 0.559909,-1.03347 0,-0.44839 -0.186733,-0.792783 -0.559909,-1.03347 -0.373177,-0.240684 -0.851508,-0.360593 -1.43442,-0.360593l-3.09809 0 0 -0.000144642zm0 -3.66914l0 2.61744 2.89877 0c0.511454,0 0.933086,-0.114267 1.26562,-0.342657 0.331809,-0.228101 0.498292,-0.550074 0.498292,-0.966064 0,-0.407746 -0.178922,-0.727694 -0.536622,-0.959845 -0.357989,-0.232584 -0.792783,-0.348732 -1.30366,-0.348732l-2.8224 0 0 -0.000144642z"/>
  <path id="_1234567891011" class="fil2" d="M979.455 -127.795c0.925275,0.811153 1.38827,1.89785 1.38827,3.25936 0,1.36152 -0.462999,2.44792 -1.38827,3.25908 -0.925275,0.811442 -2.1394,1.21687 -3.64267,1.21687 -1.50327,0 -2.7171,-0.405432 -3.64267,-1.21687 -0.925275,-0.811153 -1.38827,-1.89741 -1.38827,-3.25908 0,-1.36152 0.462999,-2.44821 1.38827,-3.25936 0.925709,-0.811153 2.1394,-1.21687 3.64267,-1.21687 1.50327,0 2.71739,0.405721 3.64267,1.21687zm-1.14267 5.78453c0.623697,-0.599252 0.935545,-1.44092 0.935545,-2.52516 0,-1.08467 -0.311848,-1.9262 -0.935545,-2.5256 -0.623697,-0.599252 -1.45712,-0.89895 -2.50014,-0.89895 -1.0433,0 -1.87644,0.299698 -2.50014,0.89895 -0.623986,0.599252 -0.935545,1.44092 -0.935545,2.5256 0,1.08424 0.311559,1.92591 0.935545,2.52516 0.623697,0.599252 1.45683,0.89895 2.50014,0.89895 1.04301,0 1.87644,-0.299698 2.50014,-0.89895z"/>
  <polygon id="_123456789101112" class="fil2" points="995.093,-128.816 995.093,-120.256 993.558,-120.256 993.558,-127.055 988.374,-120.256 986.657,-120.256 986.657,-128.816 988.191,-128.816 988.191,-122.017 993.375,-128.816 "/>
  <path id="_12345678910111213" class="fil2" d="M1003.02 -125.906l0 -2.91092 6.8407 0 0 7.50909 1.28804 0 0 2.39701 -1.53378 0 0 -1.34532 -7.36199 0 0 1.34532 -1.53407 0 0 -2.39701 0.920213 0c0.47081,-0.643946 0.818529,-1.3229 1.0433,-2.03613 0.225063,-0.713519 0.337595,-1.56763 0.337595,-2.56219l0 0.000144642zm1.53378 0c0,1.76087 -0.414544,3.29364 -1.24262,4.59817l5.01575 0 0 -6.4574 -3.77328 0 0 1.85908 0.000144642 0.000144642z"/>
  <path id="_1234567891011121314" class="fil2" d="M1021.3 -127.795c0.925275,0.811153 1.38827,1.89785 1.38827,3.25936 0,1.36152 -0.462999,2.44792 -1.38827,3.25908 -0.925275,0.811442 -2.1394,1.21687 -3.64267,1.21687 -1.50327,0 -2.7171,-0.405432 -3.64267,-1.21687 -0.925275,-0.811153 -1.38827,-1.89741 -1.38827,-3.25908 0,-1.36152 0.462999,-2.44821 1.38827,-3.25936 0.925709,-0.811153 2.1394,-1.21687 3.64267,-1.21687 1.50327,0 2.71739,0.405721 3.64267,1.21687zm-1.14253 5.78453c0.623697,-0.599252 0.935545,-1.44092 0.935545,-2.52516 0,-1.08467 -0.311848,-1.9262 -0.935545,-2.5256 -0.623697,-0.599252 -1.45712,-0.89895 -2.50014,-0.89895 -1.0433,0 -1.87644,0.299698 -2.50014,0.89895 -0.623986,0.599252 -0.935545,1.44092 -0.935545,2.5256 0,1.08424 0.311559,1.92591 0.935545,2.52516 0.623697,0.599252 1.45683,0.89895 2.50014,0.89895 1.04301,0 1.87644,-0.299698 2.50014,-0.89895z"/>
  <path id="_123456789101112131415" class="fil2" d="M1032.44 -123.154l1.41142 0.256884c-0.266141,0.880292 -0.782658,1.57342 -1.54941,2.0788 -0.767037,0.505669 -1.73339,0.758214 -2.89906,0.758214 -1.50298,0 -2.72216,-0.407457 -3.658,-1.22295 -0.935545,-0.815203 -1.40361,-1.89944 -1.40361,-3.25286 0,-1.34532 0.475872,-2.42753 1.4266,-3.24721 0.951166,-0.819253 2.16254,-1.22902 3.63486,-1.22902 1.15555,0 2.1245,0.234609 2.90658,0.703394 0.782658,0.468785 1.27589,1.123 1.48027,1.96294l-1.48764 0.220001c-0.194544,-0.587102 -0.544288,-1.03954 -1.05039,-1.35747 -0.506392,-0.317923 -1.12228,-0.476885 -1.84867,-0.476885 -1.04258,0 -1.88121,0.301723 -2.51504,0.905025 -0.634545,0.603302 -0.951166,1.44324 -0.951166,2.51938 0,1.07614 0.316621,1.91578 0.951166,2.51909 0.633822,0.603302 1.47246,0.905025 2.51504,0.905025 0.807681,0 1.46768,-0.179356 1.97914,-0.537924 0.510731,-0.359002 0.863658,-0.860331 1.05791,-1.50428l0 -0.000144642z"/>
  <polygon id="_12345678910111213141516" class="fil2" points="1034.83,-127.765 1034.83,-128.816 1043.12,-128.816 1043.12,-127.765 1039.74,-127.765 1039.74,-120.256 1038.21,-120.256 1038.21,-127.765 "/>
  <path id="_1234567891011121314151617" class="fil2" d="M1043.73 -120.256l4.32538 -8.56093 1.62563 0 4.32538 8.56093 -1.59511 0 -0.966064 -1.98116 -5.15403 0 -0.966354 1.98116 -1.59482 0zm5.13812 -7.26436l-2.0707 4.2315 4.14125 0 -2.0707 -4.2315 0.000144642 0z"/>
  <path id="_123456789101112131415161718" class="fil2" d="M1055.42 -120.256l0 -8.56093 4.47855 0c0.879568,0 1.64125,0.195845 2.2852,0.587102 0.64438,0.391546 0.966354,0.921225 0.966354,1.59005 0,0.823303 -0.454899,1.4551 -1.36499,1.89539 0.541974,0.163012 0.976479,0.419896 1.30366,0.770508 0.32747,0.350757 0.491204,0.774848 0.491204,1.27213 0,0.733769 -0.34772,1.32492 -1.0433,1.77346 -0.69486,0.44839 -1.52351,0.672441 -2.48481,0.672441l-4.63173 0 -0.000144642 -0.000144642zm1.53378 -3.83996l0 2.78827 3.09809 0c0.583052,0 1.06124,-0.120342 1.43442,-0.360593 0.373177,-0.240684 0.559909,-0.585077 0.559909,-1.03347 0,-0.44839 -0.186733,-0.792783 -0.559909,-1.03347 -0.373177,-0.240684 -0.851508,-0.360593 -1.43442,-0.360593l-3.09809 0 0 -0.000144642zm0 -3.66914l0 2.61744 2.89877 0c0.511454,0 0.933086,-0.114267 1.26562,-0.342657 0.331809,-0.228101 0.498292,-0.550074 0.498292,-0.966064 0,-0.407746 -0.178922,-0.727694 -0.536622,-0.959845 -0.357989,-0.232584 -0.792783,-0.348732 -1.30366,-0.348732l-2.8224 0 0 -0.000144642z"/>
  <polygon id="_12345678910111213141516171819" class="fil2" points="1065.6,-120.256 1065.6,-128.816 1067.14,-128.816 1067.14,-125.111 1071.06,-128.816 1072.92,-128.816 1068.58,-124.768 1073.32,-120.256 1071.37,-120.256 1067.14,-124.279 1067.14,-120.256 "/>
  <path id="_1234567891011121314151617181920" class="fil2" d="M1073.62 -120.256l4.32538 -8.56093 1.62563 0 4.32538 8.56093 -1.59511 0 -0.966064 -1.98116 -5.15403 0 -0.966354 1.98116 -1.59482 0zm5.13826 -7.26436l-2.0707 4.2315 4.14125 0 -2.0707 -4.2315 0.000144642 0z"/>
  <path id="_123456789101112131415161718192021" class="fil2" d="M1090.57 -124.096l0 2.78827 3.09809 0c0.583052,0 1.06124,-0.120342 1.43442,-0.360593 0.373177,-0.240684 0.559909,-0.585077 0.559909,-1.03347 0,-0.44839 -0.186733,-0.792783 -0.559909,-1.03347 -0.373177,-0.240684 -0.851508,-0.360593 -1.43442,-0.360593l-3.09809 0 0 -0.000144642zm3.09794 -1.05169c0.961291,0 1.78995,0.224051 2.48481,0.672441 0.695584,0.44839 1.0433,1.03954 1.0433,1.77346 0,0.733769 -0.34772,1.32492 -1.0433,1.77346 -0.69486,0.44839 -1.52351,0.672441 -2.48481,0.672441l-4.63173 0 0 -8.56093 7.23962 0 0 1.05184 -5.70584 0 0 2.61744 3.09809 0 -0.000144642 -0.000144642z"/>
  <polygon id="_12345678910111213141516171819202122" class="fil2" points="1099.22,-120.256 1099.22,-128.816 1106,-128.816 1106,-127.765 1100.76,-127.765 1100.76,-125.099 1105.61,-125.099 1105.61,-124.047 1100.76,-124.047 1100.76,-121.307 1106.13,-121.307 1106.13,-120.256 "/>
  <polygon id="_1234567891011121314151617181920212223" class="fil2" points="1107.45,-127.765 1107.45,-128.816 1115.73,-128.816 1115.73,-127.765 1112.35,-127.765 1112.35,-120.256 1110.82,-120.256 1110.82,-127.765 "/>
  <path id="_123456789101112131415161718192021222324" class="fil2" d="M1125.69 -127.795c0.925275,0.811153 1.38827,1.89785 1.38827,3.25936 0,1.36152 -0.462999,2.44792 -1.38827,3.25908 -0.925275,0.811442 -2.1394,1.21687 -3.64267,1.21687 -1.50327,0 -2.7171,-0.405432 -3.64267,-1.21687 -0.925275,-0.811153 -1.38827,-1.89741 -1.38827,-3.25908 0,-1.36152 0.462999,-2.44821 1.38827,-3.25936 0.925709,-0.811153 2.1394,-1.21687 3.64267,-1.21687 1.50327,0 2.71739,0.405721 3.64267,1.21687zm-1.14253 5.78453c0.623697,-0.599252 0.935545,-1.44092 0.935545,-2.52516 0,-1.08467 -0.311848,-1.9262 -0.935545,-2.5256 -0.623697,-0.599252 -1.45712,-0.89895 -2.50014,-0.89895 -1.0433,0 -1.87644,0.299698 -2.50014,0.89895 -0.623986,0.599252 -0.935545,1.44092 -0.935545,2.5256 0,1.08424 0.311559,1.92591 0.935545,2.52516 0.623697,0.599252 1.45683,0.89895 2.50014,0.89895 1.04301,0 1.87644,-0.299698 2.50014,-0.89895z"/>
  <polygon id="_12345678910111213141516171819202122232425" class="fil2" points="1129.16,-120.256 1129.16,-128.816 1130.7,-128.816 1130.7,-125.099 1135.61,-125.099 1135.61,-128.816 1137.14,-128.816 1137.14,-120.256 1135.61,-120.256 1135.61,-124.047 1130.7,-124.047 1130.7,-120.256 "/>
  <polygon id="_1234567891011121314151617181920212223242526" class="fil2" points="1139.66,-120.256 1139.66,-128.816 1141.19,-128.816 1141.19,-125.099 1146.1,-125.099 1146.1,-128.816 1147.63,-128.816 1147.63,-120.256 1146.1,-120.256 1146.1,-124.047 1141.19,-124.047 1141.19,-120.256 "/>
  <path id="_123456789101112131415161718192021222324252627" class="fil2" d="M1151.68 -124.096l0 2.78827 3.09809 0c0.583052,0 1.06124,-0.120342 1.43442,-0.360593 0.373177,-0.240684 0.559909,-0.585077 0.559909,-1.03347 0,-0.44839 -0.186733,-0.792783 -0.559909,-1.03347 -0.373177,-0.240684 -0.851508,-0.360593 -1.43442,-0.360593l-3.09809 0 0 -0.000144642zm-1.53378 -4.72083l1.53378 0 0 3.66914 3.09809 0c0.961291,0 1.78995,0.224051 2.48481,0.672441 0.695584,0.44839 1.0433,1.03954 1.0433,1.77346 0,0.733769 -0.34772,1.32492 -1.0433,1.77346 -0.69486,0.44839 -1.52351,0.672441 -2.48481,0.672441l-4.63173 0 0 -8.56093 -0.000144642 0zm9.31032 8.56079l0 -8.56093 1.53378 0 0 8.56093 -1.53378 0z"/>
  <polygon id="_12345678910111213141516171819202122232425262728" class="fil2" points="1164.69,-128.816 1167,-125.808 1169.32,-128.816 1171.02,-128.816 1167.85,-124.781 1171.42,-120.256 1169.7,-120.256 1167,-123.704 1164.3,-120.256 1162.59,-120.256 1166.16,-124.781 1162.98,-128.816 "/>
  <path id="_1234567891011121314151617181920212223242526272829" class="fil2" d="M1184.41 -123.154l1.41142 0.256884c-0.266141,0.880292 -0.782658,1.57342 -1.54941,2.0788 -0.767037,0.505669 -1.73339,0.758214 -2.89906,0.758214 -1.50298,0 -2.72216,-0.407457 -3.658,-1.22295 -0.935545,-0.815203 -1.40361,-1.89944 -1.40361,-3.25286 0,-1.34532 0.475872,-2.42753 1.4266,-3.24721 0.951166,-0.819253 2.16254,-1.22902 3.63486,-1.22902 1.15555,0 2.1245,0.234609 2.90658,0.703394 0.782658,0.468785 1.27589,1.123 1.48027,1.96294l-1.48764 0.220001c-0.194544,-0.587102 -0.544288,-1.03954 -1.05039,-1.35747 -0.506392,-0.317923 -1.12228,-0.476885 -1.84867,-0.476885 -1.04258,0 -1.88121,0.301723 -2.51504,0.905025 -0.634545,0.603302 -0.951166,1.44324 -0.951166,2.51938 0,1.07614 0.316621,1.91578 0.951166,2.51909 0.633822,0.603302 1.47246,0.905025 2.51504,0.905025 0.807681,0 1.46768,-0.179356 1.97914,-0.537924 0.510731,-0.359002 0.863658,-0.860331 1.05791,-1.50428l0 -0.000144642z"/>
  <polygon id="_123456789101112131415161718192021222324252627282930" class="fil2" points="1187.6,-120.256 1187.6,-128.816 1189.32,-128.816 1192.89,-121.368 1196.47,-128.816 1198.19,-128.816 1198.19,-120.256 1196.65,-120.256 1196.65,-126.395 1193.71,-120.256 1192.08,-120.256 1189.14,-126.395 1189.14,-120.256 "/>
  <polygon id="_12345678910111213141516171819202122232425262728293031" class="fil2" points="1200.7,-120.256 1200.7,-128.816 1207.48,-128.816 1207.48,-127.765 1202.24,-127.765 1202.24,-125.099 1207.08,-125.099 1207.08,-124.047 1202.24,-124.047 1202.24,-121.307 1207.6,-121.307 1207.6,-120.256 "/>
  <path id="_1234567891011121314151617181920212223242526272829303132" class="fil2" d="M1217.39 -123.154l1.41142 0.256884c-0.266141,0.880292 -0.782658,1.57342 -1.54941,2.0788 -0.767037,0.505669 -1.73339,0.758214 -2.89906,0.758214 -1.50298,0 -2.72216,-0.407457 -3.658,-1.22295 -0.935545,-0.815203 -1.40361,-1.89944 -1.40361,-3.25286 0,-1.34532 0.475872,-2.42753 1.4266,-3.24721 0.951166,-0.819253 2.16254,-1.22902 3.63486,-1.22902 1.15555,0 2.1245,0.234609 2.90658,0.703394 0.782658,0.468785 1.27589,1.123 1.48027,1.96294l-1.48764 0.220001c-0.194544,-0.587102 -0.544288,-1.03954 -1.05039,-1.35747 -0.506392,-0.317923 -1.12228,-0.476885 -1.84867,-0.476885 -1.04258,0 -1.88121,0.301723 -2.51504,0.905025 -0.634545,0.603302 -0.951166,1.44324 -0.951166,2.51938 0,1.07614 0.316621,1.91578 0.951166,2.51909 0.633822,0.603302 1.47246,0.905025 2.51504,0.905025 0.807681,0 1.46768,-0.179356 1.97914,-0.537924 0.510731,-0.359002 0.863658,-0.860331 1.05791,-1.50428l0 -0.000144642z"/>
  <polygon id="_123456789101112131415161718192021222324252627282930313233" class="fil2" points="1220.58,-120.256 1220.58,-128.816 1227.36,-128.816 1227.36,-127.765 1222.11,-127.765 1222.11,-125.099 1226.96,-125.099 1226.96,-124.047 1222.11,-124.047 1222.11,-121.307 1227.48,-121.307 1227.48,-120.256 "/>
  <path id="_12345678910111213141516171819202122232425262728293031323334" class="fil2" d="M1238.03 -120.256l0 -8.56093 -1.71777 0 -5.18426 6.79977 0 -6.79977 -1.53378 0 0 8.56093 1.71777 0 5.18426 -6.79977 0 6.79977 1.53378 0zm-2.87592 -9.76551c-0.321973,0.248784 -0.769351,0.373177 -1.34184,0.373177 -0.572493,0 -1.01987,-0.124392 -1.34184,-0.373177 -0.322407,-0.248495 -0.483394,-0.605327 -0.483394,-1.07006l1.10434 0c0,0.456635 0.239961,0.685025 0.720896,0.685025 0.480356,0 0.720896,-0.22839 0.720896,-0.685025l1.10434 0c0,0.464735 -0.160987,0.821567 -0.483394,1.07006z"/>
  <g id="_133111256">
   <path id="_131748400" class="fil3" d="M687.228 -214.186l0.431757 -0.432191 0.432191 -0.431757 0.24242 -0.242709 0.34338 0 1.29585 0 0.392848 0 0.250809 0.313873 3.45564 4.3206 0.0925709 0.115569 0.0464301 0.140014 0.346128 1.03781 0.634111 0.453164 0 -2.09644 0 -1.0595 1.02913 0.257318 1.7276 0.431757 0.22029 0.0552533 0.164747 0.164747 0.863947 0.864381 0.134517 0.134228 0.0630639 0.189481 0.431757 1.29614 0.160987 0.482671 -0.358278 0.358568 -0.432191 0.432191 0 0.00303748 -0.431757 0.432191 -0.0017357 -0.0017357 -0.0640764 0.0640764 0.0640764 0.0640764 0.0017357 -0.0017357 0.431757 0.432191 0.432191 0.431757 0 0.00332677 0.309534 0.309534 0.0151874 0.00650889 0.00303748 -0.0905459 0.22839 -0.228824 0.432191 -0.431757 0.239238 -0.239672 0.346418 0 0.0854835 0 0.192519 -0.192519 0.242709 -0.242709 0.342946 0 3.45564 0 0.342946 0 0.242709 0.242709 0.863947 0.863947 0 0.00332677 0.431757 0.432191 0.0789746 0.0789746 0.056989 0.102407 0.148837 0.26672c0.0441158,-0.0186588 0.0796978,-0.0358712 0.111808,-0.0512033 0.289139,-0.137555 0.442315,-0.210888 1.17753,-0.210888 0.292466,0 0.498292,0.111519 0.793796,0.271782l-0.00072321 0.00130178c0.358568,0.194544 0.958543,0.518542 1.86632,0.59419l0.300277 0.0250231 0.217542 0.217542 0.189192 0.189481 0.0888102 0 0.346418 0 0.239672 0.239238 0.136976 0.137555 2.59936 -0.404998 0.948707 -0.147824 0.0027482 0.963027 0.0017357 0.661304 0.215517 -0.496556 0.380698 -0.876242 0.81014 0.497858 3.12745 1.92114 0.446799 0.274241 -0.0582908 0.521579 -0.125115 1.12098 1.44628 1.44628 0.0017357 -0.00130178 0.299264 0.299264 1.1013 0.367391 0.194544 0.0647996 0.132492 0.132492 0.431757 0.432191 0.239238 0.239238 0 0.0809996 0.380987 -0.381276 -0.0637872 -0.0640764 -0.239672 -0.239238 0 -0.346418 0 -0.863947 0 -0.346128 0.239672 -0.239672 0.192519 -0.192519 0 -0.517963 0 -1.14426 1.08395 0.361316 1.29585 0.431757 0.189481 0.0633532 0.137265 0.137265 0.431757 0.432191 0.3739 0.3739 1.1891 0.792783 0.812165 0.406444 0.53344 0.26672 -0.0837478 0.587391 -0.425682 2.97905 0 0.113833 0.182683 -0.146088 0.288127 0 0.521001 0 0.189481 -0.189481 0.159974 -0.159974 0.211901 -0.056555c0.676491,-0.180658 0.768049,-0.285379 0.833428,-0.360303 0.290152,-0.332243 0.465747,-0.532861 1.53986,-0.532861 0.722921,0 1.227,0.142039 1.60524,0.518976l0.00130178 -0.0017357c0.376214,0.375925 0.517529,0.880581 0.517529,1.60726l0 1.72804 0 0.967366 -0.95782 -0.151874 -0.512467 -0.0812888 0.0671139 0.135964 0.820554 1.66092 0.339909 0.339909 0.242709 0.242709 0 0.342946 0 1.29614 0 0.440001 -0.368837 0.246036 -1.22801 0.818529 -0.101394 0.101394c0.432769,-0.191506 0.810719,-0.366089 1.06052,-0.481369 0.302736,-0.140014 0.485708,-0.224774 0.673164,-0.224774l2.5917 0 1.3362 0 -0.598529 1.1972 -0.453453 0.907774 1.35168 1.35168 1.3877 0 1.29585 0 0.466037 0 0.242709 0.404419 1.13891 1.89886 1.00295 0.334557 0.189481 0.0630639 0.137265 0.137555 0.432191 0.432191 0.24242 0.242709 0 0.33962 0 2.34494 0.679528 1.01958 0.805656 0.805656 0.16171 0.161999 0.0552533 0.220001 0.412519 1.65066 0.386339 0.773546 0.0905459 0.181381 0 0.187456 0 0.52129 0.189481 0.189192 0.242709 0.242709 0 0.342946 0 1.29614 0 0.438989 -0.368837 0.247049c-0.0938727,0.0627747 -0.248061,0.159685 -0.44839,0.285668 -0.736951,0.46271 -2.2097,0.989786 -2.2097,1.18867l0.00303748 0c0,0.628759 0.410783,1.45438 0.968379,2.26047 0.661593,0.955795 1.50457,1.84086 2.15806,2.37604 0.595491,-0.329784 1.34561,-0.712073 2.09268,-0.712073l0 0.00303748c0.531415,0 1.22396,0.473847 2.13101,1.0948 1.34286,0.918911 3.25763,2.22966 4.84797,2.36186l0.299988 0.0250231 0.217542 0.217542 0.430166 0.430455 0.0017357 -0.0017357 0.432191 0.432191 0.0746353 0.0749246 0.0613282 0.109494 0.234609 0.421342 2.50245 0.0189481 0.217542 0 5.32963 -2.87057 0.342946 -0.34338 0.242709 -0.242709 0.342946 0 0.520567 0 0.189481 -0.189192 0.242709 -0.242709 0.342946 0 0.520567 0 0.189481 -0.189481 0.245747 -0.246036 0.339909 0 0.899529 0 0 -0.0355819 0 -0.342946 0.242709 -0.242709 0.431757 -0.432191 0.0017357 0.0017357 0.187456 -0.187745 0 -1.82047 0 -0.466037 0.404419 -0.242709 2.0707 -1.24262 0.116582 -0.116582 0 -0.0925709 0 -0.431757 0.00332677 0 0 -0.864381 0 -0.251533 0.139001 -0.207706c0.0542408,-0.0809996 0.122656,-0.197002 0.188758,-0.308377 0.443039,-0.749391 0.800594,-1.35342 2.22517,-1.35342l0.431757 0 0 -0.00332677c0.527076,0 1.03043,0.117594 1.41474,0.374189 0.438989,0.2929 0.709469,0.725669 0.709469,1.31812l-0.00332677 0c0,0.912402 -0.108482,1.23582 -0.260356,1.68725 -0.0297963,0.0885209 -0.0620514,0.183985 -0.0958977,0.298686 0.415267,0.501619 1.11678,1.1392 1.9032,1.63981 0.663329,0.422355 1.36499,0.730732 1.94732,0.730732 0.550797,0 1.17406,-0.458949 1.68363,-0.834151l0.0796978 -0.05858 0 -1.73542 0 -0.438989 0.369127 -0.247049c2.15097,-1.44092 3.87019,-2.19668 5.90559,-2.61397 1.98926,-0.407746 4.23628,-0.476885 7.49593,-0.549495l0.3172 -0.00708746 0.239238 0.207706 1.63503 1.4185c0.735794,-0.444774 1.30568,-0.758214 2.57608,-0.758214 0.493808,0 1.24161,0.688062 1.97885,1.36672 0.218265,0.200329 0.434939,0.399935 0.622684,0.566418 0.459672,-0.398634 0.746064,-0.636859 1.71777,-0.636859 0.665643,0 1.49068,0.668391 2.23573,1.50659 1.04027,1.17073 2.04828,2.85567 2.04828,3.21019l-0.00332677 0c0,0.418305 -0.831403,1.56387 -1.75335,2.35434 -0.685314,0.587681 -1.46841,1.06326 -2.095,1.06326l0 0.00303748 -1.29614 0c-0.939884,0 -1.48085,-0.182394 -1.86328,-0.387062 0.0630639,0.217542 0.0966209,0.487444 0.0966209,0.855124 0,0.988773 -0.443617,1.18332 -1.06934,1.45756 -0.352203,0.154188 -0.85686,0.375202 -1.21919,1.68696 -0.0820121,0.297963 -0.294491,0.880581 -0.521579,1.50428 -0.261658,0.717569 -0.545011,1.49517 -0.621672,1.75002 0.00130178,-0.00130178 0.0027482,-0.00072321 0.00404998,0.00231427 0.2362,0.528088 0.780923,1.74554 0.835163,3.658l1.60828 1.85547 0.419317 0.483394 -0.364064 0.526063c-0.524327,0.756478 -1.43586,1.70967 -2.40525,2.4621 -0.849483,0.660002 -1.77172,1.18737 -2.58013,1.34763 -0.627457,0.124103 -1.24392,0.0956084 -1.85807,0.0671139 -0.614873,-0.0287838 -1.227,-0.0572783 -1.71618,0.110217 -0.521001,0.178344 -0.647707,0.471822 -0.741291,0.687773 -0.284656,0.657254 -0.483394,1.1162 -1.53581,0.931061l0.000289284 -0.0017357 -8.2203 -1.31856 -1.80803 1.63171 -0.239238 0.21624 -0.327036 -0.00578568c-2.49204,-0.0441158 -3.04139,0.476162 -3.46172,0.874217 -0.452874,0.42843 -0.821278,0.777162 -1.78358,0.777162 -0.50509,0 -0.800305,-0.427417 -1.27618,-1.1175 -1.2795,-1.85547 -4.59253,-6.65975 -9.52251,-6.65975 -1.53306,0 -2.90383,0.446076 -4.0494,1.14629 1.40491,1.54998 0.379685,4.83755 -2.40352,3.84271 -0.179356,-0.0643657 1.0595,4.82468 -4.15282,3.10575 -3.90403,-0.441014 -9.49951,1.26837 -9.71532,4.38598 -0.18977,2.73836 -0.74563,3.4905 -1.25202,3.95524 -0.939306,1.1609 -3.68201,1.79978 -5.3276,2.14258 -0.558897,0.0948852 -0.671862,0.831113 -1.07035,1.14296 -0.88709,0.693559 -2.41972,0.951745 -3.53216,0.182972 -0.383012,-0.265129 -0.714821,-1.29686 -1.15309,-1.32333 -1.21181,-0.0731889 -2.76281,0.993836 -4.36298,1.45539 -2.14591,0.618923 -3.2909,1.0731 -5.56727,2.47844 -0.81014,0.499883 -1.39377,0.820554 -1.88758,1.09205 -1.23307,0.677937 -1.87442,1.03014 -3.40719,2.77395 -0.6101,0.694137 -0.836899,1.46624 -1.0595,2.22517 -0.33528,1.14224 -0.663618,2.26076 -1.94153,3.29524 0.0358712,0.0999477 0.0661014,0.162288 0.0915584,0.215227 0.145076,0.301 0.218554,0.453887 0.218554,1.18809 0,1.49574 -1.17883,1.70591 -2.44922,1.70591l0 0.00303748c-0.056989,0 -0.266431,-0.00506247 -0.481947,-0.0105589 -0.508128,0.917175 -0.949431,1.52699 -1.67105,1.9544 -0.726392,0.430166 -1.64386,0.59795 -3.11226,0.624709 -0.39386,0.660291 -0.572783,1.18332 -0.719884,1.61233 -0.442605,1.29209 -0.672152,1.96323 -3.30102,2.76078 -0.294925,0.0895334 -1.29918,0.566997 -2.36287,1.07238 -1.49415,0.710048 -3.09635,1.47173 -3.57599,1.47173l-0.431757 0c-1.15916,0 -1.64256,-0.266431 -2.12595,-0.532427 -0.301,-0.166049 -0.602,-0.331809 -1.32969,-0.331809l0 0.00303748c-1.04432,0 -1.57067,0.190494 -2.09745,0.380264 -0.669837,0.241986 -1.33982,0.483972 -2.65404,0.483972l0 -0.00303748 -0.863658 0 0 0.00303748c-1.59106,0 -1.84925,-0.667379 -2.21476,-1.61102 -0.0183695,-0.0471533 -0.0368837,-0.0948852 -0.0562658,-0.144064 -2.48755,-0.17357 -2.73764,-1.16639 -3.07017,-2.48755 -0.163446,-0.649732 -0.359291,-1.42632 -1.30424,-2.16833 -0.118606,0.0348587 -0.21624,0.0678371 -0.306786,0.0983566 -0.457214,0.153899 -0.784394,0.263682 -1.68667,0.263682 -0.917899,0 -2.92148,-1.28558 -4.6812,-2.73562 -1.83855,-1.5144 -3.49021,-3.30811 -3.49021,-4.14168 0,-2.03106 3.76648,-2.85437 5.71785,-3.27904 0.229113,-1.0352 0.690087,-1.33722 1.14368,-1.63446 0.245024,-0.160697 0.484985,-0.317634 0.484985,-1.56734l0 -0.851508 -0.148403 -8.20974 -0.00954638 -0.531849 0.478621 -0.22839 1.14195 -4.26332 2.99727 -0.0156213 -1.33374 -2.8156c0,-3.06005 -1.35992,-4.32914 -2.674,-6.49732 -1.39551,-2.30357 -3.34514,-4.09221 -5.44491,-5.325l-0.492796 0.661593 -0.240684 0.32342 -0.403407 0.00983566 -1.65774 0.0410783c-0.535176,0.843697 -1.14831,1.7425 -2.61802,1.7425 -1.33722,0 -3.6013,-1.85098 -5.89604,-4.22572 -2.92987,-3.03155 -6.03938,-6.98346 -7.13794,-8.78932l-4.27866 -0.478621 -3.83316 0.0963316 -0.019382 0.00332677c-0.294925,0 -0.997886,0.468785 -1.70056,0.937859 -0.915874,0.611113 -1.83204,1.22223 -2.61903,1.22223l0 -0.00303748 -0.431757 0 0 0.00303748c-0.713085,0 -1.89611,-0.243722 -3.0923,-0.562947 -1.52395,-0.406444 -3.11602,-0.947984 -3.74305,-1.24942l-0.581316 -0.279015 0.128442 -0.630061 0.220001 -1.0799 -0.561356 -0.232584 -0.516951 -0.214215 0.00911245 -0.562368c0.00477319,-0.298252 0.0423801,-0.593177 0.110217,-0.883618 0.554558,-2.38081 3.21973,-4.99955 6.33156,-6.99127 2.95865,-1.89365 6.37235,-3.25835 8.76661,-3.32373 -0.0769496,-0.29695 -0.124681,-0.641922 -0.124681,-1.23785 0,-0.776583 1.14904,-1.82828 2.65982,-2.86218 2.15126,-1.47246 5.14839,-3.1085 6.03577,-3.50844 0.155924,-0.0704407 0.316911,-0.141749 0.514492,-0.228824 1.18462,-0.523315 3.65554,-1.61449 3.90881,-1.86183 0.795242,-0.777162 0.723644,-1.4995 0.665064,-2.09601 -0.122078,-1.23857 -0.21624,-2.19335 1.94891,-2.77163l1.0151 -0.271204 0.023432 1.05415c0.017357,0.776583 0.157226,1.36499 0.452874,1.73108 0.253268,0.313584 0.679239,0.481369 1.31378,0.481369 1.41778,0 4.20532,-2.32686 6.33127,-4.10133 0.89895,-0.750403 1.68667,-1.40766 2.28014,-1.80528l0.391112 -0.261947 0.42438 0.203656c0.180369,0.0867852 0.272506,0.13524 0.35148,0.176897 0.246759,0.130178 0.330507,0.174149 1.02031,0.174149l0 -0.00332677 1.47549 -0.0141749c1.38943,-0.37795 1.32593,-1.74525 3.276,-2.14591 2.37271,0 0.838635,-0.688062 1.8734,-1.146l-1.80383 0.163735 -1.28934 0.116871 0.435228 -1.21716 1.4402 -4.0264 -0.671862 -0.0148981 -0.64438 -0.0141749 -0.145076 -0.622973c-0.0704407,-0.302013 -0.134951,-0.493519 -0.191217,-0.661014 -0.15361,-0.457214 -0.263682,-0.784683 -0.263682,-1.68725 0,-0.758214 0.544288,-1.25043 1.06905,-1.60524 -0.202644,-0.438989 -0.457648,-1.00092 -0.655518,-1.46262 -0.235911,-0.551086 -0.413532,-1.03752 -0.413532,-1.25274l0.00332677 0c0,-0.846735 0.290875,-0.998609 0.679239,-1.20154 0.0365944,-0.019382 0.086062,-0.0451283 0.149849,-0.650745l-0.15766 -0.15766 -0.242709 -0.242709 0 -0.33962 0 -0.953481 -0.189481 -0.189192 -0.359002 -0.359291 0.16171 -0.485419 0.431757 -1.29614 0.0647996 -0.19382 0.132926 -0.132926 0.000289284 0.00115714z"/>
   <path id="_131747112" class="fil4" d="M694.679 -134.844l0 2.48958 48.4769 -0.102985c2.03613,-0.00752139 2.21505,-0.0905459 2.22995,-2.32859l-50.7067 -0.0580015 -0.000144642 0z"/>
   <polygon id="_132816832" class="fil4" points="723.376,-168.575 714.931,-140.632 717.832,-142.431 724.977,-167.541 723.353,-168.834 "/>
   <path id="_132222792" class="fil4" d="M717.798 -174.977c-0.975177,-1.46291 -3.96363,-1.52294 -5.43811,-1.39175 -0.0183695,0.0017357 0,0.0209731 0,0l0.00404998 -6.57369c0,-0.029507 -0.00781067,0.00477319 0.0176463,-0.00130178 2.05479,-0.48296 4.65617,-0.106746 5.42017,1.54738l-0.00376069 6.41936z"/>
   <path id="_133175064" class="fil4" d="M717.792 -167.273c-0.624709,-0.524761 -3.66132,-0.908786 -5.43854,-0.908786 -0.00650889,0 0,0.00752139 0,0l0.00433926 -7.47901c0.000289284,-0.15361 -0.129455,0.0260356 0.00535176,-0.00101249 2.08053,-0.418883 4.64677,-0.126706 5.43305,1.15251l-0.00433926 7.2363 0.000144642 0z"/>
   <path id="_132632800" class="fil4" d="M717.789 -159.194c-0.60605,-0.315175 -3.12788,-0.54776 -5.43883,-0.564972l0 0.000289284 0.00477319 -7.90165c0,-0.00853388 -0.00708746,0.000289284 0,0 2.396,0.0131624 4.82193,0.512178 5.43883,1.05618l-0.00477319 7.41016z"/>
   <path id="_133810688" class="fil4" d="M717.784 -150.251c-0.687773,-0.317634 -3.16043,-0.472112 -5.43955,-0.464301 -0.0545301,0.000289284 0,0.0627747 0.000289284,0l0.00506247 -8.62197c0.212913,-0.00404998 -1.32637,0 0,0 1.32637,0 4.80877,0.239672 5.43912,0.566997l-0.00506247 8.51927 0.000144642 0z"/>
   <path id="_133083128" class="fil4" d="M717.778 -142.588l0.00433926 -7.28982c-0.631797,-0.240974 -4.08064,-0.338318 -5.43811,-0.338318 -0.142762,0 -0.00101249,-0.113833 0,0l0.0575675 7.46208 0 0 4.47754 0.13958 0.898517 0.0264695 0.000144642 0z"/>
   <path id="_133119448" class="fil4" d="M711.939 -178.449c-0.729141,-1.04359 -3.16477,-1.55476 -5.43406,-1.55678 -1.62419,-0.00130178 -3.22002,0.460251 -3.88509,0.607352l0 -5.76731c0.117594,-0.207417 0.26672,-0.423367 0.455912,-0.644959 1.67134,-1.95773 7.57216,-2.33872 8.86801,0.337595l-0.00477319 7.02411z"/>
   <path id="_133117272" class="fil4" d="M711.934 -170.02c-0.716268,-0.574229 -3.83186,-0.995571 -5.86958,-0.995571 -2.03743,0 -2.46456,0.088087 -3.44451,0.238659 0,-0.975466 -0.302302,-6.55055 0.125115,-7.05116 1.5886,-1.86053 7.80677,-2.26321 9.19374,-0.109783l-0.00477319 7.91785z"/>
   <path id="_133133656" class="fil4" d="M711.928 -161.179c-0.695584,-0.345116 -2.89834,-0.601711 -5.54833,-0.620659l-0.00101249 -0.00101249 -0.0101249 0.00101249c-0.101394,-0.00072321 0.385326,-0.00101249 -0.30505,-0.00101249 -0.690087,0 -2.46456,0.0552533 -3.44451,0.149849l0 -7.25973c0.912402,-0.999621 2.63943,-1.3958 3.55631,-1.54087 2.7469,0.0148981 5.05032,0.569167 5.75748,1.16466l-0.00477319 8.10777z"/>
   <path id="_133097048" class="fil4" d="M711.922 -151.394c-1.13544,-0.500606 -6.14006,-0.631797 -9.30251,-0.392848l0 -8.31417c0.732467,-0.670416 1.83883,-1.0352 2.69974,-1.22873 0.243722,-0.00404998 -0.776149,-0.00607497 0.744617,-0.00607497 1.52091,0 5.14116,0.261947 5.86422,0.620225l-0.00607497 9.32146 0 0.000144642z"/>
   <path id="_133188888" class="fil4" d="M711.917 -143.009l0.00477319 -7.97614c-0.724657,-0.263972 -4.26477,-0.370139 -5.82155,-0.370139 -1.55678,0 -0.659568,0.00130178 -0.978504,0.00433926 -0.835163,0.208863 -1.83435,0.575531 -2.50245,1.20762l0 6.97016 0.758214 0.133215 2.6902 0.000289284 1.2999 0.000289284 1.02841 -0.0186588 2.49103 0.0196713 1.03014 0.0292177 -0.000144642 0.000144642z"/>
   <path id="_133130904" class="fil4" d="M702.043 -181.848c-0.869733,-1.13342 -6.28108,-1.68899 -8.98806,-1.6913 -1.93748,-0.00101249 -3.83996,0.500317 -4.63346,0.660002l-0.050914 -6.53392c0.0467194,-0.352203 0.251099,-0.602724 0.476596,-0.843263 1.99375,-2.12696 11.6558,-2.12957 13.2012,0.777596l-0.00535176 7.63117 0 -0.000289284z"/>
   <path id="_133128728" class="fil4" d="M702.037 -172.689c-0.854545,-0.623697 -7.07763,-1.08091 -9.50761,-1.08091 -2.42999,0 -2.93898,0.0956084 -4.10769,0.258909 0,-0.695584 0.0146088,-3.59696 0.0519265,-5.62629 0.019382,-1.06269 -0.0776728,-1.84722 0.0973441,-2.03439 0.710771,-0.757924 1.09885,-1.40086 4.07254,-1.79573 4.28227,-0.568733 8.36537,0.214215 9.39942,1.67611l-0.00578568 8.6023 -0.000144642 0z"/>
   <path id="_133145632" class="fil4" d="M702.029 -163.085c-0.829378,-0.374912 -5.96316,-0.653493 -9.12359,-0.674177l-0.00101249 -0.00101249 -0.0128731 0.00101249c-0.120342,-0.00101249 0.459672,-0.00101249 -0.36363,-0.00101249 -0.823013,0 -2.93898,0.0600265 -4.10769,0.162288l0 -7.88675c1.088,-1.08641 3.14785,-1.51686 4.24134,-1.67409 3.27672,0.0159106 8.53012,0.6182 9.37338,1.26504l-0.00578568 8.8087 -0.000144642 0z"/>
   <path id="_133139872" class="fil4" d="M702.023 -152.454c-1.35486,-0.543999 -9.83031,-0.686037 -13.6019,-0.426694l0 -9.03275c0.873204,-0.728417 2.19306,-1.12459 3.21973,-1.33519 0.290875,-0.00433926 -0.925709,-0.00679818 0.888102,-0.00679818 1.8141,0 8.63889,0.28509 9.50081,0.674177l-0.00679818 10.1273z"/>
   <path id="_133142752" class="fil4" d="M695.37 -133.954l1.32969 -0.110507 5.47166 -9.28891 -0.149415 -8.65755c-0.864381,-0.286825 -7.09628,-0.492217 -8.95277,-0.492217 -1.47954,0 -3.39793,0.328482 -4.6488,1.40693l0.0890995 7.5318 13.5065 0.0688496 0 0.371441 -11.1716 0.14739c-2.17238,-0.0308088 -2.18149,0.0752139 -2.09644,0.505379l6.62171 8.5171 0.000289284 0.000289284z"/>
   <polygon id="_133140448" class="fil4" points="723.376,-168.575 696.859,-138.977 699.437,-138.708 724.865,-167.572 "/>
   <polygon id="_133150816" class="fil4" points="723.353,-168.834 708.536,-140.876 710.882,-141.045 724.977,-167.541 "/>
   <path id="_133080096" class="fil4" d="M705.687 -134.044l1.22497 -0.0159106 4.91682 -8.78773 -8.14494 0.263682c-1.53407,-0.0302302 -4.02235,-0.31315 -3.96276,0.119619l5.96591 8.42019 0 0.000144642z"/>
   <polygon id="_133163560" class="fil5" points="699.934,-143.097 719.415,-164.959 719.31,-164.037 700.557,-143.105 "/>
   <polygon id="_133080184" class="fil5" points="708.95,-142.764 717.884,-159.315 718.229,-159.166 709.542,-142.774 "/>
   <polygon id="_133080136" class="fil5" points="714.977,-142.377 717.915,-152.237 718.289,-151.742 715.46,-142.386 "/>
   <polygon id="_133959256" class="fil4" points="712.482,-133.789 713.583,-133.779 717.832,-142.431 709.942,-142.282 707.235,-142.252 "/>
   <polygon id="_133961608" class="fil4" points="741.392,-167.94 742.76,-163.47 741.052,-165.374 729.906,-165.164 724.679,-160.778 724.376,-160.607 729.792,-166.17 741.083,-165.831 742.76,-163.47 741.392,-167.94 730.435,-168.205 727.111,-165.998 724.857,-167.628 720.833,-161.83 721.85,-156.548 722.345,-154.279 722.342,-148.882 724.651,-148.012 724.439,-150.147 741.037,-151.904 742.746,-149.347 740.977,-151.058 726.288,-149.95 724.439,-150.147 724.651,-148.012 727.471,-146.959 730.989,-146.835 731.266,-143.47 733.456,-143.449 735.105,-146.83 739.768,-146.603 741.589,-145.101 741.6,-136.994 739.466,-134.566 745.384,-134.729 744.961,-162.849 "/>
   <path id="_133086392" class="fil4" d="M745.335 -137.894l-0.471822 0.0115714 -0.121065 -9.36659 0.260645 -12.8114c0.705709,8.47588 8.73956,8.15391 8.61344,16.731 -4.98191,-0.602 -7.5684,3.19659 -8.28134,5.4355l0.000144642 -0.000144642z"/>
  </g>
  <polygon class="fil0" points="190.516,25.1867 190.516,20.5279 228.81,20.5273 228.81,25.1859 213.209,25.1862 213.209,58.4474 206.118,58.4475 206.117,25.1865 "/>
  <path id="_1_6" class="fil0" d="M227.952 58.4474l19.9972 -37.9201 7.51748 -0.000144642 19.9986 37.9195 -7.37544 0 -4.46785 -8.77543 -23.8273 0.000144642 -4.4677 8.77572 -7.37515 0.000144642 0.000144642 0.000144642zm23.756 -32.1782l-9.57299 18.7434 19.147 -0.000144642 -9.574 -18.7433z"/>
  <polygon id="_12_7" class="fil0" points="293.167,58.4465 273.949,20.527 281.537,20.5267 296.925,52.3792 312.313,20.5266 319.902,20.5263 300.685,58.4464 "/>
  <path id="_123_8" class="fil0" d="M362.425 58.4455l-10.7795 -14.7343 -10.4245 0 0.000289284 14.7345 -7.0918 0.000144642 -0.000578568 -37.9198 17.7288 -0.000144642c5.01156,-0.000289284 9.14818,1.04692 12.4104,3.14177 3.26211,2.09456 4.89324,4.91118 4.89324,8.45042 0.000144642,2.60023 -0.886367,4.8121 -2.65896,6.63603 -1.77302,1.82379 -4.19607,3.16911 -7.26884,4.0358l11.4883 15.6553 -8.2971 0.000144642 0.000144642 0zm-21.2039 -33.2607l0.000144642 13.8676 10.7789 0c2.97847,-0.000144642 5.40137,-0.596215 7.26899,-1.78792 1.86747,-1.19171 2.80114,-2.90702 2.80114,-5.14622 0,-2.2392 -0.933809,-3.95437 -2.80114,-5.14622 -1.86776,-1.19171 -4.29081,-1.78763 -7.26913,-1.78734l-10.7789 0 0 0.000144642z"/>
  <polygon id="_1234_9" class="fil0" points="387.997,58.4454 387.997,20.5257 395.087,20.5254 395.089,58.4452 "/>
  <path id="_12345_10" class="fil0" d="M414.067 58.4449l-0.000433926 -37.9198 15.105 -0.000144642c7.09166,-0.000289284 12.8951,1.67886 17.4097,5.03759 4.51515,3.35844 6.77258,7.999 6.77258,13.9218 0.000144642,5.9228 -2.25728,10.5634 -6.77214,13.9221 -4.51471,3.35859 -10.3179,5.03803 -17.4094,5.03832l-15.1054 0.000144642 0.000144642 0zm15.1047 -33.2612l-8.01332 0 0.000433926 28.6021 8.01346 0c5.20032,-0.000144642 9.30179,-1.20096 12.3035,-3.6026 3.00234,-2.40149 4.503,-5.96793 4.503,-10.6987 0,-4.73095 -1.50095,-8.29725 -4.50329,-10.6987 -3.00205,-2.40149 -7.10352,-3.60231 -12.3038,-3.60202z"/>
  <path id="_123456_11" class="fil0" d="M465.241 58.4442l19.9972 -37.9201 7.51748 -0.000144642 19.9986 37.9195 -7.37544 0 -4.46785 -8.77543 -23.8273 0.000144642 -4.4677 8.77572 -7.37515 0.000144642 0.000144642 0.000144642zm23.756 -32.1781l-9.57299 18.7434 19.147 -0.000144642 -9.574 -18.7433z"/>
  <polygon class="fil6" points="206.097,78.4401 206.097,69.3052 212.717,69.3052 212.717,78.4401 211.444,78.4401 211.444,70.4274 207.37,70.4274 207.37,78.4401 "/>
  <path id="_1_12" class="fil6" d="M214.805 78.44l-0.000289284 -9.13501 3.11921 0c0.959266,0 1.72732,0.254425 2.30458,0.763276 0.577411,0.508851 0.865827,1.21181 0.865827,2.10787 0,0.896058 -0.288416,1.59844 -0.865827,2.10729 -0.577266,0.50914 -1.34532,0.76371 -2.30429,0.76371l-1.84592 0 0 3.39287 -1.27299 0 -0.000289284 0zm1.27285 -8.01274l0.000144642 3.49745 1.82061 0c0.585511,0 1.05227,-0.147969 1.40057,-0.443907 0.347864,-0.295938 0.521869,-0.730587 0.521869,-1.30482 0,-0.574374 -0.174004,-1.00931 -0.522158,-1.30525 -0.347864,-0.295648 -0.814624,-0.443473 -1.40014,-0.443473l-1.8209 0z"/>
  <path id="_12_13" class="fil6" d="M229.555 70.3945c0.768339,0.865538 1.15222,2.02456 1.15222,3.47748 0,1.45307 -0.38388,2.61267 -1.15193,3.47821 -0.768049,0.865683 -1.7762,1.29845 -3.02389,1.29845 -1.24768,0 -2.25584,-0.432769 -3.02389,-1.29845 -0.768339,-0.865538 -1.15222,-2.02484 -1.15222,-3.47792 0,-1.45278 0.38388,-2.61209 1.15193,-3.47763 0.768194,-0.865683 1.7762,-1.29845 3.02418,-1.29845 1.24739,0 2.25555,0.432769 3.02345,1.29845l0.000144642 -0.000144642zm-0.948418 6.1726c0.517963,-0.639318 0.776873,-1.53769 0.776873,-2.69497 0,-1.15699 -0.258909,-2.05536 -0.776873,-2.69468 -0.517819,-0.639607 -1.2095,-0.959122 -2.07518,-0.959122 -0.865972,0 -1.55765,0.319514 -2.07518,0.959122 -0.518108,0.639318 -0.777017,1.53769 -0.777017,2.69468 0,1.15728 0.259054,2.05565 0.777017,2.69497 0.517529,0.639318 1.20921,0.959122 2.07518,0.959122 0.865683,0 1.55736,-0.319804 2.07518,-0.959122z"/>
  <polygon id="_123_14" class="fil6" points="239.441,69.3047 239.441,78.4397 238.168,78.4397 238.168,71.1837 233.865,78.4397 232.439,78.4397 232.438,69.3047 233.711,69.3047 233.712,76.5603 238.015,69.3047 "/>
  <path id="_1234_15" class="fil6" d="M242.522 71.8494l-1.06963 -0.274241c0.110362,-0.76559 0.426549,-1.37019 0.948418,-1.81367 0.522303,-0.443907 1.13963,-0.665643 1.85272,-0.665643 0.831547,0 1.51064,0.211033 2.03714,0.632954 0.526063,0.422066 0.789312,1.007 0.789312,1.75509 0,0.443907 -0.116582,0.846156 -0.350034,1.20718 -0.233597,0.361027 -0.537056,0.632809 -0.910522,0.815781 0.492506,0.156358 0.882606,0.430599 1.17131,0.822001 0.288561,0.391546 0.432914,0.861344 0.432914,1.40939 0,0.843986 -0.275832,1.54 -0.827353,2.08805 -0.552099,0.548049 -1.28182,0.822146 -2.19003,0.822146 -0.942198,0 -1.68899,-0.278291 -2.24079,-0.835163 -0.551665,-0.556872 -0.899529,-1.26576 -1.04388,-2.12711l1.15844 -0.300132c0.0935834,0.6263 0.316188,1.14817 0.66868,1.56575 0.352203,0.417582 0.829667,0.626445 1.43254,0.626445 0.534452,0 0.971561,-0.156503 1.31118,-0.469797 0.33933,-0.313005 0.509429,-0.739266 0.509429,-1.27893 0,-0.556872 -0.184708,-0.974454 -0.554124,-1.25289 -0.369271,-0.278291 -0.846735,-0.417582 -1.4321,-0.417582l-0.254859 0 0 -1.0961 0.229113 0c0.492506,0 0.893599,-0.136976 1.20313,-0.411217 0.309968,-0.273807 0.464735,-0.637004 0.464735,-1.08959 0,-0.400225 -0.142183,-0.732901 -0.426549,-0.998464 -0.284511,-0.265274 -0.668391,-0.397766 -1.15236,-0.397766 -0.441158,0 -0.816649,0.152019 -1.12647,0.45678 -0.309823,0.304327 -0.519988,0.713085 -0.63035,1.22656l0 0.000144642z"/>
  <path id="_12345_16" class="fil6" d="M249.308 78.4394l-0.000144642 -9.13487 3.71759 0c0.729864,0 1.36253,0.208719 1.89713,0.6263 0.534742,0.417582 0.802185,0.983132 0.802185,1.69665 0,0.878701 -0.37795,1.55288 -1.13313,2.02267 0.449837,0.174149 0.810574,0.447956 1.08207,0.822146 0.271782,0.374044 0.407601,0.826485 0.407601,1.35718 0,0.782948 -0.288561,1.41388 -0.865683,1.89235 -0.577411,0.478476 -1.26489,0.717714 -2.0626,0.717714l-3.84488 0 -0.000144642 -0.000144642zm1.27299 -4.09757l0 2.97529 2.57188 0c0.483683,0 0.880581,-0.128153 1.19026,-0.384893 0.309823,-0.25674 0.465024,-0.624275 0.465024,-1.1029 0,-0.478476 -0.155201,-0.846011 -0.465024,-1.10261 -0.309679,-0.25674 -0.706577,-0.384893 -1.19026,-0.384893l-2.57188 0zm-0.000144642 -3.91517l0.000144642 2.79275 2.40612 0c0.424524,0 0.774414,-0.121644 1.05039,-0.365366 0.275832,-0.243577 0.413676,-0.587391 0.413676,-1.03101 0,-0.434794 -0.148403,-0.776294 -0.445498,-1.02421 -0.29695,-0.248061 -0.657832,-0.372019 -1.08207,-0.372019l-2.34291 0 0.000144642 -0.000144642z"/>
  <path id="_123456_17" class="fil6" d="M264.605 70.394c0.768339,0.865683 1.15222,2.02456 1.15222,3.47748 0,1.45322 -0.38388,2.61267 -1.15193,3.47835 -0.768049,0.865683 -1.77606,1.29831 -3.02389,1.29831 -1.24768,0 -2.25584,-0.432624 -3.02389,-1.29831 -0.768339,-0.865683 -1.15222,-2.02499 -1.15222,-3.47792 0,-1.45278 0.38388,-2.61209 1.15193,-3.47777 0.768194,-0.865538 1.7762,-1.29831 3.02418,-1.29831 1.24739,0 2.25555,0.432769 3.0236,1.29831l0 -0.000144642zm-0.948273 6.1726c0.517819,-0.639318 0.776873,-1.53755 0.776873,-2.69483 0,-1.15699 -0.259054,-2.05536 -0.776873,-2.69468 -0.517819,-0.639607 -1.2095,-0.959266 -2.07518,-0.959266 -0.865972,0 -1.55765,0.319514 -2.07518,0.959266 -0.518108,0.639318 -0.777162,1.53769 -0.777162,2.69468 0,1.15728 0.259199,2.05551 0.777162,2.69483 0.517385,0.639463 1.20921,0.959266 2.07518,0.959266 0.865683,0 1.55736,-0.319804 2.07518,-0.959266z"/>
  <path id="_1234567_18" class="fil6" d="M268.888 72.4098l0 -3.1059 5.67865 0 0 8.01259 1.06948 -0.000144642 0 2.55771 -1.27299 0.000144642 0 -1.43528 -6.11156 0 0 1.43528 -1.27314 0 0 -2.55771 0.763999 0c0.3901,-0.687194 0.678661,-1.41142 0.865683,-2.17281 0.186733,-0.761396 0.279882,-1.6725 0.279882,-2.73402l0 0.000144642zm1.27314 0c0,1.87919 -0.343525,3.5148 -1.03115,4.90684l4.16323 0 0 -6.89031 -3.13208 0 0 1.98348z"/>
  <path id="_12345678_19" class="fil6" d="M283.583 75.3462l1.17146 0.273807c-0.220724,0.93974 -0.649298,1.67915 -1.28616,2.21881 -0.63628,0.539226 -1.43832,0.808983 -2.40612,0.808983 -1.24739,0 -2.2596,-0.435083 -3.03647,-1.30496 -0.776873,-0.870022 -1.16495,-2.02701 -1.16495,-3.47141 0,-1.43528 0.394584,-2.59039 1.18375,-3.46476 0.789312,-0.874361 1.7953,-1.31132 3.01738,-1.31132 0.959266,0 1.76377,0.250231 2.41306,0.750403 0.649009,0.500172 1.05849,1.19821 1.22845,2.09442l-1.23495 0.234899c-0.161131,-0.6263 -0.451862,-1.1094 -0.872047,-1.44859 -0.420185,-0.339186 -0.931784,-0.508851 -1.53436,-0.508851 -0.865393,0 -1.5617,0.321684 -2.08776,0.96563 -0.526208,0.643946 -0.789601,1.54 -0.789601,2.68817 0,1.1486 0.263538,2.04466 0.789601,2.68846 0.526208,0.643946 1.22223,0.96563 2.08805,0.96563 0.670416,0 1.21818,-0.191217 1.64241,-0.574229 0.424235,-0.382578 0.71728,-0.917754 0.878267,-1.60509l0 0z"/>
  <polygon id="_123456789_20" class="fil6" points="285.568,70.4261 285.568,69.3038 292.444,69.3038 292.444,70.4261 289.642,70.4261 289.642,78.4387 288.37,78.4387 288.37,70.4261 "/>
  <path id="_12345678910_21" class="fil6" d="M293.87 78.4387l-0.000144642 -9.13487 3.71759 0c0.729864,0 1.36253,0.208719 1.89713,0.6263 0.534742,0.417582 0.802185,0.983132 0.802185,1.69665 0,0.878701 -0.37795,1.55288 -1.13313,2.02267 0.449981,0.174149 0.810574,0.447956 1.08207,0.822146 0.271782,0.374044 0.407601,0.826485 0.407601,1.35718 0,0.782948 -0.288561,1.41388 -0.865683,1.89235 -0.577411,0.478476 -1.26489,0.717714 -2.0626,0.717714l-3.84488 0 -0.000144642 -0.000144642zm1.27299 -4.09757l0 2.97529 2.57188 0c0.483683,0 0.880581,-0.128153 1.1904,-0.384893 0.309679,-0.25674 0.46488,-0.624275 0.46488,-1.1029 0,-0.478476 -0.155201,-0.846011 -0.46488,-1.10261 -0.309823,-0.25674 -0.706721,-0.384893 -1.1904,-0.384893l-2.57188 0zm-0.000144642 -3.91503l0.000144642 2.7926 2.40612 0c0.424524,0 0.774414,-0.121644 1.05054,-0.365366 0.275688,-0.243577 0.413676,-0.587391 0.413676,-1.03101 0,-0.434794 -0.148547,-0.776294 -0.445642,-1.02421 -0.29695,-0.248061 -0.657832,-0.372019 -1.08207,-0.372019l-2.34291 0 0.000144642 0z"/>
  <path id="_1234567891011_22" class="fil6" d="M309.167 70.3931c0.768339,0.865538 1.15222,2.02456 1.15222,3.47748 0,1.45307 -0.38388,2.61267 -1.15207,3.47821 -0.768049,0.865683 -1.77606,1.29845 -3.02389,1.29845 -1.24754,0 -2.25569,-0.432769 -3.02374,-1.29845 -0.768339,-0.865538 -1.15222,-2.02484 -1.15222,-3.47792 0,-1.45278 0.38388,-2.61209 1.15193,-3.47763 0.768049,-0.865683 1.77606,-1.29845 3.02403,-1.29845 1.24754,0 2.25569,0.432769 3.0236,1.29845l0.000144642 -0.000144642zm-0.948418 6.1726c0.517819,-0.639318 0.776728,-1.53769 0.776728,-2.69497 0,-1.15699 -0.258909,-2.05536 -0.776728,-2.69468 -0.517963,-0.639607 -1.2095,-0.959122 -2.07532,-0.959122 -0.865972,0 -1.55751,0.319514 -2.07518,0.959122 -0.518108,0.639318 -0.777017,1.53769 -0.777017,2.69468 0,1.15728 0.259199,2.05565 0.777017,2.69497 0.517529,0.639318 1.20921,0.959122 2.07518,0.959122 0.865827,0 1.55736,-0.319804 2.07532,-0.959122z"/>
  <polygon id="_123456789101112_23" class="fil6" points="322.146,69.3035 322.146,78.4385 320.874,78.4385 320.874,71.1827 316.57,78.4385 315.143,78.4385 315.143,69.3035 316.418,69.3035 316.418,76.5593 320.719,69.3035 "/>
  <path id="_12345678910111213_24" class="fil6" d="M328.729 72.4091l0 -3.1059 5.67865 0 0 8.01259 1.06948 -0.000144642 0 2.55771 -1.27299 0.000144642 0 -1.43528 -6.11156 0 0 1.43528 -1.27299 0 0 -2.55771 0.763855 0c0.3901,-0.687194 0.678805,-1.41142 0.865683,-2.17281 0.186733,-0.761251 0.279882,-1.6725 0.279882,-2.73402l0 0.000144642zm1.27314 0c0,1.87919 -0.343525,3.5148 -1.03115,4.90684l4.16323 0 0 -6.89031 -3.13208 0 0 1.98348z"/>
  <path id="_1234567891011121314_25" class="fil6" d="M343.898 70.3925c0.768339,0.865683 1.15222,2.02456 1.15222,3.47748 0,1.45322 -0.38388,2.61267 -1.15207,3.47835 -0.768049,0.865683 -1.77606,1.29845 -3.02374,1.29845 -1.24768,0 -2.25584,-0.432769 -3.02389,-1.29845 -0.768339,-0.865683 -1.15222,-2.02499 -1.15222,-3.47792 0,-1.45278 0.38388,-2.61209 1.15193,-3.47777 0.768049,-0.865538 1.77606,-1.29831 3.02418,-1.29831 1.24739,0 2.25555,0.432769 3.02345,1.29831l0.000144642 -0.000144642zm-0.948418 6.1726c0.517819,-0.639318 0.776728,-1.53755 0.776728,-2.69483 0,-1.15699 -0.258909,-2.05536 -0.776728,-2.69468 -0.517963,-0.639607 -1.2095,-0.959122 -2.07518,-0.959122 -0.866117,0 -1.55765,0.31937 -2.07532,0.959122 -0.518108,0.639318 -0.777017,1.53769 -0.777017,2.69468 0,1.15728 0.259199,2.05551 0.777017,2.69483 0.517529,0.639463 1.20921,0.959266 2.07532,0.959266 0.865683,0 1.55722,-0.319804 2.07518,-0.959266z"/>
  <path id="_123456789101112131415_26" class="fil6" d="M353.147 75.3449l1.17146 0.273952c-0.220724,0.93974 -0.649298,1.67915 -1.28616,2.21881 -0.63628,0.539226 -1.43832,0.808983 -2.40612,0.808983 -1.24739,0 -2.2596,-0.435083 -3.03647,-1.30496 -0.776873,-0.870022 -1.16495,-2.02701 -1.16495,-3.47141 0,-1.43543 0.394584,-2.59039 1.18375,-3.46476 0.789312,-0.874361 1.7953,-1.31132 3.01738,-1.31132 0.959266,0 1.76362,0.250231 2.41306,0.750258 0.649009,0.500317 1.05849,1.19836 1.22845,2.09442l-1.23495 0.235043c-0.161131,-0.626445 -0.451862,-1.1094 -0.872047,-1.44859 -0.420185,-0.339186 -0.931784,-0.508851 -1.53436,-0.508851 -0.865393,0 -1.5617,0.321684 -2.08776,0.96563 -0.526352,0.643946 -0.789601,1.54 -0.789601,2.68817 0,1.1486 0.263538,2.04466 0.789601,2.68846 0.526208,0.643802 1.22223,0.96563 2.08805,0.96563 0.670271,0 1.21818,-0.191361 1.64241,-0.574229 0.424235,-0.382723 0.71728,-0.917754 0.878267,-1.60509l0 -0.000144642z"/>
  <polygon id="_12345678910111213141516_27" class="fil6" points="355.135,70.4249 355.135,69.3025 362.01,69.3025 362.01,70.4249 359.209,70.4249 359.209,78.4378 357.937,78.4378 357.937,70.4249 "/>
  <path id="_1234567891011121314151617_28" class="fil6" d="M362.519 78.4378l3.59031 -9.13501 1.34966 0 3.59059 9.13501 -1.32434 0 -0.801896 -2.11423 -4.27808 0 -0.801751 2.11423 -1.32434 0 -0.000144642 0zm4.26521 -7.7518l-1.71864 4.51515 3.43742 0 -1.71878 -4.51515z"/>
  <path id="_123456789101112131415161718_29" class="fil6" d="M372.222 78.4372l-0.000289284 -9.13487 3.71774 0c0.729864,0 1.36253,0.208719 1.89713,0.6263 0.534742,0.417582 0.802185,0.983132 0.802185,1.69665 0,0.878701 -0.37795,1.55288 -1.13313,2.02267 0.449837,0.174149 0.810574,0.447956 1.08207,0.822146 0.271782,0.374044 0.407601,0.826485 0.407601,1.35718 0,0.782948 -0.288561,1.41388 -0.865683,1.89235 -0.577411,0.478476 -1.26489,0.717714 -2.06274,0.717714l-3.84473 0 -0.000144642 -0.000144642zm1.27299 -4.09757l0 2.97529 2.57188 0c0.483683,0 0.880581,-0.128153 1.19026,-0.384893 0.309823,-0.25674 0.46488,-0.624275 0.46488,-1.1029 0,-0.478476 -0.155056,-0.846011 -0.46488,-1.10261 -0.309679,-0.25674 -0.706577,-0.384893 -1.19026,-0.384893l-2.57188 0zm-0.000144642 -3.91503l0.000144642 2.7926 2.40612 0c0.424524,0 0.774414,-0.121644 1.05039,-0.365366 0.275832,-0.243577 0.413676,-0.587391 0.413676,-1.03101 0,-0.434794 -0.148403,-0.776294 -0.445498,-1.02421 -0.29695,-0.248061 -0.657832,-0.372019 -1.08207,-0.372019l-2.34291 0 0.000144642 0z"/>
  <polygon id="_12345678910111213141516171819_30" class="fil6" points="380.675,78.4372 380.675,69.3024 381.947,69.3024 381.947,73.2566 385.207,69.3024 386.748,69.3024 383.144,73.6221 387.079,78.4372 385.462,78.4372 381.947,74.1438 381.947,78.4372 "/>
  <path id="_1234567891011121314151617181920_31" class="fil6" d="M387.333 78.4371l3.59031 -9.13501 1.3498 0 3.59045 9.13501 -1.32434 0 -0.801896 -2.11423 -4.27793 0 -0.801896 2.11423 -1.32434 0 -0.000144642 0zm4.26521 -7.7518l-1.71864 4.51515 3.43742 0 -1.71878 -4.51515z"/>
  <path id="_123456789101112131415161718192021_32" class="fil6" d="M272.544 89.5314l0 2.97529 2.57174 0c0.483683,0 0.880726,-0.128153 1.1904,-0.384893 0.309679,-0.25674 0.46488,-0.624275 0.46488,-1.1029 0,-0.478476 -0.155201,-0.845867 -0.46488,-1.10261 -0.309679,-0.25674 -0.706721,-0.384893 -1.1904,-0.384893l-2.57174 0zm2.57174 -1.12228c0.797701,0 1.48533,0.239238 2.0626,0.717714 0.577122,0.478476 0.865827,1.1094 0.865827,1.89221 0,0.782948 -0.288706,1.41388 -0.865827,1.89235 -0.577266,0.478476 -1.26489,0.717714 -2.0626,0.717714l-3.84488 0 -0.000144642 -9.13487 6.00915 0 0 1.12228 -4.73616 0 0.000289284 2.79275 2.57174 0 0 -0.000144642z"/>
  <polygon id="_12345678910111213141516171819202122_33" class="fil6" points="279.725,93.629 279.725,84.4943 285.352,84.4943 285.352,85.6164 280.997,85.6164 280.997,88.4615 285.021,88.4615 285.021,89.5836 280.997,89.5836 280.997,92.5068 285.453,92.5068 285.453,93.629 "/>
  <polygon id="_1234567891011121314151617181920212223_34" class="fil6" points="286.548,85.6162 286.548,84.494 293.424,84.494 293.424,85.6162 290.624,85.6162 290.624,93.6288 289.35,93.6288 289.35,85.6162 "/>
  <path id="_123456789101112131415161718192021222324_35" class="fil6" d="M301.693 85.5834c0.768339,0.865683 1.15222,2.02456 1.15222,3.47748 0,1.45307 -0.38388,2.61267 -1.15193,3.47821 -0.768194,0.865683 -1.7762,1.29845 -3.02389,1.29845 -1.24768,0 -2.25584,-0.432769 -3.02389,-1.29845 -0.768339,-0.865538 -1.15222,-2.02484 -1.15222,-3.47792 0,-1.45278 0.38388,-2.61209 1.15193,-3.47763 0.768049,-0.865683 1.7762,-1.29845 3.02418,-1.29845 1.24739,0 2.25555,0.432769 3.02345,1.29845l0.000144642 -0.000144642zm-0.948418 6.17274c0.517819,-0.639318 0.776873,-1.53769 0.776873,-2.69497 0,-1.15699 -0.259054,-2.05536 -0.776873,-2.69468 -0.517819,-0.639607 -1.2095,-0.959122 -2.07518,-0.959122 -0.865972,0 -1.55765,0.319514 -2.07532,0.959122 -0.518108,0.639318 -0.777017,1.53769 -0.777017,2.69468 0,1.15728 0.259199,2.05565 0.777017,2.69497 0.517529,0.639318 1.20935,0.959122 2.07532,0.959122 0.865683,0 1.55736,-0.319804 2.07518,-0.959122z"/>
  <polygon id="_12345678910111213141516171819202122232425_36" class="fil6" points="304.578,93.6285 304.576,84.4937 305.85,84.4937 305.85,88.4608 309.924,88.4608 309.924,84.4937 311.196,84.4937 311.198,93.6285 309.924,93.6285 309.924,89.5829 305.85,89.5829 305.85,93.6285 "/>
  <polygon id="_1234567891011121314151617181920212223242526_37" class="fil6" points="313.285,93.6285 313.285,84.4937 314.559,84.4937 314.559,88.4608 318.633,88.4608 318.633,84.4937 319.905,84.4937 319.905,93.6285 318.633,93.6285 318.633,89.5829 314.559,89.5829 314.559,93.6285 "/>
  <path id="_123456789101112131415161718192021222324252627_38" class="fil6" d="M323.268 89.5307l0 2.97543 2.57174 0c0.483683,0 0.880726,-0.128153 1.1904,-0.384893 0.309679,-0.25674 0.46488,-0.624275 0.46488,-1.1029 0,-0.478476 -0.155201,-0.846011 -0.46488,-1.10261 -0.309679,-0.25674 -0.706721,-0.385037 -1.1904,-0.385037l-2.57174 0zm-1.27328 -5.0373l1.27299 0 0.000289284 3.91503 2.57174 0c0.797701,0 1.48533,0.239238 2.0626,0.717714 0.577122,0.478476 0.865827,1.1094 0.865827,1.89221 0,0.782948 -0.288706,1.41388 -0.865827,1.89235 -0.577266,0.478476 -1.26489,0.717714 -2.0626,0.717714l-3.84488 0 -0.000144642 -9.13487 0 -0.000144642zm7.72823 9.13487l0 -9.13487 1.27299 -0.000289284 0 9.13501 -1.27299 0.000144642z"/>
  <polygon id="_12345678910111213141516171819202122232425262728_39" class="fil6" points="334.064,84.4932 335.987,87.7036 337.91,84.4932 339.322,84.4932 336.686,88.7997 339.653,93.6283 338.227,93.6283 335.987,89.9484 333.746,93.6283 332.32,93.6283 335.285,88.7997 332.651,84.4932 "/>
  <path id="_1234567891011121314151617181920212223242526272829_40" class="fil6" d="M350.437 90.5352l1.1716 0.273807c-0.220724,0.93974 -0.649298,1.67915 -1.28616,2.21881 -0.63628,0.539226 -1.43847,0.808983 -2.40612,0.808983 -1.24739,0 -2.25974,-0.435083 -3.03647,-1.30496 -0.776873,-0.870022 -1.16495,-2.02701 -1.16495,-3.47141 0,-1.43528 0.394439,-2.59039 1.18375,-3.46476 0.789312,-0.874361 1.7953,-1.31132 3.01738,-1.31132 0.959266,0 1.76362,0.250231 2.41292,0.750403 0.649154,0.500172 1.05864,1.19821 1.22859,2.09427l-1.2351 0.235043c-0.160987,-0.6263 -0.451862,-1.1094 -0.871902,-1.44859 -0.420185,-0.339186 -0.931784,-0.508851 -1.53436,-0.508851 -0.865393,0 -1.56185,0.321684 -2.08776,0.96563 -0.526352,0.643946 -0.789601,1.54 -0.789601,2.68817 0,1.1486 0.263538,2.04466 0.789601,2.68846 0.526208,0.643946 1.22223,0.96563 2.08791,0.96563 0.670416,0 1.21832,-0.191217 1.64256,-0.574229 0.424235,-0.382578 0.71728,-0.917754 0.878122,-1.60509l0 0z"/>
  <polygon id="_123456789101112131415161718192021222324252627282930_41" class="fil6" points="353.085,93.6275 353.085,84.4928 354.511,84.4928 357.479,92.4403 360.444,84.4928 361.87,84.4925 361.87,93.6274 360.598,93.6275 360.598,87.0766 358.153,93.6275 356.802,93.6275 354.359,87.0766 354.359,93.6275 "/>
  <polygon id="_12345678910111213141516171819202122232425262728293031_42" class="fil6" points="363.959,93.6275 363.959,84.4928 369.586,84.4928 369.586,85.6149 365.231,85.6149 365.231,88.4601 369.254,88.4601 369.254,89.5822 365.231,89.5822 365.231,92.5054 369.687,92.5054 369.687,93.6275 "/>
  <path id="_1234567891011121314151617181920212223242526272829303132_43" class="fil6" d="M377.809 90.5347l1.17146 0.273952c-0.220724,0.93974 -0.649298,1.67915 -1.28616,2.21866 -0.63628,0.53937 -1.43832,0.809128 -2.40612,0.809128 -1.24739,0 -2.2596,-0.435083 -3.03647,-1.30496 -0.776728,-0.870022 -1.16495,-2.02701 -1.16495,-3.47141 0,-1.43543 0.394584,-2.59039 1.1839,-3.46476 0.789167,-0.874361 1.79515,-1.31132 3.01738,-1.31132 0.959266,0 1.76362,0.250231 2.41292,0.750258 0.649154,0.500172 1.05864,1.19836 1.22859,2.09442l-1.2351 0.235043c-0.160987,-0.626445 -0.451862,-1.1094 -0.871902,-1.44859 -0.420185,-0.33933 -0.931784,-0.508995 -1.53451,-0.508995 -0.865393,0 -1.5617,0.321829 -2.08776,0.965775 -0.526208,0.643946 -0.789601,1.54 -0.789601,2.68817 0,1.1486 0.263538,2.04466 0.789601,2.68846 0.526352,0.643802 1.22223,0.96563 2.08805,0.96563 0.670416,0 1.21818,-0.191361 1.64241,-0.574229 0.42438,-0.382723 0.717425,-0.917754 0.878267,-1.60509l0 -0.000144642z"/>
  <polygon id="_123456789101112131415161718192021222324252627282930313233_44" class="fil6" points="380.459,93.6274 380.459,84.4925 386.086,84.4925 386.086,85.6148 381.731,85.6148 381.731,88.4598 385.754,88.4598 385.754,89.582 381.731,89.582 381.731,92.5051 386.189,92.5051 386.189,93.6274 "/>
  <path id="_12345678910111213141516171819202122232425262728293031323334_45" class="fil6" d="M394.947 93.6274l0 -9.13501 -1.42617 0 -4.30325 7.25582 -0.000144642 -7.25582 -1.27314 0 0.000289284 9.13501 1.42588 0 4.30339 -7.25582 0 7.25582 1.27314 0zm-2.38732 -10.4204c-0.267443,0.265418 -0.638739,0.3982 -1.11403,0.3982 -0.475149,0 -0.84659,-0.132781 -1.11418,-0.3982 -0.267009,-0.265274 -0.401092,-0.645827 -0.401092,-1.14166l0.916741 0c0,0.487299 0.199751,0.730587 0.598529,0.730587 0.398923,0 0.598095,-0.243433 0.598095,-0.730587l0.917031 0c0,0.495833 -0.133649,0.876386 -0.401092,1.14166z"/>
  <path class="fil7" d="M48.8429 3.43482l0.432191 -0.432191 0.431757 -0.432191 0.242709 -0.242709 0.342946 0 1.29585 0 0.392848 0 0.250809 0.313873 3.45593 4.3206 0.092137 0.115858 0.0467194 0.13958 0.345695 1.03781 0.634545 0.453453 0 -2.09673 0 -1.0595 1.02913 0.257318 1.7276 0.432191 0.220001 0.054964 0.165037 0.165037 0.863947 0.863947 0.134228 0.134517 0.0630639 0.189192 0.431757 1.29614 0.160987 0.48296 -0.358278 0.358278 -0.431757 0.432191 0 0.00303748 -0.431757 0.432191 -0.0017357 -0.0017357 -0.0640764 0.0640764 0.0640764 0.0640764 0.0017357 -0.0017357 0.431757 0.432191 0.431757 0.432191 0 0.00303748 0.309534 0.309534 0.0156213 0.00650889 0.00303748 -0.0905459 0.22839 -0.22839 0.431757 -0.432191 0.239672 -0.239238 0.346128 -0.000289284 0.0857727 0 0.192519 -0.192519 0.242709 -0.242709 0.342946 0 3.45564 0 0.342946 0 0.24242 0.242709 0.863947 0.863947 0 0.00332677 0.432191 0.432191 0.0789746 0.0789746 0.056989 0.101973 0.148403 0.26672c0.0444051,-0.0186588 0.0799871,-0.0355819 0.112242,-0.050914 0.28885,-0.137555 0.442315,-0.210888 1.17753,-0.210888 0.292466,0 0.498292,0.111519 0.793796,0.271782l-0.00072321 0.00130178c0.358568,0.194254 0.958543,0.518542 1.86632,0.59419l0.299988 0.0250231 0.217976 0.217542 0.189192 0.189481 0.0888102 0 0.346418 0 0.239238 0.239238 0.137265 0.137265 2.59936 -0.404998 0.948707 -0.147824 0.0027482 0.963316 0.0017357 0.661304 0.215517 -0.496556 0.380698 -0.876531 0.81014 0.497858 3.12745 1.92114 0.446799 0.274241 -0.0582908 0.521579 -0.125115 1.12098 1.44628 1.44628 0.0017357 -0.00130178 0.299264 0.299264 1.10159 0.367391 0.194254 0.0647996 0.132492 0.132492 0.431757 0.432191 0.239672 0.239238 0 0.0809996 0.380987 -0.381276 -0.0640764 -0.0640764 -0.239672 -0.239238 0.000289284 -0.346418 0 -0.863947 -0.000289284 -0.346128 0.239672 -0.239672 0.192519 -0.192519 0 -0.517963 0 -1.1447 1.08395 0.361605 1.29585 0.431757 0.189481 0.0630639 0.137265 0.137555 0.432191 0.432191 0.373466 0.3739 1.1891 0.792783 0.812165 0.40601 0.53344 0.26672 -0.0837478 0.587391 -0.425392 2.97905 0 0.114267 0.182683 -0.146088 0.287838 0 0.521001 0 0.189481 -0.189481 0.159974 -0.159974 0.21219 -0.056555c0.676202,-0.180947 0.76776,-0.285379 0.833138,-0.360303 0.290152,-0.332243 0.465747,-0.533151 1.53986,-0.533151 0.723355,0 1.22729,0.142039 1.60524,0.519265l0.0017357 -0.0017357c0.375925,0.375925 0.51724,0.880581 0.51724,1.60697l0 1.72833 0 0.967077 -0.95753 -0.151874 -0.512901 -0.0809996 0.0671139 0.135964 0.820988 1.66092 0.339909 0.339909 0.24242 0.242709 0.000289284 0.342657 0 1.29643 0 0.440001 -0.369127 0.246036 -1.22772 0.818529 -0.101394 0.101394c0.432769,-0.191506 0.81043,-0.366089 1.06023,-0.481658 0.302736,-0.13958 0.485708,-0.22434 0.673164,-0.22434l2.5917 0 1.3362 0 -0.59824 1.19677 -0.453453 0.907774 1.35168 1.35168 1.3877 0 1.29585 0 0.466037 0 0.242709 0.404419 1.13891 1.89886 1.00295 0.334557 0.189481 0.0630639 0.137265 0.137555 0.432191 0.432191 0.24242 0.242709 0 0.33962 0.000289284 2.34494 0.679239 1.01958 0.805656 0.805656 0.161999 0.161999 0.054964 0.219711 0.412519 1.65109 0.386773 0.773112 0.0905459 0.18167 0 0.187456 0 0.521001 0.189192 0.189481 0.242709 0.242709 0 0.342946 0 1.29614 0 0.438555 -0.368837 0.247483c-0.0935834,0.0627747 -0.248061,0.159685 -0.44839,0.285379 -0.736951,0.46271 -2.2097,0.990075 -2.2097,1.1891l0.00332677 0c0,0.628759 0.410494,1.45438 0.968379,2.26047 0.661593,0.955795 1.50457,1.84086 2.15806,2.37604 0.595202,-0.329784 1.34561,-0.712507 2.09239,-0.712507l0 0.00332677c0.531849,0 1.22396,0.473847 2.1313,1.0948 1.34286,0.918911 3.25763,2.22922 4.84797,2.36143l0.299988 0.0250231 0.217542 0.217542 0.430166 0.430744 0.0017357 -0.0017357 0.432191 0.431757 0.0746353 0.0749246 0.0613282 0.109494 0.234609 0.421342 2.50245 0.0189481 0.217542 0 5.32963 -2.87057 0.342946 -0.34338 0.24242 -0.242709 0.34338 0 0.520567 0 0.189481 -0.189481 0.24242 -0.242709 0.34338 0 0.520567 0 0.189481 -0.189192 0.245747 -0.246036 0.339909 0 0.899529 0 0 -0.0358712 0 -0.342657 0.242709 -0.242999 0.431757 -0.431757 0.0017357 0.0017357 0.187456 -0.187745 0 -1.8209 0 -0.465747 0.404419 -0.242709 2.0707 -1.24291 0.116582 -0.116582 0 -0.092137 0 -0.432191 0.00303748 0 0 -0.864381 0 -0.251533 0.13929 -0.207706c0.0539515,-0.0807103 0.122656,-0.197002 0.188469,-0.308088 0.443039,-0.749391 0.800594,-1.35371 2.22517,-1.35371l0.431757 0 0 -0.00332677c0.527076,0 1.03043,0.117594 1.41518,0.374189 0.438989,0.2929 0.709035,0.725669 0.709035,1.31812l-0.00303748 0c0,0.912402 -0.108771,1.23582 -0.260645,1.68725 -0.029507,0.0888102 -0.0616175,0.183985 -0.0956084,0.298686 0.415267,0.501619 1.11649,1.13949 1.90291,1.63981 0.663329,0.422355 1.36499,0.730732 1.94761,0.730732 0.550508,0 1.17406,-0.458949 1.68363,-0.834151l0.0796978 -0.05858 0 -1.73542 0 -0.438989 0.368837 -0.247049c2.15126,-1.44092 3.87048,-2.19668 5.90559,-2.61397 1.9897,-0.407746 4.23628,-0.476885 7.49622,-0.549785l0.316911 -0.00679818 0.239672 0.207417 1.63503 1.4185c0.735505,-0.444774 1.30525,-0.758214 2.57564,-0.758214 0.493808,0 1.2419,0.688062 1.97914,1.36672 0.217976,0.200329 0.434939,0.399935 0.62225,0.566418 0.459962,-0.398634 0.746353,-0.636859 1.7182,-0.636859 0.665643,0 1.49039,0.668102 2.23573,1.50659 1.03998,1.17044 2.04828,2.85538 2.04828,3.21019l-0.00332677 0c0,0.418305 -0.831403,1.56387 -1.75335,2.35434 -0.685314,0.587681 -1.46841,1.06326 -2.095,1.06326l0 0.00303748 -1.29614 0c-0.939884,0 -1.48085,-0.18196 -1.86357,-0.387062 0.0633532,0.217976 0.0969102,0.487444 0.0969102,0.855124 0,0.988773 -0.443617,1.18332 -1.06934,1.45756 -0.352203,0.154188 -0.85686,0.375491 -1.21919,1.68696 -0.0820121,0.297963 -0.294491,0.88087 -0.521579,1.50428 -0.261658,0.717569 -0.545011,1.49517 -0.621672,1.75031 0.00130178,-0.00130178 0.0027482,-0.00101249 0.00404998,0.00231427 0.2362,0.527799 0.780923,1.74554 0.835163,3.65756l1.60871 1.85547 0.419317 0.483683 -0.364353 0.525774c-0.524327,0.756478 -1.43586,1.70967 -2.40482,2.46253 -0.849483,0.659568 -1.77172,1.18708 -2.58041,1.34734 -0.627023,0.124392 -1.24363,0.0956084 -1.85807,0.0671139 -0.614584,-0.0284945 -1.22671,-0.056989 -1.71574,0.110507 -0.521001,0.178344 -0.648141,0.471533 -0.74158,0.687339 -0.284366,0.657543 -0.48296,1.11649 -1.53581,0.931495l0.000289284 -0.00202499 -8.21986 -1.31812 -1.80803 1.63171 -0.239672 0.21624 -0.326746 -0.00578568c-2.49204,-0.0436819 -3.04139,0.476162 -3.46201,0.874217 -0.45244,0.42843 -0.821278,0.777596 -1.78329,0.777596 -0.50509,0 -0.800305,-0.427707 -1.27618,-1.1175 -1.2795,-1.85576 -4.59253,-6.65975 -9.52251,-6.65975 -1.53335,0 -2.90412,0.446076 -4.04983,1.14629 1.40534,1.54998 0.379975,4.83755 -2.40323,3.84271 -0.179645,-0.0643657 1.0595,4.82468 -4.15282,3.10575 -3.90403,-0.44058 -9.49951,1.26866 -9.71532,4.38642 -0.18977,2.73836 -0.74563,3.4905 -1.25202,3.95524 -0.938872,1.1609 -3.68172,1.79978 -5.3276,2.14258 -0.558608,0.0951745 -0.671862,0.831403 -1.07035,1.14296 -0.886656,0.693559 -2.41943,0.951745 -3.53187,0.182972 -0.383301,-0.264695 -0.715255,-1.29643 -1.15352,-1.3229 -1.21138,-0.0736228 -2.76252,0.993836 -4.36298,1.4551 -2.14562,0.619213 -3.2909,1.07339 -5.56727,2.47873 -0.81014,0.499883 -1.39348,0.820554 -1.88758,1.09205 -1.23307,0.677937 -1.87442,1.03014 -3.40675,2.77395 -0.61039,0.694137 -0.836899,1.46624 -1.0595,2.22517 -0.33528,1.14224 -0.663618,2.26076 -1.94153,3.29567 0.0358712,0.0996584 0.0661014,0.161999 0.0915584,0.214938 0.145076,0.301 0.218554,0.453887 0.218554,1.18809 0,1.49574 -1.17854,1.70591 -2.44922,1.70591l0 0.00332677c-0.056989,0 -0.266431,-0.00535176 -0.481947,-0.0108482 -0.508128,0.917175 -0.949431,1.52728 -1.67105,1.95469 -0.726392,0.430166 -1.64386,0.59795 -3.11226,0.624709 -0.39386,0.660291 -0.572783,1.18288 -0.719884,1.61233 -0.442315,1.29209 -0.672152,1.96294 -3.30073,2.76078 -0.295214,0.0895334 -1.29961,0.566708 -2.36316,1.07238 -1.49372,0.710048 -3.09592,1.47173 -3.57555,1.47173l-0.431757 0c-1.1596,0 -1.64256,-0.266431 -2.12595,-0.532427 -0.301,-0.16576 -0.60229,-0.331809 -1.32969,-0.331809l0 0.00332677c-1.04432,0 -1.5711,0.190204 -2.09745,0.380264 -0.670127,0.241697 -1.33982,0.483683 -2.65433,0.483683l0 -0.00303748 -0.863658 0 0 0.00303748c-1.59106,0.000289284 -1.84925,-0.667089 -2.21476,-1.61073 -0.0179356,-0.0471533 -0.0365944,-0.0951745 -0.0562658,-0.144353 -2.48755,-0.173137 -2.73735,-1.16639 -3.06988,-2.48727 -0.163735,-0.649732 -0.359291,-1.42632 -1.30467,-2.16833 -0.118606,0.0348587 -0.21624,0.0678371 -0.306786,0.0983566 -0.457214,0.15361 -0.78396,0.263682 -1.68667,0.263682 -0.917899,0 -2.92148,-1.28558 -4.6812,-2.73562 -1.83855,-1.51411 -3.49021,-3.30782 -3.49021,-4.14168 0,-2.03106 3.76648,-2.85437 5.71785,-3.27904 0.229113,-1.0352 0.689798,-1.33722 1.14368,-1.63446 0.245024,-0.160697 0.484696,-0.317634 0.484696,-1.56763l0 -0.851074 -0.148403 -8.20974 -0.00954638 -0.531849 0.478621 -0.22839 1.14195 -4.26332 2.99727 -0.0159106 -1.33374 -2.8156c0,-3.05976 -1.36021,-4.3287 -2.67429,-6.49732 -1.39551,-2.30314 -3.34514,-4.09178 -5.44491,-5.32456l-0.492506 0.661593 -0.240974 0.32342 -0.402973 0.00983566 -1.65774 0.0413676c-0.53561,0.843263 -1.14875,1.74221 -2.61846,1.74221 -1.33722,0.000289284 -3.6013,-1.85098 -5.89604,-4.22543 -2.92987,-3.03155 -6.03938,-6.98346 -7.13794,-8.78932l-4.27866 -0.478621 -3.83316 0.0963316 -0.019382 0.00332677c-0.294925,0 -0.997886,0.469074 -1.70056,0.937859 -0.915874,0.611402 -1.83204,1.22266 -2.61903,1.22266l0 -0.00332677 -0.431757 0 0 0.00332677c-0.713085,0 -1.89611,-0.244011 -3.0923,-0.562947 -1.52424,-0.406444 -3.11602,-0.948418 -3.74305,-1.24942l-0.581316 -0.279015 0.128442 -0.630061 0.220001 -1.0799 -0.561356 -0.232584 -0.516951 -0.214215 0.00911245 -0.562368c0.00477319,-0.298252 0.0423801,-0.593177 0.109783,-0.883618 0.554847,-2.38081 3.21973,-4.99955 6.33156,-6.99156 2.95865,-1.89365 6.37235,-3.25835 8.76661,-3.32344 -0.0769496,-0.297239 -0.124681,-0.642355 -0.124681,-1.23785 0,-0.776583 1.14904,-1.82828 2.65982,-2.86247 2.15126,-1.47246 5.14839,-3.1085 6.03533,-3.50887 0.156213,-0.0701514 0.3172,-0.141315 0.514926,-0.228824 1.18462,-0.523026 3.65554,-1.61406 3.90881,-1.86154 0.795242,-0.777162 0.723644,-1.4995 0.665064,-2.09644 -0.122367,-1.23857 -0.216529,-2.19306 1.94891,-2.77163l1.0151 -0.271204 0.023432 1.05415c0.017357,0.776583 0.157226,1.36528 0.45244,1.73108 0.253268,0.313584 0.679528,0.481369 1.31407,0.481369 1.41749,0 4.20532,-2.32686 6.33127,-4.10133 0.89895,-0.750114 1.68667,-1.40766 2.28014,-1.80528l0.390823 -0.261947 0.42438 0.203656c0.180658,0.0867852 0.272506,0.13524 0.35177,0.176897 0.24647,0.130178 0.330507,0.174149 1.01987,0.174149l0 -0.00332677 1.47549 -0.0141749c1.38943,-0.37795 1.32593,-1.74554 3.276,-2.14591 2.37271,0 0.838924,-0.688062 1.8734,-1.146l-1.80354 0.163446 -1.28934 0.116871 0.435228 -1.21687 1.43991 -4.0264 -0.671862 -0.0148981 -0.64438 -0.0141749 -0.145076 -0.623263c-0.0704407,-0.302013 -0.134951,-0.493519 -0.191217,-0.66058 -0.15361,-0.457648 -0.263682,-0.784683 -0.263682,-1.68725 0,-0.758214 0.544288,-1.25043 1.06905,-1.60567 -0.202644,-0.438555 -0.457648,-1.00063 -0.655518,-1.46262 -0.235911,-0.550797 -0.413532,-1.03723 -0.413532,-1.25246l0.00332677 0c0,-0.846735 0.290441,-0.998609 0.67895,-1.20154 0.0368837,-0.019382 0.086062,-0.0451283 0.149849,-0.650745l-0.15766 -0.15766 -0.242709 -0.242709 0 -0.33962 0 -0.953481 -0.189192 -0.189192 -0.359291 -0.359291 0.161999 -0.485419 0.431757 -1.29614 0.0643657 -0.194254 0.132926 -0.132492 -0.000144642 0.000867852z"/>
  <path class="fil4" d="M56.2925 82.7762l0 2.48958 48.4769 -0.103998c2.03613,-0.00752139 2.21534,-0.0905459 2.22995,-2.32859l-50.7067 -0.056989 -0.000144642 0z"/>
  <polygon class="fil4" points="84.9894,49.0451 76.5457,76.9872 79.4458,75.1891 86.592,50.0794 84.9668,48.7859 "/>
  <path class="fil4" d="M79.4121 42.6427c-0.975177,-1.46291 -3.96363,-1.5225 -5.43811,-1.39146 -0.0183695,0.00130178 0,0.0206838 0,-0.000289284l0.00404998 -6.57326c0,-0.0297963 -0.00781067,0.00433926 0.0176463,-0.00130178 2.05479,-0.48296 4.65588,-0.10718 5.42017,1.54695l-0.00376069 6.41936z"/>
  <path class="fil4" d="M79.4076 50.3472c-0.624709,-0.525051 -3.66161,-0.908786 -5.43854,-0.908786 -0.00650889,0 -0.000289284,0.00708746 -0.000289284,0l0.00477319 -7.4793c0,-0.15361 -0.129455,0.0260356 0.00506247,-0.00101249 2.08053,-0.418883 4.64677,-0.126706 5.43305,1.15251l-0.00404998 7.23659z"/>
  <path class="fil4" d="M79.403 58.4263c-0.60605,-0.315175 -3.12788,-0.54776 -5.43912,-0.564683l0 0 0.00477319 -7.90136c0,-0.00853388 -0.00708746,0 0,0 2.396,0.0131624 4.82222,0.512178 5.43883,1.05618l-0.00433926 7.40987 -0.000144642 0z"/>
  <path class="fil4" d="M79.3981 67.3692c-0.687773,-0.317634 -3.16043,-0.471822 -5.43955,-0.464012 -0.054964,0 0,0.0627747 0,0l0.00506247 -8.62226c0.212913,-0.00376069 -1.32637,0 0,0 1.32637,0 4.80877,0.239672 5.43912,0.566997l-0.00477319 8.51927 0.000144642 0z"/>
  <path class="fil4" d="M79.3939 75.0319l0.00404998 -7.28982c-0.631797,-0.240974 -4.08064,-0.337884 -5.43811,-0.337884 -0.142762,0 -0.00101249,-0.114267 0,0l0.0580015 7.46208 0 0 4.47754 0.13929 0.898517 0.0264695 0 -0.000144642z"/>
  <path class="fil4" d="M73.5537 39.1707c-0.729141,-1.0433 -3.16477,-1.55476 -5.43406,-1.55649 -1.62419,-0.00130178 -3.22002,0.460251 -3.88509,0.607352l-0.000289284 -5.76731c0.117883,-0.207417 0.26672,-0.423367 0.455912,-0.644959 1.67177,-1.95773 7.57245,-2.33872 8.86801,0.337305l-0.00433926 7.02411 -0.000144642 0z"/>
  <path class="fil4" d="M73.5489 47.6005c-0.716557,-0.573795 -3.83215,-0.995137 -5.87001,-0.995137 -2.03743,0 -2.46456,0.088087 -3.44451,0.238659 0,-0.975466 -0.302302,-6.55026 0.125405,-7.05116 1.58831,-1.86053 7.80633,-2.2635 9.19374,-0.109783l-0.00477319 7.91756 0.000144642 -0.000144642z"/>
  <path class="fil4" d="M73.5437 56.4414c-0.695584,-0.345116 -2.89834,-0.601711 -5.54833,-0.620948l-0.00101249 -0.00072321 -0.0101249 0.00072321c-0.101394,-0.000289284 0.385037,-0.00072321 -0.30505,-0.00072321 -0.690377,0 -2.46456,0.0552533 -3.44451,0.149849l-0.000289284 -7.25973c0.912402,-0.999621 2.63972,-1.3958 3.5566,-1.54116 2.7469,0.0148981 5.05032,0.569456 5.75704,1.16466l-0.00433926 8.10806z"/>
  <path class="fil4" d="M73.5378 66.2261c-1.13587,-0.500606 -6.14006,-0.631507 -9.3028,-0.392559l0 -8.31417c0.732178,-0.670416 1.83883,-1.0352 2.69974,-1.22873 0.243722,-0.00433926 -0.776149,-0.00607497 0.744617,-0.00607497 1.52091,-0.000289284 5.14116,0.261947 5.86422,0.619936l-0.00578568 9.32146 0 0.000144642z"/>
  <path class="fil4" d="M73.5326 74.611l0.00506247 -7.97614c-0.724946,-0.263972 -4.26506,-0.370428 -5.82184,-0.370428 -1.55678,0.000289284 -0.659568,0.0017357 -0.978504,0.00477319 -0.835163,0.208863 -1.83435,0.575531 -2.50245,1.20762l0 6.97016 0.758214 0.133215 2.6902 0.000289284 1.30019 0.000289284 1.02797 -0.0186588 2.49103 0.0196713 1.03014 0.0292177z"/>
  <path class="fil4" d="M63.6564 35.7726c-0.869733,-1.13342 -6.28152,-1.68899 -8.98806,-1.69101 -1.93748,-0.00130178 -3.83996,0.500317 -4.63346,0.660002l-0.0512033 -6.53435c0.0471533,-0.35177 0.251099,-0.60229 0.476596,-0.842974 1.99375,-2.12696 11.6558,-2.13 13.2012,0.777162l-0.00506247 7.63117z"/>
  <path class="fil4" d="M63.6508 44.9306c-0.854835,-0.623697 -7.07763,-1.08091 -9.5079,-1.08091 -2.42999,0.000289284 -2.93869,0.0958977 -4.10769,0.258909 0,-0.69515 0.0146088,-3.59667 0.0519265,-5.62585 0.019382,-1.06269 -0.0776728,-1.84722 0.0973441,-2.03439 0.710482,-0.758214 1.09885,-1.40086 4.07254,-1.79573 4.28227,-0.568733 8.36537,0.213926 9.39942,1.67582l-0.00535176 8.6023 -0.000289284 -0.000144642z"/>
  <path class="fil4" d="M63.6441 54.5356c-0.829088,-0.374912 -5.96287,-0.653493 -9.12359,-0.674177l-0.00101249 -0.00101249 -0.0125839 0.00101249c-0.120342,-0.00101249 0.459672,-0.00101249 -0.36363,-0.00101249 -0.823303,0 -2.93898,0.0600265 -4.10769,0.162288l-0.000289284 -7.88675c1.088,-1.08597 3.14785,-1.51643 4.24134,-1.67409 3.27672,0.0159106 8.53041,0.6182 9.37338,1.26504l-0.00578568 8.8087 -0.000144642 0z"/>
  <path class="fil4" d="M63.6373 65.166c-1.35486,-0.54371 -9.82987,-0.686037 -13.6019,-0.426694l0 -9.03232c0.873204,-0.728417 2.19306,-1.12503 3.21973,-1.33519 0.290875,-0.00477319 -0.925709,-0.00679818 0.888102,-0.00679818 1.8141,0 8.63846,0.28509 9.50052,0.673887l-0.00650889 10.1273 0 -0.000144642z"/>
  <path class="fil4" d="M56.9852 83.6668l1.32998 -0.110217 5.47109 -9.28935 -0.149415 -8.65755c-0.864381,-0.286825 -7.09628,-0.492217 -8.95277,-0.492217 -1.47925,0.000289284 -3.39793,0.328771 -4.6488,1.40737l0.0895334 7.5318 13.5065 0.0684157 0 0.371441 -11.1716 0.147824c-2.17267,-0.0308088 -2.18149,0.0752139 -2.09644,0.505379l6.62171 8.51681 0.000144642 0.000289284z"/>
  <polygon class="fil4" points="84.9891,49.0451 58.4747,78.6433 61.0507,78.9119 86.4805,50.0476 "/>
  <polygon class="fil4" points="84.9668,48.7859 70.1504,76.744 72.4966,76.5751 86.5917,50.0794 "/>
  <path class="fil4" d="M67.3015 83.5761l1.22497 -0.0159106 4.91682 -8.78773 -8.14537 0.263682c-1.53378,-0.0302302 -4.02235,-0.31315 -3.96276,0.119619l5.9662 8.42019 0.000144642 0.000144642z"/>
  <polygon class="fil5" points="61.5477,74.5234 81.0288,52.6614 80.9239,53.5829 62.1715,74.5161 "/>
  <polygon class="fil5" points="70.5657,74.8562 79.497,58.3049 79.8431,58.4543 71.1561,74.8468 "/>
  <polygon class="fil5" points="76.5907,75.2431 79.531,65.383 79.9029,65.8785 77.0759,75.234 "/>
  <polygon class="fil4" points="74.0972,83.8311 75.197,83.8411 79.4455,75.1891 71.5579,75.338 68.8509,75.3686 "/>
  <polygon class="fil4" points="103.006,49.6796 104.374,54.1505 102.667,52.2459 91.5197,52.4565 86.2948,56.8417 85.9901,57.0131 91.4048,51.4499 102.698,51.7884 104.374,54.1505 103.006,49.6796 92.0495,49.4149 88.7253,51.622 86.4717,49.9922 82.4471,55.7895 83.4638,61.0715 83.9588,63.3408 83.9576,68.7374 86.2657,69.6083 86.0539,67.4726 102.651,65.7165 104.36,68.2725 102.592,66.5621 87.902,67.6695 86.0539,67.4726 86.2657,69.6083 89.0853,70.661 92.6045,70.7848 92.8813,74.15 95.0718,74.1703 96.7188,70.7899 101.382,71.0162 103.205,72.5186 103.215,80.6252 101.081,83.0541 106.999,82.8908 106.577,54.7707 "/>
  <path class="fil4" d="M106.951 79.7253l-0.471822 0.0115714 -0.121355 -9.36659 0.260645 -12.8114c0.705709,8.47588 8.73956,8.15391 8.61372,16.731 -4.9822,-0.602 -7.5684,3.19659 -8.28134,5.4355l0.000144642 -0.000144642z"/>
  <path class="fil8" d="M413.627 67.677l99.05 -0.00159106 0.000433926 25.7288 -99.05 0.00159106 -0.000433926 -25.7288zm5.7475 5.14116l9.80673 -0.000144642c1.63373,0 2.88865,0.370284 3.76098,1.10796 0.875952,0.73753 1.31436,1.65109 1.31436,2.7375 0,0.913415 -0.311559,1.6981 -0.935111,2.3526 -0.418739,0.434939 -1.02624,0.780489 -1.82784,1.03231 1.21572,0.266286 2.11148,0.726537 2.68803,1.3741 0.572059,0.650889 0.860042,1.46754 0.860042,2.44966 0,0.802185 -0.205102,1.52178 -0.611402,2.16211 -0.410783,0.640475 -0.966932,1.14397 -1.67741,1.51802 -0.437832,0.230415 -1.10102,0.399212 -1.98868,0.503644 -1.18042,0.140447 -1.96149,0.212479 -2.34826,0.212479l-9.04129 0 -0.000144642 -15.4501 0 -0.000144642zm5.28421 6.06094l2.27724 0c0.816794,0 1.38524,-0.129455 1.7088,-0.384748 0.319659,-0.259054 0.47703,-0.629627 0.47703,-1.11157 0,-0.449548 -0.157371,-0.802185 -0.47703,-1.05401 -0.323564,-0.255293 -0.880147,-0.381276 -1.67365,-0.381276l-2.31239 0 0 2.93161zm0 6.06889l2.67212 -0.000289284c0.90329,0 1.53856,-0.143919 1.90566,-0.435373 0.371007,-0.291454 0.556872,-0.683144 0.556872,-1.17637 0,-0.45649 -0.181815,-0.823592 -0.549061,-1.10058 -0.366668,-0.276845 -1.00627,-0.417437 -1.92591,-0.417003l-2.65982 0 0 3.12962 0.000144642 0zm13.1143 -12.1301l14.033 -0.000289284 0.000289284 3.29871 -8.78513 0 0 2.45703 8.14986 0 0 3.15117 -8.14942 0 0 3.04312 9.04143 -0.000144642 0 3.50019 -14.2901 0.000289284 0 -15.4501zm15.9197 -0.000289284l15.9197 -0.000144642 0 3.81653 -5.34337 0 0.000144642 11.6336 -5.23706 0.000144642 -0.000144642 -11.6337 -5.33917 0.000289284 -0.000144642 -3.81667zm16.82 7.73372c0,-2.52169 0.773401,-4.48607 2.31239,-5.88881 1.54319,-1.40635 3.68982,-2.1083 6.44048,-2.1083 2.82197,0 4.99637,0.690521 6.5235,2.07214 1.52337,1.37757 2.28882,3.31303 2.28882,5.79856 0,1.80586 -0.334846,3.28771 -1.00208,4.44268 -0.667089,1.15468 -1.62983,2.05392 -2.88865,2.69801 -1.26287,0.643802 -2.82949,0.963895 -4.71215,0.963895 -1.91029,0 -3.49253,-0.27699 -4.74759,-0.830679 -1.25086,-0.557884 -2.26538,-1.43528 -3.04674,-2.63697 -0.777162,-1.20154 -1.16798,-2.70481 -1.16798,-4.51066l0 0.000144642zm5.24082 0.021407c0,1.56112 0.315898,2.67993 0.951166,3.36351 0.635557,0.679673 1.50341,1.02161 2.5969,1.02161 1.12474,0 1.99678,-0.334702 2.61224,-1.0002 0.615886,-0.669259 0.927445,-1.86704 0.927445,-3.59378 0,-1.45669 -0.323854,-2.51793 -0.966932,-3.19051 -0.643223,-0.669259 -1.51527,-1.00382 -2.62034,-1.00382 -1.05372,0 -1.90248,0.338318 -2.5418,1.02175 -0.639029,0.679962 -0.958688,1.80933 -0.958688,3.3813l0 0.000144642zm15.1779 -7.75585l4.89353 0 6.38146 8.54704 -0.000144642 -8.54704 4.93692 -0.000289284 0.000289284 15.4504 -4.93707 0 -6.34979 -8.48239 0 8.48239 -4.92492 0.000144642 -0.000289284 -15.4502z"/>
 </g>
</svg>
