<?xml version="1.0" encoding="utf-8"?>
<!-- Generator: Adobe Illustrator 17.0.1, SVG Export Plug-In . SVG Version: 6.00 Build 0)  -->
<!DOCTYPE svg PUBLIC "-//W3C//DTD SVG 1.1//EN" "http://www.w3.org/Graphics/SVG/1.1/DTD/svg11.dtd">
<svg version="1.1" id="Слой_1" xmlns="http://www.w3.org/2000/svg" xmlns:xlink="http://www.w3.org/1999/xlink" x="0px" y="0px"
	 width="251px" height="69px" viewBox="0 0 251 69" enable-background="new 0 0 251 69" xml:space="preserve">
<g>
	<path fill-rule="evenodd" clip-rule="evenodd" fill="#3C3C3B" d="M72.618,45.747h3.82v4.656h-0.647v-4.106h-2.531v4.106h-0.642
		V45.747L72.618,45.747z M77.489,50.403v-4.656h1.832c0.322,0,0.569,0.015,0.738,0.044c0.239,0.038,0.439,0.111,0.601,0.218
		c0.161,0.106,0.291,0.257,0.389,0.449c0.098,0.193,0.147,0.404,0.147,0.635c0,0.396-0.131,0.732-0.394,1.006
		c-0.264,0.273-0.739,0.411-1.425,0.411h-1.246v1.893H77.489L77.489,50.403z M78.132,47.96h1.257c0.415,0,0.71-0.074,0.884-0.222
		c0.174-0.148,0.261-0.357,0.261-0.625c0-0.195-0.051-0.362-0.154-0.501c-0.103-0.139-0.237-0.23-0.406-0.274
		c-0.109-0.027-0.308-0.041-0.599-0.041h-1.243V47.96L78.132,47.96z M81.671,48.135c0-0.773,0.216-1.378,0.649-1.815
		c0.433-0.437,0.992-0.656,1.677-0.656c0.448,0,0.853,0.103,1.212,0.308c0.36,0.206,0.634,0.492,0.823,0.86
		c0.189,0.366,0.283,0.784,0.283,1.249c0,0.473-0.098,0.895-0.297,1.267c-0.199,0.373-0.481,0.655-0.845,0.847
		c-0.365,0.192-0.758,0.287-1.18,0.287c-0.458,0-0.866-0.105-1.226-0.318c-0.361-0.211-0.633-0.501-0.819-0.867
		C81.763,48.932,81.671,48.544,81.671,48.135L81.671,48.135z M82.333,48.145c0,0.562,0.157,1.003,0.472,1.326
		c0.316,0.323,0.71,0.485,1.185,0.485c0.484,0,0.882-0.163,1.194-0.489c0.312-0.326,0.469-0.789,0.469-1.389
		c0-0.378-0.068-0.709-0.201-0.992c-0.133-0.283-0.329-0.502-0.586-0.658c-0.258-0.155-0.546-0.233-0.866-0.233
		c-0.456,0-0.847,0.15-1.175,0.45C82.497,46.944,82.333,47.445,82.333,48.145L82.333,48.145z M87.155,45.747h0.582v3.687
		l2.584-3.687h0.647v4.656h-0.584v-3.678l-2.588,3.678h-0.642V45.747L87.155,45.747z M91.758,49.088l0.613-0.153
		c0.046,0.226,0.17,0.453,0.372,0.68c0.202,0.227,0.471,0.34,0.804,0.34c0.339,0,0.609-0.083,0.804-0.251
		c0.197-0.167,0.295-0.369,0.295-0.606c0-0.256-0.104-0.46-0.311-0.611c-0.208-0.152-0.491-0.228-0.848-0.228h-0.309v-0.537
		c0.296,0,0.523-0.016,0.68-0.049c0.157-0.033,0.295-0.116,0.416-0.252c0.12-0.134,0.18-0.287,0.18-0.458
		c0-0.203-0.081-0.379-0.247-0.53c-0.164-0.151-0.387-0.226-0.667-0.226c-0.245,0-0.455,0.059-0.628,0.176
		c-0.174,0.118-0.294,0.273-0.36,0.467c-0.067,0.194-0.099,0.338-0.099,0.434l-0.616-0.133c0.153-0.989,0.723-1.483,1.71-1.483
		c0.474,0,0.851,0.127,1.13,0.379c0.278,0.253,0.417,0.549,0.417,0.888c0,0.434-0.215,0.771-0.644,1.009
		c0.248,0.066,0.455,0.199,0.622,0.402c0.166,0.203,0.25,0.444,0.25,0.725c0,0.401-0.162,0.736-0.485,1.006
		c-0.323,0.27-0.753,0.404-1.288,0.404C92.631,50.482,92.034,50.018,91.758,49.088L91.758,49.088z M96.094,50.403v-4.656h1.823
		c0.371,0,0.669,0.048,0.892,0.141c0.225,0.094,0.4,0.24,0.527,0.436c0.127,0.195,0.191,0.4,0.191,0.615
		c0,0.198-0.057,0.386-0.17,0.562c-0.112,0.176-0.283,0.318-0.51,0.426c0.294,0.082,0.519,0.223,0.677,0.422
		c0.158,0.2,0.238,0.435,0.238,0.706c0,0.218-0.049,0.421-0.145,0.608s-0.215,0.332-0.356,0.434
		c-0.141,0.102-0.319,0.178-0.532,0.23c-0.213,0.052-0.474,0.078-0.784,0.078H96.094L96.094,50.403z M96.737,47.704h1.051
		c0.284,0,0.489-0.018,0.613-0.054c0.163-0.047,0.286-0.123,0.369-0.232c0.083-0.108,0.124-0.244,0.124-0.407
		c0-0.154-0.038-0.29-0.115-0.407c-0.078-0.118-0.189-0.198-0.331-0.242c-0.144-0.043-0.39-0.065-0.74-0.065h-0.97V47.704
		L96.737,47.704z M96.737,49.853h1.209c0.208,0,0.354-0.008,0.438-0.022c0.148-0.026,0.271-0.068,0.371-0.128
		c0.1-0.059,0.181-0.145,0.245-0.258c0.063-0.114,0.096-0.244,0.096-0.393c0-0.173-0.046-0.324-0.139-0.453
		c-0.093-0.128-0.222-0.218-0.387-0.27c-0.164-0.051-0.402-0.077-0.71-0.077h-1.123V49.853L96.737,49.853z M100.226,48.135
		c0-0.773,0.216-1.378,0.649-1.815c0.433-0.437,0.992-0.656,1.677-0.656c0.448,0,0.853,0.103,1.212,0.308
		c0.36,0.206,0.634,0.492,0.823,0.86c0.189,0.366,0.283,0.784,0.283,1.249c0,0.473-0.098,0.895-0.297,1.267
		c-0.199,0.373-0.481,0.655-0.845,0.847c-0.365,0.192-0.758,0.287-1.18,0.287c-0.458,0-0.866-0.105-1.226-0.318
		c-0.361-0.211-0.633-0.501-0.819-0.867C100.319,48.932,100.226,48.544,100.226,48.135L100.226,48.135z M100.889,48.145
		c0,0.562,0.157,1.003,0.472,1.326c0.316,0.323,0.71,0.485,1.185,0.485c0.484,0,0.882-0.163,1.194-0.489
		c0.312-0.326,0.469-0.789,0.469-1.389c0-0.378-0.068-0.709-0.201-0.992c-0.133-0.283-0.329-0.502-0.586-0.658
		c-0.258-0.155-0.546-0.233-0.866-0.233c-0.456,0-0.847,0.15-1.175,0.45C101.053,46.944,100.889,47.445,100.889,48.145
		L100.889,48.145z M105.992,45.747h2.955v4.106h0.438v1.636h-0.574v-1.086h-3.211v1.086h-0.573v-1.636h0.378
		c0.391-0.565,0.587-1.707,0.587-3.427V45.747L105.992,45.747z M108.304,46.297h-1.693v0.238c0,0.396-0.036,0.937-0.111,1.624
		c-0.074,0.687-0.219,1.252-0.435,1.694h2.239V46.297L108.304,46.297z M113.611,48.77l0.644,0.156
		c-0.135,0.505-0.378,0.891-0.727,1.158c-0.351,0.266-0.778,0.398-1.285,0.398c-0.524,0-0.949-0.102-1.277-0.306
		c-0.328-0.205-0.578-0.501-0.749-0.888c-0.171-0.388-0.257-0.804-0.257-1.249c0-0.485,0.096-0.907,0.29-1.268
		c0.193-0.361,0.468-0.635,0.826-0.823c0.356-0.188,0.749-0.281,1.177-0.281c0.486,0,0.895,0.118,1.226,0.356
		c0.331,0.237,0.562,0.57,0.692,1l-0.632,0.143c-0.113-0.339-0.276-0.585-0.491-0.74c-0.214-0.155-0.483-0.232-0.809-0.232
		c-0.373,0-0.684,0.086-0.935,0.257c-0.251,0.172-0.427,0.402-0.528,0.692c-0.102,0.288-0.153,0.586-0.153,0.893
		c0,0.397,0.06,0.742,0.18,1.037c0.121,0.295,0.308,0.516,0.562,0.662c0.254,0.146,0.529,0.219,0.826,0.219
		c0.36,0,0.664-0.1,0.914-0.298C113.355,49.458,113.523,49.162,113.611,48.77L113.611,48.77z M116.058,50.403v-4.106h-1.6v-0.55
		h3.85v0.55H116.7v4.106H116.058L116.058,50.403z M118.939,50.403v-4.656h1.823c0.371,0,0.668,0.048,0.892,0.141
		c0.225,0.094,0.4,0.24,0.527,0.436c0.127,0.195,0.191,0.4,0.191,0.615c0,0.198-0.057,0.386-0.17,0.562
		c-0.112,0.176-0.283,0.318-0.51,0.426c0.294,0.082,0.519,0.223,0.677,0.422c0.158,0.2,0.238,0.435,0.238,0.706
		c0,0.218-0.049,0.421-0.145,0.608c-0.096,0.188-0.215,0.332-0.356,0.434c-0.141,0.102-0.319,0.178-0.532,0.23
		c-0.213,0.052-0.474,0.078-0.784,0.078H118.939L118.939,50.403z M119.583,47.704h1.051c0.284,0,0.489-0.018,0.613-0.054
		c0.163-0.047,0.286-0.123,0.369-0.232c0.082-0.108,0.124-0.244,0.124-0.407c0-0.154-0.038-0.29-0.115-0.407
		c-0.078-0.118-0.189-0.198-0.331-0.242c-0.144-0.043-0.39-0.065-0.74-0.065h-0.97V47.704L119.583,47.704z M119.583,49.853h1.209
		c0.208,0,0.354-0.008,0.438-0.022c0.148-0.026,0.271-0.068,0.371-0.128c0.1-0.059,0.181-0.145,0.245-0.258
		c0.063-0.114,0.096-0.244,0.096-0.393c0-0.173-0.046-0.324-0.139-0.453c-0.093-0.128-0.222-0.218-0.387-0.27
		c-0.164-0.051-0.401-0.077-0.71-0.077h-1.123V49.853L119.583,49.853z M123.072,48.135c0-0.773,0.216-1.378,0.649-1.815
		c0.433-0.437,0.992-0.656,1.677-0.656c0.448,0,0.853,0.103,1.212,0.308c0.36,0.206,0.634,0.492,0.823,0.86
		c0.189,0.366,0.283,0.784,0.283,1.249c0,0.473-0.098,0.895-0.297,1.267c-0.199,0.373-0.481,0.655-0.845,0.847
		c-0.365,0.192-0.758,0.287-1.18,0.287c-0.458,0-0.866-0.105-1.226-0.318c-0.361-0.211-0.633-0.501-0.819-0.867
		C123.165,48.932,123.072,48.544,123.072,48.135L123.072,48.135z M123.735,48.145c0,0.562,0.157,1.003,0.472,1.326
		c0.316,0.323,0.71,0.485,1.185,0.485c0.484,0,0.882-0.163,1.194-0.489c0.312-0.326,0.469-0.789,0.469-1.389
		c0-0.378-0.068-0.709-0.201-0.992c-0.133-0.283-0.329-0.502-0.586-0.658c-0.258-0.155-0.546-0.233-0.866-0.233
		c-0.456,0-0.847,0.15-1.175,0.45C123.899,46.944,123.735,47.445,123.735,48.145L123.735,48.145z M130.441,45.747h0.582v3.687
		l2.584-3.687h0.647v4.656h-0.584v-3.678l-2.588,3.678h-0.642V45.747L130.441,45.747z M137.635,45.747h2.955v4.106h0.438v1.636
		h-0.574v-1.086h-3.211v1.086h-0.573v-1.636h0.378c0.391-0.565,0.587-1.707,0.587-3.427V45.747L137.635,45.747z M139.947,46.297
		h-1.693v0.238c0,0.396-0.036,0.937-0.111,1.624c-0.074,0.687-0.219,1.252-0.435,1.694h2.239V46.297L139.947,46.297z
		 M141.594,48.135c0-0.773,0.216-1.378,0.649-1.815c0.433-0.437,0.992-0.656,1.677-0.656c0.448,0,0.853,0.103,1.212,0.308
		c0.36,0.206,0.635,0.492,0.823,0.86c0.189,0.366,0.283,0.784,0.283,1.249c0,0.473-0.098,0.895-0.297,1.267
		c-0.199,0.373-0.481,0.655-0.845,0.847c-0.365,0.192-0.758,0.287-1.18,0.287c-0.458,0-0.866-0.105-1.226-0.318
		c-0.361-0.211-0.633-0.501-0.819-0.867C141.687,48.932,141.594,48.544,141.594,48.135L141.594,48.135z M142.257,48.145
		c0,0.562,0.157,1.003,0.472,1.326c0.316,0.323,0.71,0.485,1.185,0.485c0.484,0,0.882-0.163,1.194-0.489
		c0.312-0.326,0.469-0.789,0.469-1.389c0-0.378-0.068-0.709-0.201-0.992c-0.133-0.283-0.329-0.502-0.586-0.658
		c-0.258-0.155-0.546-0.233-0.866-0.233c-0.456,0-0.847,0.15-1.175,0.45C142.421,46.944,142.257,47.445,142.257,48.145
		L142.257,48.145z M150.533,48.77l0.644,0.156c-0.135,0.505-0.378,0.891-0.727,1.158c-0.351,0.266-0.778,0.398-1.285,0.398
		c-0.524,0-0.949-0.102-1.277-0.306c-0.328-0.205-0.578-0.501-0.749-0.888c-0.171-0.388-0.257-0.804-0.257-1.249
		c0-0.485,0.096-0.907,0.29-1.268s0.468-0.635,0.826-0.823c0.356-0.188,0.749-0.281,1.177-0.281c0.486,0,0.895,0.118,1.226,0.356
		c0.331,0.237,0.562,0.57,0.692,1l-0.632,0.143c-0.113-0.339-0.276-0.585-0.491-0.74c-0.214-0.155-0.483-0.232-0.809-0.232
		c-0.373,0-0.684,0.086-0.935,0.257c-0.251,0.172-0.427,0.402-0.528,0.692c-0.102,0.288-0.153,0.586-0.153,0.893
		c0,0.397,0.06,0.742,0.18,1.037c0.121,0.295,0.308,0.516,0.562,0.662c0.254,0.146,0.529,0.219,0.826,0.219
		c0.36,0,0.664-0.1,0.914-0.298C150.276,49.458,150.445,49.162,150.533,48.77L150.533,48.77z M152.979,50.403v-4.106h-1.6v-0.55
		h3.85v0.55h-1.607v4.106H152.979L152.979,50.403z M155.129,50.403h0.683l0.533-1.41h2.031l0.567,1.41h0.733l-1.988-4.656h-0.692
		L155.129,50.403L155.129,50.403z M156.531,48.491l0.534-1.365c0.113-0.295,0.2-0.591,0.262-0.89
		c0.075,0.253,0.19,0.574,0.344,0.966l0.508,1.289H156.531L156.531,48.491z M160.162,50.403v-4.656h1.823
		c0.371,0,0.668,0.048,0.892,0.141c0.225,0.094,0.4,0.24,0.527,0.436c0.127,0.195,0.191,0.4,0.191,0.615
		c0,0.198-0.057,0.386-0.17,0.562c-0.112,0.176-0.283,0.318-0.51,0.426c0.294,0.082,0.519,0.223,0.678,0.422
		c0.158,0.2,0.237,0.435,0.237,0.706c0,0.218-0.049,0.421-0.145,0.608s-0.215,0.332-0.356,0.434
		c-0.141,0.102-0.319,0.178-0.531,0.23c-0.213,0.052-0.474,0.078-0.784,0.078H160.162L160.162,50.403z M160.806,47.704h1.051
		c0.284,0,0.489-0.018,0.613-0.054c0.163-0.047,0.286-0.123,0.369-0.232c0.083-0.108,0.124-0.244,0.124-0.407
		c0-0.154-0.038-0.29-0.115-0.407c-0.078-0.118-0.189-0.198-0.332-0.242c-0.144-0.043-0.39-0.065-0.74-0.065h-0.97V47.704
		L160.806,47.704z M160.806,49.853h1.209c0.208,0,0.354-0.008,0.438-0.022c0.148-0.026,0.271-0.068,0.371-0.128
		c0.1-0.059,0.181-0.145,0.245-0.258c0.063-0.114,0.096-0.244,0.096-0.393c0-0.173-0.046-0.324-0.139-0.453
		c-0.093-0.128-0.222-0.218-0.387-0.27c-0.164-0.051-0.401-0.077-0.71-0.077h-1.123V49.853L160.806,49.853z M164.726,45.747h0.642
		v2.039c0.294,0,0.5-0.054,0.62-0.164c0.119-0.11,0.271-0.371,0.457-0.786c0.135-0.305,0.245-0.52,0.334-0.646
		c0.087-0.126,0.212-0.232,0.372-0.318c0.162-0.086,0.339-0.129,0.534-0.129c0.248,0,0.378,0.002,0.391,0.007v0.533
		c-0.023,0-0.066-0.001-0.13-0.003c-0.07-0.002-0.113-0.003-0.129-0.003c-0.206,0-0.357,0.048-0.457,0.143
		c-0.102,0.095-0.218,0.299-0.348,0.61c-0.163,0.394-0.301,0.642-0.414,0.745c-0.113,0.102-0.248,0.184-0.404,0.246
		c0.313,0.082,0.622,0.36,0.927,0.831l1.001,1.55h-0.799l-0.812-1.264c-0.223-0.349-0.411-0.589-0.56-0.72
		c-0.15-0.13-0.345-0.195-0.584-0.195v2.179h-0.642V45.747L164.726,45.747z M168.134,50.403L170,45.747h0.692l1.988,4.656h-0.733
		l-0.567-1.41h-2.031l-0.533,1.41H168.134L168.134,50.403z M169.536,48.491h1.648l-0.508-1.289
		c-0.154-0.391-0.269-0.713-0.344-0.966c-0.062,0.299-0.149,0.595-0.262,0.89L169.536,48.491L169.536,48.491z M175.109,45.747h3.151
		v0.55h-2.507v1.435h1.159c0.429,0,0.769,0.039,1.022,0.118c0.252,0.078,0.456,0.226,0.607,0.442c0.153,0.217,0.23,0.469,0.23,0.758
		c0,0.235-0.055,0.454-0.164,0.659c-0.11,0.204-0.273,0.371-0.49,0.5c-0.216,0.129-0.585,0.194-1.106,0.194h-1.902V45.747
		L175.109,45.747z M175.753,49.879h1.285c0.347,0,0.607-0.068,0.78-0.204c0.174-0.135,0.26-0.338,0.26-0.609
		c0-0.193-0.05-0.354-0.149-0.483c-0.098-0.129-0.238-0.215-0.414-0.257c-0.176-0.042-0.478-0.064-0.905-0.064h-0.857V49.879
		L175.753,49.879z M179.547,50.403v-4.656h3.512v0.55h-2.869v1.425h2.687v0.546h-2.687v1.585h2.982v0.55H179.547L179.547,50.403z
		 M185.296,50.403v-4.106h-1.6v-0.55h3.85v0.55h-1.607v4.106H185.296L185.296,50.403z M187.704,48.135
		c0-0.773,0.216-1.378,0.649-1.815c0.433-0.437,0.992-0.656,1.677-0.656c0.448,0,0.853,0.103,1.212,0.308
		c0.36,0.206,0.634,0.492,0.823,0.86c0.189,0.366,0.283,0.784,0.283,1.249c0,0.473-0.098,0.895-0.297,1.267
		c-0.199,0.373-0.481,0.655-0.845,0.847c-0.365,0.192-0.758,0.287-1.18,0.287c-0.458,0-0.866-0.105-1.226-0.318
		c-0.361-0.211-0.633-0.501-0.819-0.867C187.796,48.932,187.704,48.544,187.704,48.135L187.704,48.135z M188.366,48.145
		c0,0.562,0.157,1.003,0.472,1.326c0.316,0.323,0.71,0.485,1.185,0.485c0.484,0,0.882-0.163,1.194-0.489
		c0.312-0.326,0.469-0.789,0.469-1.389c0-0.378-0.068-0.709-0.201-0.992c-0.133-0.283-0.329-0.502-0.586-0.658
		c-0.258-0.155-0.546-0.233-0.866-0.233c-0.456,0-0.847,0.15-1.175,0.45C188.53,46.944,188.366,47.445,188.366,48.145
		L188.366,48.145z M193.197,50.403v-4.656h0.644v1.912h2.524v-1.912h0.643v4.656h-0.643v-2.194h-2.524v2.194H193.197L193.197,50.403
		z M198.097,50.403v-4.656h0.643v1.912h2.524v-1.912h0.643v4.656h-0.643v-2.194h-2.524v2.194H198.097L198.097,50.403z
		 M203.011,45.747h0.643v1.988h1.159c0.76,0,1.26,0.134,1.5,0.403c0.24,0.269,0.36,0.573,0.36,0.915c0,0.36-0.129,0.674-0.384,0.944
		c-0.257,0.27-0.733,0.406-1.428,0.406h-1.849V45.747L203.011,45.747z M203.655,49.879h1.176c0.404,0,0.697-0.065,0.879-0.196
		c0.183-0.13,0.274-0.338,0.274-0.623c0-0.195-0.055-0.358-0.165-0.489c-0.111-0.132-0.253-0.216-0.428-0.251
		c-0.175-0.036-0.466-0.054-0.875-0.054h-0.861V49.879L203.655,49.879z M207.256,45.747h0.642v4.656h-0.642V45.747L207.256,45.747z
		 M208.492,50.403l1.88-2.426l-1.657-2.23h0.764l0.882,1.195c0.183,0.247,0.313,0.438,0.39,0.571
		c0.109-0.169,0.236-0.346,0.384-0.53l0.978-1.236h0.699l-1.707,2.194l1.839,2.462h-0.795l-1.223-1.661
		c-0.069-0.095-0.139-0.199-0.213-0.311c-0.109,0.169-0.185,0.285-0.232,0.349l-1.219,1.623H208.492L208.492,50.403z M218.863,48.77
		l0.643,0.156c-0.135,0.505-0.378,0.891-0.727,1.158c-0.351,0.266-0.778,0.398-1.285,0.398c-0.524,0-0.949-0.102-1.277-0.306
		c-0.328-0.205-0.578-0.501-0.749-0.888c-0.171-0.388-0.257-0.804-0.257-1.249c0-0.485,0.096-0.907,0.29-1.268
		s0.468-0.635,0.826-0.823c0.356-0.188,0.749-0.281,1.177-0.281c0.486,0,0.895,0.118,1.226,0.356s0.562,0.57,0.692,1l-0.632,0.143
		c-0.113-0.339-0.276-0.585-0.491-0.74c-0.214-0.155-0.483-0.232-0.809-0.232c-0.373,0-0.684,0.086-0.935,0.257
		c-0.251,0.172-0.427,0.402-0.528,0.692c-0.102,0.288-0.153,0.586-0.153,0.893c0,0.397,0.06,0.742,0.18,1.037
		c0.121,0.295,0.308,0.516,0.562,0.662c0.254,0.146,0.529,0.219,0.826,0.219c0.36,0,0.664-0.1,0.914-0.298
		C218.606,49.458,218.775,49.162,218.863,48.77L218.863,48.77z M220.202,50.403v-4.656h0.968l1.149,3.296
		c0.106,0.307,0.184,0.537,0.232,0.689c0.055-0.169,0.141-0.418,0.259-0.747l1.163-3.239h0.865v4.656h-0.62v-3.897l-1.411,3.897
		h-0.58l-1.405-3.963v3.963H220.202L220.202,50.403z M225.888,50.403v-4.656h3.512v0.55h-2.869v1.425h2.687v0.546h-2.687v1.585
		h2.982v0.55H225.888L225.888,50.403z M233.866,48.77l0.643,0.156c-0.135,0.505-0.378,0.891-0.727,1.158
		c-0.351,0.266-0.778,0.398-1.285,0.398c-0.524,0-0.949-0.102-1.277-0.306c-0.328-0.205-0.578-0.501-0.749-0.888
		c-0.171-0.388-0.257-0.804-0.257-1.249c0-0.485,0.096-0.907,0.29-1.268c0.193-0.361,0.468-0.635,0.826-0.823
		c0.356-0.188,0.749-0.281,1.177-0.281c0.486,0,0.895,0.118,1.226,0.356c0.331,0.237,0.562,0.57,0.692,1l-0.632,0.143
		c-0.113-0.339-0.276-0.585-0.491-0.74c-0.214-0.155-0.483-0.232-0.808-0.232c-0.373,0-0.684,0.086-0.935,0.257
		c-0.251,0.172-0.427,0.402-0.528,0.692c-0.102,0.288-0.153,0.586-0.153,0.893c0,0.397,0.06,0.742,0.18,1.037
		c0.121,0.295,0.308,0.516,0.562,0.662c0.255,0.146,0.529,0.219,0.826,0.219c0.36,0,0.664-0.1,0.914-0.298
		C233.609,49.458,233.778,49.162,233.866,48.77L233.866,48.77z M235.315,50.403v-4.656h3.512v0.55h-2.869v1.425h2.687v0.546h-2.687
		v1.585h2.982v0.55H235.315L235.315,50.403z M239.838,45.747h0.582v3.687l2.584-3.687h0.647v4.656h-0.583v-3.678l-2.588,3.678
		h-0.642V45.747L239.838,45.747z M242.254,44.639h0.407c-0.033,0.264-0.133,0.468-0.303,0.609c-0.169,0.142-0.394,0.214-0.674,0.214
		c-0.283,0-0.509-0.07-0.677-0.211c-0.17-0.141-0.27-0.345-0.303-0.611h0.407c0.031,0.144,0.093,0.251,0.184,0.322
		c0.092,0.071,0.215,0.106,0.369,0.106c0.18,0,0.314-0.034,0.406-0.103C242.161,44.896,242.223,44.788,242.254,44.639z"/>
</g>
<g>
	<polygon fill="#3C3C3B" points="21.675,38.676 8.986,60.656 35.293,60.656 35.293,38.676 	"/>
	<polygon fill="#3C3C3B" points="46.102,60.656 72.409,60.656 59.72,38.676 46.102,38.676 	"/>
	<polygon fill="#3C3C3B" points="40.697,5.729 27.916,27.868 53.479,27.868 	"/>
</g>
<g>
	<path fill="#C90C0F" d="M68.674,21.972h13.539v3.227H77.77v15.755h-4.652V25.199h-4.443V21.972z"/>
	<path fill="#C90C0F" d="M91.272,37.564h-4.895l-0.833,3.39h-4.791l5.658-18.982h4.825l5.658,18.982h-4.79L91.272,37.564z
		 M87.175,34.337h3.298l-1.666-6.671L87.175,34.337z"/>
	<path fill="#C90C0F" d="M98.489,40.954V21.972h6.318c3.922,0,6.387,1.627,6.387,5.288c0,1.898-0.972,3.254-2.43,3.796
		c1.735,0.624,2.916,1.98,2.916,4.285c0,3.715-2.396,5.613-6.734,5.613H98.489z M103.141,25.117v4.556h1.076
		c1.632,0,2.326-0.732,2.326-2.278c0-1.546-0.694-2.278-2.326-2.278H103.141z M103.141,32.765v5.044h1.424
		c1.631,0,2.465-0.786,2.465-2.522s-0.834-2.522-2.465-2.522H103.141z"/>
	<path fill="#C90C0F" d="M118.691,34.418v6.535h-4.651V21.972h6.353c3.68,0,6.839,1.817,6.839,6.237c0,4.42-3.159,6.21-6.839,6.21
		H118.691z M119.733,25.199h-1.042v5.993h1.042c2.013,0,2.847-1.139,2.847-2.983C122.579,26.338,121.745,25.199,119.733,25.199z"/>
	<path fill="#C90C0F" d="M133.685,40.954h-4.026V21.972h4.513v11.01l5.346-11.01h4.027v18.982h-4.513v-11.01L133.685,40.954z"/>
	<path fill="#C90C0F" d="M161.627,40.954h-16.42v-3.227h1.84c0.66-2.441,0.938-5.668,0.938-8.352v-7.403h11.733v15.755h1.909V40.954
		z M155.066,37.727V25.199h-2.395v4.42c0,2.549-0.348,5.749-0.868,8.108H155.066z"/>
	<path fill="#C90C0F" d="M173.288,37.564h-4.895l-0.833,3.39h-4.791l5.658-18.982h4.825l5.658,18.982h-4.79L173.288,37.564z
		 M169.192,34.337h3.298l-1.666-6.671L169.192,34.337z"/>
</g>
<g>
	<path fill="#3C3C3B" d="M190.737,32.329h-0.98v3.809h0.98c1.213,0,1.832-0.564,1.832-1.753v-0.303
		C192.569,32.894,191.95,32.329,190.737,32.329z"/>
	<path fill="#3C3C3B" d="M223.78,26.566c-1.161,0-1.729,0.665-1.729,2.378v5.038c0,1.713,0.568,2.378,1.729,2.378
		c1.161,0,1.729-0.665,1.729-2.378v-5.038C225.509,27.231,224.942,26.566,223.78,26.566z"/>
	<path fill="#3C3C3B" d="M183.55,21.646v19.633h60.109V21.646H183.55z M196.026,34.486c0,2.58-1.728,4.031-4.85,4.031H186.3V24.409
		h8.436v2.398h-4.979v3.144h1.419c3.122,0,4.85,1.451,4.85,4.011V34.486z M206.704,26.808h-5.418v3.265h4.644v2.398h-4.644v3.648
		h5.418v2.398h-8.875V24.409h8.875V26.808z M217.59,26.808h-3.302v11.709h-3.457V26.808h-3.302v-2.398h10.062V26.808z
		 M228.966,34.204c0,3.023-2.064,4.555-5.186,4.555c-3.121,0-5.186-1.532-5.186-4.555v-5.482c0-3.023,2.064-4.555,5.186-4.555
		c3.122,0,5.186,1.532,5.186,4.555V34.204z M240.908,38.516h-3.483v-6.046h-2.993v6.046h-3.483V24.409h3.483v5.663h2.993v-5.663
		h3.483V38.516z"/>
</g>
</svg>
